<svg xmlns="http://www.w3.org/2000/svg" viewBox="0 0 52 46" width="52" height="46" shape-rendering="geometricPrecision">
<title>body_stopwatch_card smooth contour vector</title>
<path d="M 44.00 0.00 L 51.00 2.00 L 50.00 0.00 Z M 32.00 0.00 L 28.00 0.00 L 27.00 1.00 L 26.00 0.00 L 25.00 1.00 L 26.00 0.00 L 28.00 2.00 L 27.00 3.00 L 24.00 3.00 L 20.00 6.00 L 15.00 6.00 L 13.00 8.00 L 10.00 17.00 L 8.00 18.00 L 8.00 22.00 L 13.00 25.00 L 14.00 23.00 L 15.00 24.00 L 16.00 33.00 L 15.00 34.00 L 14.00 33.00 L 14.00 31.00 L 14.00 33.00 L 18.00 39.00 L 20.00 40.00 L 19.00 39.00 L 21.00 38.00 L 23.00 40.00 L 22.00 41.00 L 23.00 40.00 L 27.00 40.00 L 28.00 41.00 L 29.00 40.00 L 34.00 40.00 L 36.00 39.00 L 41.00 34.00 L 43.00 29.00 L 43.00 25.00 L 41.00 20.00 L 44.00 16.00 L 44.00 10.00 L 43.00 9.00 L 38.00 9.00 L 36.00 10.00 L 35.00 12.00 L 33.00 11.00 L 33.00 9.00 L 26.00 9.00 L 25.00 10.00 L 26.00 13.00 L 25.00 14.00 L 22.00 13.00 L 23.00 14.00 L 22.00 15.00 L 18.00 12.00 L 21.00 10.00 L 23.00 10.00 L 22.00 8.00 L 23.00 5.00 L 24.00 6.00 L 26.00 5.00 L 25.00 4.00 L 26.00 3.00 L 29.00 3.00 Z M 18.00 38.00 L 19.00 37.00 L 20.00 38.00 L 19.00 39.00 Z M 25.00 36.00 L 26.00 35.00 L 32.00 35.00 L 33.00 36.00 L 32.00 37.00 L 26.00 37.00 Z M 32.00 35.00 L 33.00 34.00 L 35.00 35.00 L 34.00 36.00 Z M 23.00 35.00 L 24.00 34.00 L 26.00 35.00 L 25.00 36.00 Z M 16.00 35.00 L 17.00 34.00 L 19.00 37.00 L 18.00 38.00 Z M 34.00 34.00 L 35.00 33.00 L 36.00 34.00 L 35.00 35.00 Z M 22.00 34.00 L 23.00 33.00 L 24.00 34.00 L 23.00 35.00 Z M 15.00 34.00 L 16.00 33.00 L 17.00 34.00 L 16.00 35.00 Z M 35.00 33.00 L 36.00 32.00 L 37.00 33.00 L 36.00 34.00 Z M 21.00 33.00 L 22.00 32.00 L 23.00 33.00 L 22.00 34.00 Z M 27.00 30.00 L 28.00 29.00 L 29.00 30.00 L 28.00 31.00 Z M 26.00 29.00 L 27.00 28.00 L 28.00 29.00 L 27.00 30.00 Z M 25.00 27.00 L 26.00 26.00 L 27.00 27.00 L 26.00 28.00 Z M 24.00 26.00 L 25.00 25.00 L 26.00 26.00 L 25.00 27.00 Z M 30.00 24.00 L 31.00 23.00 L 33.00 24.00 L 32.00 25.00 Z M 20.00 23.00 L 21.00 24.00 L 21.00 29.00 L 22.00 30.00 L 21.00 33.00 L 19.00 30.00 L 19.00 24.00 Z M 37.00 21.00 L 39.00 23.00 L 39.00 30.00 L 38.00 31.00 L 37.00 28.00 L 38.00 32.00 L 37.00 33.00 L 36.00 32.00 L 33.00 34.00 L 31.00 32.00 L 28.00 31.00 L 33.00 27.00 L 32.00 25.00 L 34.00 23.00 L 36.00 23.00 L 37.00 25.00 L 36.00 23.00 Z M 20.00 22.00 L 21.00 21.00 L 22.00 22.00 L 21.00 23.00 Z M 14.00 22.00 L 15.00 21.00 L 16.00 23.00 L 15.00 24.00 Z M 35.00 20.00 L 36.00 19.00 L 37.00 21.00 L 36.00 22.00 Z M 22.00 20.00 L 23.00 19.00 L 24.00 20.00 L 23.00 21.00 Z M 15.00 20.00 L 16.00 19.00 L 17.00 20.00 L 16.00 21.00 Z M 32.00 19.00 L 33.00 18.00 L 34.00 19.00 L 33.00 20.00 Z M 23.00 19.00 L 24.00 18.00 L 26.00 19.00 L 25.00 20.00 Z M 40.00 18.00 L 41.00 17.00 L 42.00 18.00 L 41.00 19.00 Z M 28.00 18.00 L 29.00 17.00 L 31.00 18.00 L 30.00 19.00 Z M 26.00 18.00 L 27.00 17.00 L 28.00 18.00 L 27.00 19.00 Z M 16.00 18.00 L 17.00 17.00 L 18.00 18.00 L 17.00 19.00 Z M 14.00 16.00 L 15.00 15.00 L 16.00 16.00 L 15.00 17.00 Z M 41.00 17.00 L 41.00 15.00 L 43.00 14.00 L 44.00 16.00 L 42.00 18.00 Z M 35.00 14.00 L 36.00 13.00 L 37.00 14.00 L 36.00 15.00 Z M 15.00 14.00 L 16.00 13.00 L 17.00 14.00 L 16.00 15.00 Z M 39.00 13.00 L 40.00 12.00 L 41.00 13.00 L 40.00 14.00 Z M 32.00 13.00 L 33.00 12.00 L 35.00 13.00 L 34.00 14.00 Z M 16.00 13.00 L 17.00 12.00 L 18.00 13.00 L 17.00 14.00 Z M 20.00 8.00 L 21.00 7.00 L 22.00 8.00 L 21.00 9.00 Z M 14.00 0.00 L 8.00 0.00 L 1.00 4.00 L 0.00 6.00 L 7.00 2.00 Z" fill="rgb(112,138,10)" opacity="0.230" fill-rule="evenodd"/>
<path d="M 27.00 19.00 L 24.00 21.00 L 24.00 24.00 L 29.00 30.00 L 31.00 29.00 L 33.00 26.00 L 30.00 24.00 L 31.00 23.00 L 30.00 20.00 Z M 29.00 23.00 L 30.00 22.00 L 31.00 23.00 L 30.00 24.00 Z M 28.00 22.00 L 29.00 21.00 L 30.00 22.00 L 29.00 23.00 Z M 26.00 9.00 L 25.00 10.00 L 26.00 13.00 L 25.00 14.00 L 21.00 15.00 L 19.00 13.00 L 16.00 15.00 L 16.00 17.00 L 17.00 17.00 L 18.00 19.00 L 16.00 21.00 L 15.00 24.00 L 15.00 29.00 L 17.00 34.00 L 20.00 38.00 L 24.00 40.00 L 34.00 40.00 L 41.00 34.00 L 43.00 29.00 L 43.00 25.00 L 40.00 18.00 L 41.00 17.00 L 41.00 14.00 L 39.00 13.00 L 36.00 15.00 L 35.00 14.00 L 32.00 14.00 L 31.00 13.00 L 33.00 12.00 L 32.00 9.00 Z M 25.00 17.00 L 32.00 17.00 L 36.00 19.00 L 39.00 23.00 L 39.00 31.00 L 32.00 37.00 L 26.00 37.00 L 19.00 31.00 L 19.00 23.00 Z M 45.00 0.00 L 48.00 0.00 L 51.00 2.00 L 51.00 1.00 L 49.00 0.00 Z M 13.00 0.00 L 6.00 1.00 L 0.00 5.00 L 0.00 6.00 L 6.00 2.00 Z" fill="rgb(162,199,9)" opacity="0.360" fill-rule="evenodd"/>
<path d="M 24.00 21.00 L 24.00 23.00 L 26.00 25.00 L 26.00 26.00 L 28.00 28.00 L 28.00 29.00 L 30.00 29.00 L 33.00 26.00 L 32.00 25.00 L 31.00 25.00 L 29.00 23.00 L 28.00 23.00 L 26.00 21.00 Z M 29.00 20.00 L 29.00 21.00 L 30.00 21.00 Z M 26.00 9.00 L 25.00 10.00 L 25.00 11.00 L 27.00 13.00 L 26.00 14.00 L 24.00 14.00 L 23.00 15.00 L 21.00 15.00 L 20.00 14.00 L 17.00 14.00 L 17.00 15.00 L 16.00 16.00 L 18.00 18.00 L 18.00 19.00 L 16.00 21.00 L 16.00 24.00 L 15.00 25.00 L 15.00 28.00 L 16.00 29.00 L 16.00 32.00 L 17.00 33.00 L 17.00 34.00 L 22.00 39.00 L 23.00 39.00 L 24.00 40.00 L 33.00 40.00 L 34.00 39.00 L 37.00 38.00 L 40.00 35.00 L 40.00 34.00 L 42.00 32.00 L 42.00 22.00 L 40.00 19.00 L 40.00 17.00 L 41.00 16.00 L 41.00 14.00 L 38.00 14.00 L 37.00 15.00 L 35.00 15.00 L 34.00 14.00 L 32.00 14.00 L 31.00 13.00 L 33.00 11.00 L 33.00 10.00 L 32.00 9.00 Z M 23.00 18.00 L 24.00 18.00 L 25.00 17.00 L 33.00 17.00 L 34.00 18.00 L 35.00 18.00 L 38.00 21.00 L 38.00 22.00 L 39.00 23.00 L 39.00 31.00 L 38.00 32.00 L 38.00 33.00 L 36.00 35.00 L 35.00 35.00 L 32.00 37.00 L 26.00 37.00 L 25.00 36.00 L 22.00 35.00 L 20.00 33.00 L 20.00 32.00 L 19.00 31.00 L 19.00 29.00 L 18.00 28.00 L 18.00 26.00 L 19.00 25.00 L 19.00 23.00 L 20.00 22.00 L 20.00 21.00 Z" fill="rgb(166,205,9)" opacity="0.550" fill-rule="evenodd"/>
<path d="M 24.00 21.00 L 24.00 23.00 L 26.00 25.00 L 26.00 26.00 L 29.00 29.00 L 30.00 29.00 L 32.00 27.00 L 32.00 26.00 L 30.00 24.00 L 29.00 24.00 L 26.00 21.00 Z M 27.00 9.00 L 26.00 10.00 L 25.00 10.00 L 25.00 11.00 L 26.00 11.00 L 28.00 13.00 L 27.00 14.00 L 24.00 14.00 L 22.00 16.00 L 21.00 16.00 L 20.00 15.00 L 20.00 14.00 L 18.00 14.00 L 17.00 15.00 L 17.00 17.00 L 18.00 17.00 L 19.00 18.00 L 17.00 20.00 L 17.00 21.00 L 16.00 22.00 L 16.00 26.00 L 15.00 27.00 L 16.00 28.00 L 16.00 32.00 L 17.00 33.00 L 17.00 34.00 L 21.00 38.00 L 22.00 38.00 L 25.00 40.00 L 33.00 40.00 L 34.00 39.00 L 37.00 38.00 L 40.00 35.00 L 40.00 34.00 L 42.00 31.00 L 42.00 23.00 L 41.00 22.00 L 41.00 20.00 L 39.00 18.00 L 41.00 16.00 L 41.00 15.00 L 40.00 14.00 L 38.00 14.00 L 37.00 15.00 L 35.00 15.00 L 34.00 14.00 L 32.00 14.00 L 31.00 13.00 L 31.00 12.00 L 32.00 11.00 L 33.00 11.00 L 33.00 10.00 L 32.00 10.00 L 31.00 9.00 Z M 24.00 17.00 L 26.00 17.00 L 27.00 16.00 L 30.00 16.00 L 31.00 17.00 L 34.00 17.00 L 38.00 21.00 L 38.00 22.00 L 40.00 25.00 L 40.00 28.00 L 39.00 29.00 L 39.00 31.00 L 38.00 32.00 L 38.00 33.00 L 33.00 37.00 L 25.00 37.00 L 20.00 33.00 L 20.00 32.00 L 18.00 29.00 L 18.00 25.00 L 19.00 24.00 L 19.00 22.00 Z" fill="rgb(168,209,9)" opacity="0.780" fill-rule="evenodd"/>
<path d="M 25.00 21.00 L 24.00 22.00 L 24.00 23.00 L 27.00 26.00 L 27.00 27.00 L 29.00 29.00 L 30.00 29.00 L 32.00 27.00 L 32.00 26.00 L 31.00 25.00 L 30.00 25.00 L 26.00 21.00 Z M 26.00 10.00 L 26.00 11.00 L 27.00 11.00 L 28.00 12.00 L 28.00 13.00 L 27.00 14.00 L 25.00 14.00 L 22.00 16.00 L 21.00 16.00 L 19.00 14.00 L 18.00 14.00 L 17.00 15.00 L 17.00 17.00 L 18.00 17.00 L 19.00 18.00 L 17.00 20.00 L 17.00 21.00 L 16.00 22.00 L 16.00 31.00 L 17.00 32.00 L 18.00 35.00 L 21.00 38.00 L 22.00 38.00 L 23.00 39.00 L 25.00 39.00 L 26.00 40.00 L 32.00 40.00 L 33.00 39.00 L 35.00 39.00 L 37.00 37.00 L 38.00 37.00 L 42.00 31.00 L 42.00 23.00 L 41.00 22.00 L 41.00 20.00 L 39.00 18.00 L 41.00 16.00 L 41.00 15.00 L 40.00 14.00 L 38.00 14.00 L 38.00 15.00 L 37.00 16.00 L 36.00 16.00 L 35.00 15.00 L 34.00 15.00 L 33.00 14.00 L 31.00 14.00 L 30.00 13.00 L 32.00 11.00 L 32.00 10.00 Z M 27.00 16.00 L 31.00 16.00 L 32.00 17.00 L 34.00 17.00 L 39.00 22.00 L 39.00 24.00 L 40.00 25.00 L 40.00 29.00 L 39.00 30.00 L 38.00 33.00 L 35.00 36.00 L 34.00 36.00 L 33.00 37.00 L 31.00 37.00 L 30.00 38.00 L 28.00 38.00 L 27.00 37.00 L 25.00 37.00 L 24.00 36.00 L 23.00 36.00 L 19.00 32.00 L 19.00 31.00 L 18.00 30.00 L 18.00 24.00 L 19.00 23.00 L 19.00 22.00 L 24.00 17.00 L 26.00 17.00 Z" fill="rgb(170,211,9)" opacity="1.000" fill-rule="evenodd"/>
</svg>