<svg xmlns="http://www.w3.org/2000/svg" viewBox="0 0 51 46" width="51" height="46" shape-rendering="geometricPrecision">
<title>body_flame_card smooth contour vector</title>
<path d="M 16.00 10.00 L 16.00 12.00 L 17.00 13.00 L 17.00 17.00 L 15.00 19.00 L 14.00 18.00 L 14.00 17.00 L 13.00 17.00 L 12.00 18.00 L 12.00 22.00 L 9.00 25.00 L 9.00 27.00 L 8.00 28.00 L 8.00 32.00 L 12.00 38.00 L 13.00 38.00 L 16.00 40.00 L 23.00 40.00 L 24.00 39.00 L 25.00 39.00 L 29.00 35.00 L 29.00 34.00 L 30.00 33.00 L 30.00 31.00 L 31.00 30.00 L 31.00 27.00 L 30.00 26.00 L 30.00 23.00 L 29.00 22.00 L 28.00 19.00 L 25.00 16.00 L 25.00 15.00 L 22.00 12.00 L 21.00 12.00 L 18.00 10.00 Z M 21.00 24.00 L 23.00 26.00 L 23.00 27.00 L 24.00 28.00 L 24.00 33.00 L 21.00 36.00 L 18.00 36.00 L 15.00 33.00 L 15.00 31.00 L 16.00 30.00 L 16.00 29.00 L 17.00 28.00 L 18.00 28.00 L 19.00 27.00 L 19.00 26.00 Z" fill="rgb(188,229,11)" opacity="1.000" fill-rule="evenodd"/>
</svg>
