<svg xmlns="http://www.w3.org/2000/svg" viewBox="0 0 28 30" width="28" height="30" shape-rendering="geometricPrecision">
<title>action_arrow_up_right_legend smooth contour vector</title>
<path d="M 9.00 6.00 L 7.00 9.00 L 9.00 11.00 L 13.00 11.00 L 14.00 12.00 L 4.00 22.00 L 4.00 23.00 L 6.00 25.00 L 8.00 25.00 L 14.00 19.00 L 15.00 20.00 L 17.00 19.00 L 18.00 20.00 L 17.00 22.00 L 18.00 21.00 L 21.00 23.00 L 23.00 21.00 L 23.00 7.00 L 22.00 6.00 Z M 14.00 19.00 L 15.00 18.00 L 16.00 19.00 L 15.00 20.00 Z M 15.00 18.00 L 16.00 17.00 L 17.00 18.00 L 16.00 19.00 Z M 16.00 17.00 L 17.00 16.00 L 18.00 17.00 L 17.00 18.00 Z M 17.00 16.00 L 18.00 15.00 L 19.00 16.00 L 18.00 17.00 Z" fill="rgb(196,237,8)" opacity="0.230" fill-rule="evenodd"/>
<path d="M 9.00 6.00 L 7.00 9.00 L 9.00 11.00 L 13.00 11.00 L 14.00 12.00 L 4.00 22.00 L 5.00 24.00 L 8.00 25.00 L 17.00 16.00 L 19.00 22.00 L 21.00 23.00 L 23.00 21.00 L 23.00 7.00 L 22.00 6.00 Z M 17.00 16.00 L 18.00 15.00 L 19.00 16.00 L 18.00 17.00 Z" fill="rgb(197,238,8)" opacity="0.360" fill-rule="evenodd"/>
<path d="M 9.00 6.00 L 7.00 8.00 L 7.00 9.00 L 9.00 11.00 L 13.00 11.00 L 14.00 12.00 L 5.00 21.00 L 5.00 24.00 L 6.00 25.00 L 8.00 25.00 L 18.00 15.00 L 19.00 16.00 L 19.00 22.00 L 22.00 22.00 L 23.00 21.00 L 23.00 8.00 L 21.00 6.00 Z" fill="rgb(197,238,8)" opacity="0.550" fill-rule="evenodd"/>
<path d="M 21.00 6.00 L 14.00 6.00 L 13.00 7.00 L 8.00 7.00 L 8.00 10.00 L 9.00 10.00 L 10.00 11.00 L 12.00 11.00 L 13.00 10.00 L 14.00 11.00 L 14.00 12.00 L 5.00 21.00 L 5.00 23.00 L 7.00 25.00 L 8.00 24.00 L 9.00 24.00 L 18.00 15.00 L 19.00 16.00 L 19.00 22.00 L 22.00 22.00 L 23.00 21.00 L 23.00 8.00 Z" fill="rgb(198,238,9)" opacity="0.780" fill-rule="evenodd"/>
<path d="M 8.00 7.00 L 8.00 10.00 L 14.00 10.00 L 15.00 11.00 L 6.00 20.00 L 5.00 23.00 L 7.00 25.00 L 10.00 22.00 L 11.00 22.00 L 18.00 15.00 L 19.00 16.00 L 19.00 21.00 L 20.00 22.00 L 22.00 22.00 L 22.00 21.00 L 23.00 20.00 L 23.00 9.00 L 22.00 8.00 L 22.00 7.00 Z" fill="rgb(199,239,9)" opacity="1.000" fill-rule="evenodd"/>
</svg>