<svg xmlns="http://www.w3.org/2000/svg" viewBox="0 0 52 46" width="52" height="46" shape-rendering="geometricPrecision">
<title>body_stopwatch_card smooth contour vector</title>
<path d="M 25.00 21.00 L 24.00 22.00 L 24.00 23.00 L 27.00 26.00 L 27.00 27.00 L 29.00 29.00 L 30.00 29.00 L 32.00 27.00 L 32.00 26.00 L 31.00 25.00 L 30.00 25.00 L 26.00 21.00 Z M 26.00 10.00 L 26.00 11.00 L 27.00 11.00 L 28.00 12.00 L 28.00 13.00 L 27.00 14.00 L 25.00 14.00 L 22.00 16.00 L 21.00 16.00 L 19.00 14.00 L 18.00 14.00 L 17.00 15.00 L 17.00 17.00 L 18.00 17.00 L 19.00 18.00 L 17.00 20.00 L 17.00 21.00 L 16.00 22.00 L 16.00 31.00 L 17.00 32.00 L 18.00 35.00 L 21.00 38.00 L 22.00 38.00 L 23.00 39.00 L 25.00 39.00 L 26.00 40.00 L 32.00 40.00 L 33.00 39.00 L 35.00 39.00 L 37.00 37.00 L 38.00 37.00 L 42.00 31.00 L 42.00 23.00 L 41.00 22.00 L 41.00 20.00 L 39.00 18.00 L 41.00 16.00 L 41.00 15.00 L 40.00 14.00 L 38.00 14.00 L 38.00 15.00 L 37.00 16.00 L 36.00 16.00 L 35.00 15.00 L 34.00 15.00 L 33.00 14.00 L 31.00 14.00 L 30.00 13.00 L 32.00 11.00 L 32.00 10.00 Z M 27.00 16.00 L 31.00 16.00 L 32.00 17.00 L 34.00 17.00 L 39.00 22.00 L 39.00 24.00 L 40.00 25.00 L 40.00 29.00 L 39.00 30.00 L 38.00 33.00 L 35.00 36.00 L 34.00 36.00 L 33.00 37.00 L 31.00 37.00 L 30.00 38.00 L 28.00 38.00 L 27.00 37.00 L 25.00 37.00 L 24.00 36.00 L 23.00 36.00 L 19.00 32.00 L 19.00 31.00 L 18.00 30.00 L 18.00 24.00 L 19.00 23.00 L 19.00 22.00 L 24.00 17.00 L 26.00 17.00 Z" fill="rgb(170,211,9)" opacity="1.000" fill-rule="evenodd"/>
</svg>
