<svg xmlns="http://www.w3.org/2000/svg" viewBox="0 0 33 15" width="33" height="15" shape-rendering="geometricPrecision">
<title>common_menu_ellipsis smooth contour vector</title>
<path d="M 25.00 4.00 L 23.00 6.00 L 23.00 8.00 L 26.00 10.00 L 28.00 9.00 L 28.00 5.00 Z M 15.00 4.00 L 14.00 5.00 L 14.00 9.00 L 16.00 10.00 L 19.00 9.00 L 19.00 5.00 Z M 6.00 4.00 L 4.00 6.00 L 4.00 8.00 L 6.00 10.00 L 8.00 10.00 L 10.00 8.00 L 10.00 6.00 L 8.00 4.00 Z" fill="rgb(238,238,239)" opacity="0.230" fill-rule="evenodd"/>
<path d="M 25.00 4.00 L 23.00 6.00 L 23.00 8.00 L 26.00 10.00 L 28.00 9.00 L 28.00 5.00 Z M 16.00 4.00 L 14.00 5.00 L 14.00 8.00 L 17.00 10.00 L 19.00 8.00 L 19.00 6.00 Z M 6.00 4.00 L 4.00 6.00 L 4.00 8.00 L 6.00 10.00 L 8.00 10.00 L 10.00 8.00 L 10.00 6.00 L 8.00 4.00 Z" fill="rgb(240,239,240)" opacity="0.360" fill-rule="evenodd"/>
<path d="M 25.00 4.00 L 23.00 6.00 L 23.00 8.00 L 25.00 10.00 L 26.00 10.00 L 28.00 8.00 L 28.00 6.00 L 26.00 4.00 Z M 16.00 4.00 L 14.00 6.00 L 14.00 8.00 L 16.00 10.00 L 17.00 10.00 L 19.00 8.00 L 19.00 6.00 L 17.00 4.00 Z M 6.00 4.00 L 4.00 7.00 L 5.00 8.00 L 5.00 9.00 L 8.00 10.00 L 10.00 8.00 L 10.00 6.00 L 8.00 4.00 Z" fill="rgb(242,241,242)" opacity="0.550" fill-rule="evenodd"/>
<path d="M 24.00 5.00 L 23.00 6.00 L 23.00 8.00 L 26.00 10.00 L 28.00 8.00 L 28.00 6.00 L 27.00 5.00 Z M 16.00 4.00 L 14.00 6.00 L 14.00 8.00 L 15.00 9.00 L 18.00 9.00 L 19.00 8.00 L 19.00 6.00 L 17.00 4.00 Z M 8.00 4.00 L 5.00 5.00 L 5.00 6.00 L 4.00 7.00 L 5.00 8.00 L 5.00 9.00 L 6.00 9.00 L 7.00 10.00 L 8.00 9.00 L 9.00 9.00 L 9.00 8.00 L 10.00 7.00 L 10.00 6.00 Z" fill="rgb(242,242,242)" opacity="0.780" fill-rule="evenodd"/>
<path d="M 24.00 5.00 L 23.00 8.00 L 24.00 9.00 L 27.00 9.00 L 28.00 8.00 L 28.00 6.00 L 27.00 5.00 Z M 15.00 5.00 L 14.00 6.00 L 14.00 8.00 L 15.00 9.00 L 18.00 9.00 L 19.00 8.00 L 19.00 6.00 L 18.00 5.00 Z M 5.00 5.00 L 5.00 8.00 L 6.00 9.00 L 9.00 9.00 L 9.00 8.00 L 10.00 7.00 L 9.00 6.00 L 9.00 5.00 L 8.00 5.00 L 7.00 4.00 L 6.00 5.00 Z" fill="rgb(244,243,244)" opacity="1.000" fill-rule="evenodd"/>
</svg>