<svg xmlns="http://www.w3.org/2000/svg" viewBox="0 0 88 87" width="88" height="87" shape-rendering="geometricPrecision">
<title>badminton_shuttle_main smooth contour vector</title>
<path d="M 18.00 52.00 L 17.00 53.00 L 16.00 53.00 L 10.00 59.00 L 10.00 60.00 L 9.00 61.00 L 9.00 71.00 L 10.00 72.00 L 11.00 75.00 L 15.00 79.00 L 16.00 79.00 L 19.00 81.00 L 28.00 81.00 L 29.00 80.00 L 32.00 79.00 L 36.00 75.00 L 36.00 74.00 L 37.00 73.00 L 39.00 68.00 L 35.00 64.00 L 34.00 64.00 L 31.00 61.00 L 30.00 61.00 L 24.00 55.00 L 23.00 55.00 L 20.00 52.00 Z M 14.00 72.00 L 15.00 71.00 L 17.00 71.00 L 20.00 74.00 L 21.00 74.00 L 23.00 76.00 L 22.00 77.00 L 19.00 77.00 L 18.00 76.00 L 16.00 76.00 L 14.00 74.00 Z M 29.00 70.00 L 30.00 69.00 L 31.00 69.00 L 32.00 70.00 L 31.00 71.00 L 30.00 71.00 Z M 13.00 70.00 L 14.00 69.00 L 15.00 70.00 L 15.00 71.00 L 14.00 72.00 L 13.00 71.00 Z M 25.00 65.00 L 28.00 68.00 L 28.00 69.00 L 27.00 70.00 L 25.00 70.00 L 23.00 68.00 L 23.00 67.00 Z M 13.00 61.00 L 14.00 60.00 L 16.00 60.00 L 17.00 61.00 L 17.00 63.00 L 16.00 64.00 L 14.00 64.00 L 13.00 63.00 Z M 56.00 7.00 L 54.00 7.00 L 53.00 8.00 L 53.00 9.00 L 51.00 11.00 L 48.00 8.00 L 47.00 8.00 L 44.00 6.00 L 43.00 6.00 L 42.00 7.00 L 39.00 7.00 L 36.00 10.00 L 36.00 11.00 L 35.00 12.00 L 35.00 14.00 L 34.00 15.00 L 34.00 17.00 L 33.00 18.00 L 33.00 20.00 L 32.00 21.00 L 32.00 23.00 L 31.00 24.00 L 31.00 26.00 L 30.00 27.00 L 30.00 29.00 L 29.00 30.00 L 29.00 32.00 L 27.00 35.00 L 27.00 37.00 L 26.00 38.00 L 26.00 40.00 L 25.00 41.00 L 25.00 44.00 L 24.00 45.00 L 24.00 47.00 L 23.00 48.00 L 26.00 51.00 L 27.00 51.00 L 31.00 55.00 L 32.00 55.00 L 38.00 61.00 L 39.00 61.00 L 41.00 63.00 L 43.00 63.00 L 45.00 61.00 L 46.00 61.00 L 47.00 60.00 L 48.00 60.00 L 49.00 59.00 L 50.00 59.00 L 51.00 58.00 L 52.00 58.00 L 53.00 57.00 L 54.00 57.00 L 55.00 56.00 L 56.00 56.00 L 57.00 55.00 L 58.00 55.00 L 59.00 54.00 L 60.00 54.00 L 61.00 53.00 L 62.00 53.00 L 63.00 52.00 L 64.00 52.00 L 65.00 51.00 L 66.00 51.00 L 67.00 50.00 L 68.00 50.00 L 69.00 49.00 L 70.00 49.00 L 71.00 48.00 L 72.00 48.00 L 73.00 47.00 L 78.00 45.00 L 80.00 43.00 L 80.00 42.00 L 79.00 41.00 L 79.00 37.00 L 80.00 36.00 L 80.00 33.00 L 73.00 28.00 L 77.00 24.00 L 77.00 23.00 L 75.00 21.00 L 70.00 21.00 L 61.00 13.00 L 59.00 13.00 L 57.00 11.00 L 57.00 8.00 Z M 76.00 34.00 L 76.00 42.00 L 75.00 43.00 L 74.00 43.00 L 69.00 46.00 L 67.00 46.00 L 66.00 47.00 L 65.00 47.00 L 63.00 49.00 L 62.00 49.00 L 61.00 50.00 L 59.00 50.00 L 57.00 52.00 L 56.00 52.00 L 55.00 53.00 L 52.00 53.00 L 51.00 54.00 L 50.00 54.00 L 48.00 56.00 L 47.00 56.00 L 44.00 58.00 L 42.00 58.00 L 41.00 57.00 L 41.00 56.00 L 45.00 52.00 L 46.00 52.00 L 51.00 47.00 L 52.00 47.00 L 56.00 43.00 L 57.00 43.00 L 61.00 39.00 L 62.00 39.00 L 69.00 32.00 L 72.00 32.00 L 73.00 33.00 L 75.00 33.00 Z M 60.00 16.00 L 67.00 23.00 L 68.00 23.00 L 70.00 25.00 L 70.00 26.00 L 64.00 33.00 L 63.00 33.00 L 59.00 37.00 L 58.00 37.00 L 55.00 40.00 L 54.00 40.00 L 49.00 45.00 L 48.00 45.00 L 46.00 47.00 L 45.00 47.00 L 39.00 53.00 L 37.00 53.00 L 34.00 50.00 L 34.00 49.00 L 35.00 48.00 L 35.00 47.00 L 36.00 46.00 L 36.00 45.00 L 37.00 44.00 L 37.00 43.00 L 38.00 42.00 L 40.00 37.00 L 42.00 35.00 L 42.00 34.00 L 43.00 33.00 L 43.00 32.00 L 44.00 31.00 L 44.00 30.00 L 45.00 29.00 L 47.00 24.00 L 49.00 22.00 L 49.00 21.00 L 51.00 19.00 L 52.00 16.00 L 54.00 14.00 L 55.00 14.00 L 57.00 16.00 Z M 46.00 10.00 L 47.00 11.00 L 49.00 16.00 L 47.00 18.00 L 45.00 23.00 L 41.00 28.00 L 41.00 29.00 L 40.00 30.00 L 40.00 31.00 L 39.00 32.00 L 37.00 37.00 L 35.00 39.00 L 33.00 44.00 L 31.00 46.00 L 31.00 47.00 L 30.00 48.00 L 28.00 46.00 L 28.00 45.00 L 29.00 44.00 L 29.00 41.00 L 30.00 40.00 L 30.00 38.00 L 31.00 37.00 L 31.00 35.00 L 32.00 34.00 L 32.00 31.00 L 34.00 28.00 L 34.00 26.00 L 35.00 25.00 L 35.00 23.00 L 36.00 22.00 L 36.00 19.00 L 37.00 18.00 L 37.00 16.00 L 38.00 15.00 L 38.00 13.00 L 40.00 10.00 Z" fill="rgb(216,244,5)" opacity="1.000" fill-rule="evenodd"/>
</svg>
