<svg xmlns="http://www.w3.org/2000/svg" viewBox="0 0 78 59" width="78" height="59" shape-rendering="geometricPrecision">
<title>badminton_speedometer_card smooth contour vector</title>
<path d="M 51.00 19.00 L 50.00 20.00 L 49.00 20.00 L 42.00 27.00 L 41.00 27.00 L 40.00 26.00 L 36.00 26.00 L 35.00 27.00 L 34.00 27.00 L 32.00 29.00 L 32.00 30.00 L 31.00 31.00 L 31.00 37.00 L 35.00 41.00 L 41.00 41.00 L 44.00 39.00 L 44.00 38.00 L 46.00 35.00 L 46.00 33.00 L 45.00 32.00 L 45.00 31.00 L 48.00 28.00 L 48.00 27.00 L 53.00 22.00 L 53.00 21.00 Z M 37.00 30.00 L 39.00 30.00 L 41.00 32.00 L 41.00 33.00 L 42.00 34.00 L 40.00 37.00 L 37.00 37.00 L 35.00 35.00 L 35.00 32.00 Z M 21.00 7.00 L 14.00 14.00 L 14.00 15.00 L 12.00 17.00 L 12.00 18.00 L 10.00 21.00 L 10.00 23.00 L 9.00 24.00 L 9.00 28.00 L 8.00 29.00 L 8.00 36.00 L 9.00 37.00 L 9.00 40.00 L 10.00 41.00 L 10.00 43.00 L 11.00 44.00 L 11.00 46.00 L 12.00 47.00 L 12.00 48.00 L 15.00 51.00 L 15.00 52.00 L 16.00 53.00 L 19.00 53.00 L 21.00 51.00 L 21.00 50.00 L 19.00 48.00 L 18.00 48.00 L 17.00 47.00 L 17.00 46.00 L 14.00 41.00 L 14.00 37.00 L 13.00 36.00 L 13.00 33.00 L 14.00 32.00 L 14.00 31.00 L 13.00 30.00 L 13.00 29.00 L 14.00 28.00 L 14.00 24.00 L 15.00 23.00 L 17.00 18.00 L 21.00 14.00 L 22.00 14.00 L 22.00 13.00 L 24.00 11.00 L 25.00 11.00 L 28.00 9.00 L 30.00 9.00 L 31.00 8.00 L 34.00 8.00 L 35.00 7.00 L 36.00 7.00 L 37.00 8.00 L 37.00 9.00 L 39.00 9.00 L 41.00 7.00 L 43.00 7.00 L 44.00 8.00 L 47.00 8.00 L 48.00 9.00 L 51.00 10.00 L 54.00 13.00 L 55.00 13.00 L 58.00 16.00 L 58.00 17.00 L 60.00 19.00 L 60.00 20.00 L 63.00 25.00 L 63.00 39.00 L 61.00 42.00 L 61.00 44.00 L 60.00 45.00 L 60.00 46.00 L 58.00 48.00 L 57.00 48.00 L 56.00 49.00 L 56.00 52.00 L 58.00 54.00 L 59.00 54.00 L 63.00 50.00 L 63.00 49.00 L 65.00 47.00 L 65.00 46.00 L 66.00 45.00 L 66.00 43.00 L 68.00 40.00 L 68.00 26.00 L 67.00 25.00 L 67.00 22.00 L 66.00 21.00 L 64.00 16.00 L 62.00 14.00 L 62.00 13.00 L 54.00 6.00 L 53.00 6.00 L 50.00 4.00 L 48.00 4.00 L 47.00 3.00 L 44.00 3.00 L 43.00 2.00 L 34.00 2.00 L 33.00 3.00 L 29.00 3.00 L 28.00 4.00 L 27.00 4.00 L 26.00 5.00 Z" fill="rgb(213,244,6)" opacity="1.000" fill-rule="evenodd"/>
</svg>
