<svg xmlns="http://www.w3.org/2000/svg" viewBox="0 0 68 76" width="68" height="76" shape-rendering="geometricPrecision">
<title>action_runner_button smooth contour vector</title>
<path d="M 45.00 25.00 L 42.00 25.00 L 40.00 27.00 L 37.00 28.00 L 34.00 25.00 L 33.00 25.00 L 31.00 23.00 L 30.00 23.00 L 27.00 21.00 L 20.00 21.00 L 19.00 22.00 L 18.00 22.00 L 14.00 29.00 L 14.00 31.00 L 15.00 32.00 L 17.00 32.00 L 18.00 31.00 L 19.00 28.00 L 21.00 26.00 L 23.00 26.00 L 24.00 27.00 L 21.00 32.00 L 21.00 34.00 L 18.00 39.00 L 18.00 41.00 L 16.00 43.00 L 16.00 45.00 L 12.00 49.00 L 11.00 49.00 L 6.00 52.00 L 7.00 55.00 L 10.00 55.00 L 12.00 53.00 L 14.00 53.00 L 15.00 52.00 L 16.00 52.00 L 20.00 48.00 L 21.00 45.00 L 23.00 43.00 L 24.00 44.00 L 27.00 45.00 L 29.00 47.00 L 29.00 48.00 L 27.00 50.00 L 27.00 51.00 L 25.00 53.00 L 25.00 54.00 L 24.00 55.00 L 24.00 58.00 L 25.00 59.00 L 26.00 59.00 L 30.00 55.00 L 30.00 54.00 L 33.00 51.00 L 33.00 50.00 L 35.00 48.00 L 35.00 47.00 L 36.00 46.00 L 36.00 45.00 L 33.00 42.00 L 30.00 41.00 L 27.00 38.00 L 29.00 36.00 L 29.00 35.00 L 32.00 30.00 L 35.00 33.00 L 38.00 34.00 L 46.00 27.00 L 45.00 26.00 Z M 31.00 13.00 L 29.00 15.00 L 29.00 19.00 L 32.00 21.00 L 34.00 21.00 L 35.00 20.00 L 36.00 20.00 L 36.00 19.00 L 37.00 18.00 L 37.00 16.00 L 36.00 15.00 L 36.00 14.00 L 35.00 13.00 Z" fill="rgb(212,242,7)" opacity="1.000" fill-rule="evenodd"/>
</svg>
