<svg xmlns="http://www.w3.org/2000/svg" viewBox="0 0 78 59" width="78" height="59" shape-rendering="geometricPrecision">
<title>badminton_speedometer_card smooth contour vector</title>
<path d="M 77.00 48.00 L 76.00 51.00 L 77.00 52.00 Z M 0.00 0.00 L 0.00 5.00 L 1.00 6.00 L 2.00 4.00 L 4.00 6.00 L 0.00 10.00 L 0.00 58.00 L 40.00 58.00 L 41.00 56.00 L 42.00 58.00 L 49.00 58.00 L 49.00 55.00 L 50.00 54.00 L 52.00 55.00 L 51.00 58.00 L 55.00 58.00 L 56.00 57.00 L 57.00 58.00 L 58.00 57.00 L 61.00 58.00 L 62.00 56.00 L 63.00 57.00 L 69.00 53.00 L 66.00 53.00 L 65.00 52.00 L 59.00 57.00 L 55.00 55.00 L 56.00 53.00 L 57.00 54.00 L 60.00 54.00 L 63.00 51.00 L 69.00 39.00 L 70.00 40.00 L 70.00 43.00 L 74.00 43.00 L 77.00 40.00 L 77.00 31.00 L 76.00 32.00 L 71.00 32.00 L 71.00 35.00 L 70.00 36.00 L 69.00 35.00 L 69.00 28.00 L 67.00 23.00 L 68.00 20.00 L 70.00 24.00 L 76.00 20.00 L 77.00 18.00 L 77.00 11.00 L 74.00 9.00 L 73.00 10.00 L 71.00 9.00 L 67.00 13.00 L 65.00 13.00 L 62.00 10.00 L 63.00 9.00 L 67.00 9.00 L 70.00 7.00 L 69.00 6.00 L 70.00 4.00 L 69.00 2.00 L 66.00 1.00 L 65.00 2.00 L 63.00 0.00 L 62.00 1.00 L 61.00 0.00 L 40.00 0.00 L 44.00 0.00 L 45.00 1.00 L 44.00 2.00 L 31.00 2.00 L 28.00 3.00 L 27.00 2.00 L 30.00 0.00 L 34.00 0.00 Z M 54.00 56.00 L 55.00 55.00 L 56.00 56.00 L 55.00 57.00 Z M 52.00 54.00 L 54.00 53.00 L 55.00 55.00 L 53.00 56.00 Z M 19.00 54.00 L 20.00 53.00 L 21.00 54.00 L 20.00 55.00 Z M 54.00 53.00 L 55.00 52.00 L 56.00 53.00 L 55.00 54.00 Z M 20.00 53.00 L 21.00 52.00 L 22.00 53.00 L 21.00 54.00 Z M 54.00 49.00 L 55.00 50.00 L 54.00 53.00 L 53.00 52.00 Z M 7.00 52.00 L 11.00 50.00 L 12.00 48.00 L 17.00 54.00 L 20.00 55.00 L 19.00 56.00 L 16.00 56.00 L 14.00 54.00 L 12.00 56.00 L 11.00 55.00 L 8.00 56.00 L 7.00 55.00 Z M 20.00 48.00 L 21.00 47.00 L 22.00 48.00 L 21.00 49.00 Z M 10.00 48.00 L 11.00 47.00 L 12.00 48.00 L 11.00 49.00 Z M 55.00 45.00 L 56.00 44.00 L 57.00 45.00 L 56.00 46.00 Z M 21.00 44.00 L 22.00 43.00 L 23.00 45.00 L 22.00 46.00 Z M 30.00 42.00 L 32.00 39.00 L 36.00 42.00 L 41.00 42.00 L 42.00 43.00 L 41.00 44.00 L 35.00 44.00 L 34.00 43.00 L 31.00 44.00 Z M 16.00 39.00 L 21.00 47.00 L 20.00 48.00 L 17.00 46.00 L 15.00 42.00 Z M 30.00 39.00 L 31.00 38.00 L 32.00 39.00 L 31.00 40.00 Z M 8.00 38.00 L 9.00 39.00 L 9.00 42.00 L 11.00 45.00 L 10.00 47.00 L 8.00 44.00 L 7.00 45.00 L 5.00 44.00 L 5.00 41.00 L 6.00 40.00 L 7.00 42.00 L 7.00 39.00 Z M 29.00 37.00 L 30.00 36.00 L 31.00 37.00 L 30.00 38.00 Z M 36.00 35.00 L 37.00 34.00 L 40.00 36.00 L 37.00 37.00 Z M 47.00 30.00 L 49.00 33.00 L 54.00 34.00 L 56.00 36.00 L 58.00 36.00 L 59.00 38.00 L 61.00 37.00 L 62.00 38.00 L 62.00 41.00 L 60.00 44.00 L 60.00 46.00 L 55.00 50.00 L 54.00 48.00 L 57.00 46.00 L 57.00 45.00 L 53.00 40.00 L 49.00 39.00 L 46.00 40.00 L 43.00 43.00 L 41.00 42.00 L 45.00 38.00 L 46.00 36.00 L 46.00 31.00 Z M 38.00 30.00 L 41.00 33.00 L 40.00 36.00 L 38.00 33.00 L 37.00 34.00 L 36.00 33.00 Z M 24.00 30.00 L 25.00 29.00 L 27.00 30.00 L 30.00 29.00 L 31.00 32.00 L 29.00 35.00 L 28.00 32.00 L 26.00 32.00 Z M 30.00 29.00 L 31.00 28.00 L 32.00 29.00 L 31.00 30.00 Z M 31.00 28.00 L 32.00 27.00 L 33.00 28.00 L 32.00 29.00 Z M 32.00 27.00 L 33.00 26.00 L 34.00 27.00 L 33.00 28.00 Z M 50.00 26.00 L 51.00 25.00 L 52.00 26.00 L 51.00 27.00 Z M 33.00 26.00 L 34.00 25.00 L 35.00 26.00 L 34.00 27.00 Z M 51.00 25.00 L 52.00 24.00 L 53.00 25.00 L 52.00 26.00 Z M 35.00 25.00 L 36.00 24.00 L 42.00 24.00 L 43.00 25.00 L 42.00 26.00 L 36.00 26.00 Z M 4.00 25.00 L 5.00 24.00 L 6.00 25.00 L 5.00 26.00 Z M 52.00 24.00 L 53.00 23.00 L 54.00 24.00 L 53.00 25.00 Z M 42.00 24.00 L 43.00 23.00 L 44.00 24.00 L 43.00 25.00 Z M 53.00 23.00 L 54.00 22.00 L 55.00 23.00 L 54.00 24.00 Z M 5.00 23.00 L 6.00 22.00 L 7.00 23.00 L 6.00 24.00 Z M 60.00 21.00 L 63.00 27.00 L 63.00 37.00 L 62.00 38.00 L 61.00 37.00 L 61.00 28.00 L 60.00 26.00 L 59.00 27.00 L 58.00 26.00 Z M 17.00 21.00 L 18.00 22.00 L 17.00 27.00 L 18.00 26.00 L 23.00 29.00 L 21.00 31.00 L 20.00 30.00 L 18.00 31.00 L 17.00 30.00 L 15.00 32.00 L 14.00 31.00 L 14.00 26.00 L 15.00 23.00 Z M 47.00 20.00 L 48.00 19.00 L 49.00 20.00 L 48.00 21.00 Z M 17.00 20.00 L 18.00 19.00 L 19.00 20.00 L 18.00 21.00 Z M 9.00 19.00 L 10.00 22.00 L 8.00 27.00 L 8.00 38.00 L 7.00 39.00 L 6.00 38.00 L 6.00 25.00 Z M 48.00 19.00 L 49.00 18.00 L 50.00 19.00 L 49.00 20.00 Z M 18.00 18.00 L 19.00 17.00 L 20.00 18.00 L 19.00 19.00 Z M 9.00 18.00 L 10.00 17.00 L 11.00 19.00 L 10.00 20.00 Z M 65.00 17.00 L 66.00 16.00 L 67.00 17.00 L 66.00 18.00 Z M 19.00 17.00 L 20.00 16.00 L 21.00 17.00 L 20.00 18.00 Z M 20.00 16.00 L 21.00 15.00 L 22.00 16.00 L 21.00 17.00 Z M 10.00 16.00 L 11.00 15.00 L 12.00 17.00 L 11.00 18.00 Z M 64.00 15.00 L 65.00 14.00 L 66.00 15.00 L 65.00 16.00 Z M 11.00 15.00 L 12.00 14.00 L 13.00 15.00 L 12.00 16.00 Z M 12.00 14.00 L 13.00 13.00 L 14.00 14.00 L 13.00 15.00 Z M 53.00 12.00 L 60.00 20.00 L 59.00 22.00 L 58.00 21.00 L 59.00 23.00 L 58.00 25.00 L 54.00 22.00 L 54.00 20.00 L 49.00 18.00 L 51.00 17.00 L 52.00 14.00 L 51.00 13.00 Z M 50.00 12.00 L 51.00 11.00 L 52.00 12.00 L 51.00 13.00 Z M 47.00 11.00 L 48.00 10.00 L 50.00 11.00 L 49.00 12.00 Z M 38.00 11.00 L 39.00 10.00 L 40.00 11.00 L 39.00 12.00 Z M 29.00 11.00 L 24.00 15.00 L 22.00 14.00 L 27.00 10.00 Z M 15.00 10.00 L 16.00 9.00 L 17.00 10.00 L 16.00 11.00 Z M 58.00 9.00 L 60.00 8.00 L 65.00 14.00 L 64.00 15.00 Z M 40.00 9.00 L 41.00 8.00 L 45.00 8.00 L 48.00 10.00 L 47.00 11.00 L 44.00 11.00 Z M 35.00 9.00 L 36.00 8.00 L 37.00 9.00 L 36.00 10.00 Z M 16.00 9.00 L 17.00 8.00 L 18.00 9.00 L 17.00 10.00 Z M 57.00 8.00 L 58.00 7.00 L 59.00 8.00 L 58.00 9.00 Z M 17.00 8.00 L 18.00 7.00 L 19.00 8.00 L 18.00 9.00 Z M 67.00 7.00 L 68.00 6.00 L 69.00 7.00 L 68.00 8.00 Z M 56.00 7.00 L 57.00 6.00 L 58.00 7.00 L 57.00 8.00 Z M 54.00 6.00 L 55.00 5.00 L 57.00 6.00 L 56.00 7.00 Z M 20.00 6.00 L 21.00 5.00 L 22.00 6.00 L 21.00 7.00 Z M 53.00 5.00 L 54.00 4.00 L 55.00 5.00 L 54.00 6.00 Z M 51.00 4.00 L 52.00 3.00 L 54.00 4.00 L 53.00 5.00 Z M 23.00 4.00 L 24.00 3.00 L 25.00 4.00 L 24.00 5.00 Z M 48.00 3.00 L 49.00 2.00 L 52.00 3.00 L 51.00 4.00 Z M 25.00 3.00 L 26.00 2.00 L 28.00 3.00 L 27.00 4.00 Z M 46.00 2.00 L 47.00 1.00 L 49.00 2.00 L 48.00 3.00 Z M 62.00 1.00 L 63.00 0.00 L 64.00 1.00 L 63.00 2.00 Z" fill="rgb(37,47,1)" opacity="0.230" fill-rule="evenodd"/>
<path d="M 0.00 24.00 L 0.00 36.00 L 1.00 37.00 L 4.00 37.00 L 6.00 39.00 L 6.00 26.00 L 5.00 28.00 L 2.00 27.00 Z M 1.00 12.00 L 0.00 20.00 L 2.00 21.00 L 6.00 21.00 L 7.00 22.00 L 9.00 19.00 L 10.00 20.00 L 9.00 26.00 L 8.00 27.00 L 8.00 38.00 L 11.00 47.00 L 10.00 48.00 L 8.00 44.00 L 8.00 45.00 L 6.00 46.00 L 1.00 40.00 L 0.00 40.00 L 0.00 51.00 L 2.00 52.00 L 4.00 50.00 L 5.00 51.00 L 10.00 49.00 L 11.00 50.00 L 10.00 49.00 L 11.00 47.00 L 17.00 54.00 L 20.00 55.00 L 14.00 57.00 L 6.00 57.00 L 5.00 58.00 L 0.00 57.00 L 0.00 58.00 L 24.00 58.00 L 26.00 56.00 L 30.00 55.00 L 33.00 53.00 L 40.00 53.00 L 43.00 51.00 L 52.00 51.00 L 53.00 52.00 L 54.00 49.00 L 55.00 52.00 L 57.00 54.00 L 60.00 54.00 L 65.00 48.00 L 69.00 39.00 L 70.00 40.00 L 70.00 43.00 L 71.00 42.00 L 74.00 42.00 L 77.00 39.00 L 77.00 33.00 L 71.00 33.00 L 71.00 37.00 L 70.00 38.00 L 69.00 37.00 L 69.00 28.00 L 67.00 23.00 L 68.00 20.00 L 70.00 23.00 L 72.00 22.00 L 75.00 18.00 L 75.00 15.00 L 70.00 13.00 L 68.00 14.00 L 67.00 13.00 L 65.00 17.00 L 58.00 9.00 L 59.00 8.00 L 61.00 9.00 L 63.00 8.00 L 64.00 4.00 L 63.00 5.00 L 58.00 0.00 L 41.00 0.00 L 45.00 0.00 L 46.00 1.00 L 45.00 2.00 L 31.00 2.00 L 30.00 3.00 L 27.00 2.00 L 30.00 0.00 L 33.00 0.00 L 29.00 0.00 L 28.00 1.00 L 27.00 0.00 L 19.00 0.00 L 18.00 2.00 L 16.00 2.00 L 12.00 6.00 L 9.00 6.00 L 6.00 8.00 L 4.00 11.00 Z M 19.00 54.00 L 20.00 52.00 L 22.00 53.00 L 20.00 55.00 Z M 21.00 51.00 L 22.00 50.00 L 23.00 52.00 L 22.00 53.00 Z M 54.00 46.00 L 55.00 45.00 L 56.00 46.00 L 55.00 47.00 Z M 30.00 39.00 L 31.00 38.00 L 32.00 39.00 L 31.00 40.00 Z M 29.00 37.00 L 30.00 36.00 L 31.00 37.00 L 30.00 38.00 Z M 14.00 37.00 L 15.00 36.00 L 16.00 37.00 L 15.00 38.00 Z M 62.00 38.00 L 62.00 41.00 L 60.00 44.00 L 60.00 46.00 L 55.00 50.00 L 54.00 48.00 L 57.00 45.00 L 56.00 46.00 L 52.00 41.00 L 49.00 40.00 L 42.00 44.00 L 39.00 44.00 L 38.00 45.00 L 36.00 44.00 L 37.00 45.00 L 36.00 46.00 L 28.00 45.00 L 24.00 48.00 L 22.00 47.00 L 23.00 48.00 L 22.00 50.00 L 17.00 46.00 L 15.00 42.00 L 15.00 39.00 L 16.00 38.00 L 18.00 41.00 L 22.00 41.00 L 23.00 42.00 L 25.00 41.00 L 26.00 42.00 L 28.00 40.00 L 31.00 40.00 L 32.00 39.00 L 36.00 42.00 L 41.00 42.00 L 45.00 38.00 L 46.00 36.00 L 46.00 31.00 L 47.00 30.00 L 49.00 32.00 L 55.00 34.00 L 58.00 34.00 L 59.00 36.00 Z M 38.00 30.00 L 41.00 33.00 L 41.00 35.00 L 39.00 37.00 L 37.00 37.00 L 36.00 35.00 L 37.00 34.00 L 38.00 35.00 L 35.00 33.00 Z M 47.00 29.00 L 48.00 28.00 L 49.00 30.00 L 48.00 31.00 Z M 48.00 28.00 L 49.00 27.00 L 50.00 28.00 L 49.00 29.00 Z M 49.00 27.00 L 50.00 26.00 L 51.00 27.00 L 50.00 28.00 Z M 32.00 27.00 L 33.00 26.00 L 34.00 27.00 L 33.00 28.00 Z M 50.00 26.00 L 51.00 25.00 L 52.00 26.00 L 51.00 27.00 Z M 33.00 26.00 L 34.00 25.00 L 35.00 26.00 L 34.00 27.00 Z M 51.00 25.00 L 52.00 24.00 L 53.00 25.00 L 52.00 26.00 Z M 34.00 25.00 L 35.00 24.00 L 42.00 24.00 L 43.00 25.00 L 42.00 26.00 L 35.00 26.00 Z M 42.00 24.00 L 43.00 23.00 L 44.00 24.00 L 43.00 25.00 Z M 43.00 23.00 L 44.00 22.00 L 45.00 23.00 L 44.00 24.00 Z M 44.00 22.00 L 45.00 21.00 L 46.00 22.00 L 45.00 23.00 Z M 17.00 20.00 L 18.00 21.00 L 18.00 24.00 L 17.00 25.00 L 22.00 26.00 L 24.00 28.00 L 30.00 28.00 L 32.00 27.00 L 33.00 28.00 L 31.00 30.00 L 30.00 34.00 L 29.00 35.00 L 28.00 33.00 L 18.00 32.00 L 17.00 31.00 L 15.00 35.00 L 14.00 34.00 L 14.00 26.00 Z M 48.00 19.00 L 49.00 20.00 L 46.00 22.00 L 45.00 21.00 Z M 66.00 19.00 L 67.00 18.00 L 68.00 19.00 L 67.00 20.00 Z M 48.00 19.00 L 49.00 18.00 L 50.00 19.00 L 49.00 20.00 Z M 17.00 19.00 L 18.00 18.00 L 19.00 20.00 L 18.00 21.00 Z M 18.00 18.00 L 19.00 17.00 L 20.00 18.00 L 19.00 19.00 Z M 9.00 18.00 L 10.00 17.00 L 11.00 19.00 L 10.00 20.00 Z M 65.00 17.00 L 66.00 16.00 L 67.00 17.00 L 66.00 18.00 Z M 47.00 17.00 L 48.00 16.00 L 49.00 17.00 L 48.00 18.00 Z M 19.00 17.00 L 20.00 16.00 L 21.00 17.00 L 20.00 18.00 Z M 20.00 16.00 L 21.00 15.00 L 23.00 16.00 L 22.00 17.00 Z M 10.00 16.00 L 11.00 15.00 L 12.00 17.00 L 11.00 18.00 Z M 11.00 15.00 L 12.00 14.00 L 13.00 15.00 L 12.00 16.00 Z M 53.00 12.00 L 59.00 18.00 L 63.00 27.00 L 63.00 37.00 L 62.00 38.00 L 61.00 37.00 L 61.00 29.00 L 60.00 30.00 L 57.00 25.00 L 55.00 24.00 L 53.00 25.00 L 52.00 24.00 L 54.00 21.00 L 52.00 19.00 L 49.00 18.00 L 50.00 15.00 L 52.00 14.00 L 51.00 13.00 Z M 49.00 12.00 L 50.00 11.00 L 52.00 12.00 L 51.00 13.00 Z M 14.00 11.00 L 15.00 13.00 L 13.00 15.00 L 12.00 13.00 Z M 37.00 11.00 L 38.00 10.00 L 40.00 11.00 L 39.00 12.00 Z M 29.00 10.00 L 30.00 11.00 L 27.00 13.00 L 28.00 13.00 L 29.00 15.00 L 27.00 17.00 L 24.00 17.00 L 22.00 14.00 L 25.00 11.00 Z M 14.00 11.00 L 15.00 10.00 L 16.00 11.00 L 15.00 12.00 Z M 29.00 10.00 L 30.00 9.00 L 32.00 10.00 L 31.00 11.00 Z M 15.00 10.00 L 16.00 9.00 L 17.00 10.00 L 16.00 11.00 Z M 40.00 9.00 L 41.00 8.00 L 45.00 8.00 L 48.00 9.00 L 50.00 11.00 L 49.00 12.00 L 47.00 11.00 L 41.00 11.00 Z M 34.00 9.00 L 35.00 8.00 L 37.00 9.00 L 36.00 10.00 Z M 16.00 9.00 L 17.00 8.00 L 18.00 9.00 L 17.00 10.00 Z M 57.00 8.00 L 58.00 7.00 L 59.00 8.00 L 58.00 9.00 Z M 17.00 8.00 L 18.00 7.00 L 19.00 8.00 L 18.00 9.00 Z M 56.00 7.00 L 57.00 6.00 L 58.00 7.00 L 57.00 8.00 Z M 19.00 7.00 L 20.00 6.00 L 21.00 7.00 L 20.00 8.00 Z M 20.00 6.00 L 21.00 5.00 L 22.00 6.00 L 21.00 7.00 Z M 51.00 4.00 L 53.00 3.00 L 57.00 6.00 L 55.00 7.00 Z M 23.00 4.00 L 24.00 3.00 L 25.00 4.00 L 24.00 5.00 Z M 53.00 3.00 L 54.00 2.00 L 55.00 3.00 L 54.00 4.00 Z M 48.00 3.00 L 49.00 2.00 L 52.00 3.00 L 51.00 4.00 Z M 25.00 3.00 L 26.00 2.00 L 28.00 3.00 L 27.00 4.00 Z M 46.00 2.00 L 47.00 1.00 L 49.00 2.00 L 48.00 3.00 Z" fill="rgb(131,155,2)" opacity="0.360" fill-rule="evenodd"/>
<path d="M 54.00 21.00 L 52.00 19.00 L 50.00 19.00 L 42.00 26.00 L 36.00 26.00 L 35.00 27.00 L 34.00 27.00 L 31.00 30.00 L 31.00 33.00 L 30.00 34.00 L 32.00 39.00 L 37.00 42.00 L 40.00 42.00 L 41.00 41.00 L 42.00 41.00 L 45.00 38.00 L 45.00 37.00 L 46.00 36.00 L 46.00 30.00 L 52.00 24.00 L 52.00 23.00 Z M 38.00 30.00 L 39.00 30.00 L 41.00 32.00 L 41.00 35.00 L 39.00 37.00 L 37.00 37.00 L 35.00 35.00 L 35.00 33.00 Z M 18.00 9.00 L 16.00 11.00 L 16.00 12.00 L 12.00 16.00 L 12.00 17.00 L 10.00 20.00 L 10.00 22.00 L 9.00 23.00 L 9.00 26.00 L 8.00 27.00 L 8.00 38.00 L 9.00 39.00 L 9.00 41.00 L 10.00 42.00 L 10.00 44.00 L 11.00 45.00 L 13.00 50.00 L 17.00 54.00 L 18.00 54.00 L 21.00 51.00 L 21.00 49.00 L 20.00 48.00 L 19.00 48.00 L 17.00 46.00 L 17.00 45.00 L 15.00 43.00 L 15.00 41.00 L 14.00 40.00 L 14.00 25.00 L 15.00 24.00 L 17.00 19.00 L 19.00 17.00 L 19.00 16.00 L 20.00 15.00 L 21.00 15.00 L 25.00 11.00 L 26.00 11.00 L 29.00 9.00 L 31.00 9.00 L 32.00 8.00 L 36.00 8.00 L 38.00 10.00 L 39.00 10.00 L 41.00 8.00 L 46.00 8.00 L 47.00 9.00 L 52.00 11.00 L 55.00 14.00 L 56.00 14.00 L 62.00 23.00 L 62.00 26.00 L 63.00 27.00 L 63.00 38.00 L 62.00 39.00 L 62.00 41.00 L 60.00 44.00 L 60.00 46.00 L 55.00 50.00 L 55.00 51.00 L 57.00 54.00 L 60.00 54.00 L 64.00 49.00 L 64.00 48.00 L 68.00 41.00 L 68.00 38.00 L 69.00 37.00 L 69.00 29.00 L 68.00 28.00 L 68.00 24.00 L 67.00 23.00 L 67.00 21.00 L 66.00 20.00 L 65.00 17.00 L 63.00 15.00 L 63.00 14.00 L 56.00 7.00 L 55.00 7.00 L 48.00 3.00 L 46.00 3.00 L 45.00 2.00 L 32.00 2.00 L 31.00 3.00 L 29.00 3.00 L 28.00 4.00 L 26.00 4.00 L 25.00 5.00 L 22.00 6.00 L 19.00 9.00 Z" fill="rgb(211,243,5)" opacity="0.550" fill-rule="evenodd"/>
<path d="M 52.00 19.00 L 50.00 19.00 L 44.00 25.00 L 43.00 25.00 L 41.00 27.00 L 40.00 26.00 L 36.00 26.00 L 35.00 27.00 L 34.00 27.00 L 32.00 29.00 L 32.00 30.00 L 31.00 31.00 L 31.00 37.00 L 33.00 40.00 L 39.00 42.00 L 40.00 41.00 L 42.00 41.00 L 44.00 39.00 L 44.00 38.00 L 46.00 35.00 L 46.00 32.00 L 45.00 31.00 L 53.00 22.00 L 53.00 20.00 Z M 38.00 30.00 L 39.00 30.00 L 41.00 32.00 L 41.00 36.00 L 40.00 37.00 L 37.00 37.00 L 35.00 35.00 L 35.00 33.00 Z M 21.00 7.00 L 13.00 15.00 L 13.00 16.00 L 11.00 18.00 L 11.00 20.00 L 9.00 23.00 L 9.00 27.00 L 8.00 28.00 L 8.00 37.00 L 9.00 38.00 L 9.00 41.00 L 10.00 42.00 L 10.00 44.00 L 11.00 45.00 L 12.00 48.00 L 14.00 50.00 L 14.00 51.00 L 17.00 54.00 L 18.00 54.00 L 21.00 51.00 L 21.00 49.00 L 20.00 48.00 L 18.00 48.00 L 17.00 47.00 L 17.00 46.00 L 15.00 43.00 L 15.00 41.00 L 14.00 40.00 L 14.00 36.00 L 13.00 35.00 L 13.00 33.00 L 14.00 32.00 L 13.00 29.00 L 14.00 28.00 L 14.00 25.00 L 15.00 24.00 L 15.00 22.00 L 16.00 21.00 L 16.00 20.00 L 18.00 18.00 L 18.00 17.00 L 20.00 15.00 L 21.00 15.00 L 22.00 14.00 L 22.00 13.00 L 23.00 12.00 L 24.00 12.00 L 26.00 10.00 L 28.00 10.00 L 31.00 8.00 L 36.00 8.00 L 37.00 9.00 L 39.00 9.00 L 41.00 7.00 L 42.00 8.00 L 46.00 8.00 L 47.00 9.00 L 52.00 11.00 L 54.00 13.00 L 55.00 13.00 L 58.00 16.00 L 58.00 17.00 L 60.00 19.00 L 60.00 20.00 L 62.00 23.00 L 62.00 25.00 L 63.00 26.00 L 63.00 38.00 L 62.00 39.00 L 62.00 41.00 L 60.00 44.00 L 60.00 46.00 L 58.00 48.00 L 57.00 48.00 L 55.00 51.00 L 58.00 54.00 L 60.00 54.00 L 61.00 53.00 L 61.00 52.00 L 64.00 49.00 L 64.00 48.00 L 67.00 43.00 L 67.00 41.00 L 68.00 40.00 L 68.00 37.00 L 69.00 36.00 L 69.00 30.00 L 68.00 29.00 L 68.00 25.00 L 67.00 24.00 L 67.00 22.00 L 66.00 21.00 L 66.00 19.00 L 65.00 18.00 L 65.00 17.00 L 63.00 15.00 L 63.00 14.00 L 57.00 8.00 L 56.00 8.00 L 54.00 6.00 L 53.00 6.00 L 50.00 4.00 L 48.00 4.00 L 47.00 3.00 L 45.00 3.00 L 44.00 2.00 L 33.00 2.00 L 32.00 3.00 L 29.00 3.00 L 28.00 4.00 L 26.00 4.00 L 25.00 5.00 L 24.00 5.00 L 22.00 7.00 Z" fill="rgb(212,243,6)" opacity="0.780" fill-rule="evenodd"/>
<path d="M 51.00 19.00 L 50.00 20.00 L 49.00 20.00 L 42.00 27.00 L 41.00 27.00 L 40.00 26.00 L 36.00 26.00 L 35.00 27.00 L 34.00 27.00 L 32.00 29.00 L 32.00 30.00 L 31.00 31.00 L 31.00 37.00 L 35.00 41.00 L 41.00 41.00 L 44.00 39.00 L 44.00 38.00 L 46.00 35.00 L 46.00 33.00 L 45.00 32.00 L 45.00 31.00 L 48.00 28.00 L 48.00 27.00 L 53.00 22.00 L 53.00 21.00 Z M 37.00 30.00 L 39.00 30.00 L 41.00 32.00 L 41.00 33.00 L 42.00 34.00 L 40.00 37.00 L 37.00 37.00 L 35.00 35.00 L 35.00 32.00 Z M 21.00 7.00 L 14.00 14.00 L 14.00 15.00 L 12.00 17.00 L 12.00 18.00 L 10.00 21.00 L 10.00 23.00 L 9.00 24.00 L 9.00 28.00 L 8.00 29.00 L 8.00 36.00 L 9.00 37.00 L 9.00 40.00 L 10.00 41.00 L 10.00 43.00 L 11.00 44.00 L 11.00 46.00 L 12.00 47.00 L 12.00 48.00 L 15.00 51.00 L 15.00 52.00 L 16.00 53.00 L 19.00 53.00 L 21.00 51.00 L 21.00 50.00 L 19.00 48.00 L 18.00 48.00 L 17.00 47.00 L 17.00 46.00 L 14.00 41.00 L 14.00 37.00 L 13.00 36.00 L 13.00 33.00 L 14.00 32.00 L 14.00 31.00 L 13.00 30.00 L 13.00 29.00 L 14.00 28.00 L 14.00 24.00 L 15.00 23.00 L 17.00 18.00 L 21.00 14.00 L 22.00 14.00 L 22.00 13.00 L 24.00 11.00 L 25.00 11.00 L 28.00 9.00 L 30.00 9.00 L 31.00 8.00 L 34.00 8.00 L 35.00 7.00 L 36.00 7.00 L 37.00 8.00 L 37.00 9.00 L 39.00 9.00 L 41.00 7.00 L 43.00 7.00 L 44.00 8.00 L 47.00 8.00 L 48.00 9.00 L 51.00 10.00 L 54.00 13.00 L 55.00 13.00 L 58.00 16.00 L 58.00 17.00 L 60.00 19.00 L 60.00 20.00 L 63.00 25.00 L 63.00 39.00 L 61.00 42.00 L 61.00 44.00 L 60.00 45.00 L 60.00 46.00 L 58.00 48.00 L 57.00 48.00 L 56.00 49.00 L 56.00 52.00 L 58.00 54.00 L 59.00 54.00 L 63.00 50.00 L 63.00 49.00 L 65.00 47.00 L 65.00 46.00 L 66.00 45.00 L 66.00 43.00 L 68.00 40.00 L 68.00 26.00 L 67.00 25.00 L 67.00 22.00 L 66.00 21.00 L 64.00 16.00 L 62.00 14.00 L 62.00 13.00 L 54.00 6.00 L 53.00 6.00 L 50.00 4.00 L 48.00 4.00 L 47.00 3.00 L 44.00 3.00 L 43.00 2.00 L 34.00 2.00 L 33.00 3.00 L 29.00 3.00 L 28.00 4.00 L 27.00 4.00 L 26.00 5.00 Z" fill="rgb(213,244,6)" opacity="1.000" fill-rule="evenodd"/>
</svg>