<svg xmlns="http://www.w3.org/2000/svg" viewBox="0 0 54 46" width="54" height="46" shape-rendering="geometricPrecision">
<title>body_clock_card smooth contour vector</title>
<path d="M 25.00 16.00 L 24.00 17.00 L 24.00 26.00 L 25.00 27.00 L 31.00 27.00 L 32.00 26.00 L 32.00 24.00 L 28.00 24.00 L 27.00 23.00 L 27.00 18.00 L 26.00 17.00 L 26.00 16.00 Z M 22.00 10.00 L 21.00 11.00 L 19.00 11.00 L 17.00 13.00 L 16.00 13.00 L 12.00 17.00 L 12.00 18.00 L 11.00 19.00 L 11.00 23.00 L 10.00 24.00 L 10.00 27.00 L 11.00 28.00 L 11.00 31.00 L 12.00 32.00 L 12.00 33.00 L 17.00 38.00 L 18.00 38.00 L 21.00 40.00 L 30.00 40.00 L 31.00 39.00 L 34.00 38.00 L 36.00 36.00 L 37.00 36.00 L 38.00 35.00 L 38.00 34.00 L 40.00 32.00 L 40.00 30.00 L 41.00 29.00 L 41.00 21.00 L 40.00 20.00 L 39.00 17.00 L 37.00 15.00 L 37.00 14.00 L 36.00 14.00 L 34.00 12.00 L 33.00 12.00 L 30.00 10.00 Z M 22.00 13.00 L 30.00 13.00 L 31.00 14.00 L 32.00 14.00 L 37.00 19.00 L 37.00 20.00 L 38.00 21.00 L 38.00 29.00 L 37.00 30.00 L 36.00 33.00 L 31.00 37.00 L 28.00 37.00 L 27.00 38.00 L 25.00 38.00 L 24.00 37.00 L 21.00 37.00 L 20.00 36.00 L 19.00 36.00 L 14.00 31.00 L 14.00 30.00 L 13.00 29.00 L 13.00 22.00 L 14.00 21.00 L 15.00 18.00 L 18.00 15.00 L 19.00 15.00 Z" fill="rgb(178,218,10)" opacity="1.000" fill-rule="evenodd"/>
</svg>
