<svg xmlns="http://www.w3.org/2000/svg" viewBox="0 0 36 30" width="36" height="30" shape-rendering="geometricPrecision">
<title>action_arrow_right_legend smooth contour vector</title>
<path d="M 18.00 4.00 L 16.00 5.00 L 15.00 7.00 L 16.00 8.00 L 15.00 10.00 L 16.00 9.00 L 19.00 11.00 L 18.00 13.00 L 17.00 12.00 L 16.00 13.00 L 5.00 13.00 L 4.00 16.00 L 7.00 18.00 L 18.00 18.00 L 19.00 19.00 L 17.00 20.00 L 15.00 23.00 L 17.00 26.00 L 20.00 25.00 L 29.00 16.00 L 30.00 13.00 L 25.00 7.00 L 22.00 5.00 L 21.00 6.00 Z M 28.00 13.00 L 29.00 12.00 L 30.00 13.00 L 29.00 14.00 Z M 27.00 12.00 L 28.00 11.00 L 29.00 12.00 L 28.00 13.00 Z M 26.00 11.00 L 27.00 10.00 L 28.00 11.00 L 27.00 12.00 Z M 25.00 10.00 L 26.00 9.00 L 27.00 10.00 L 26.00 11.00 Z M 24.00 9.00 L 25.00 8.00 L 26.00 9.00 L 25.00 10.00 Z M 23.00 8.00 L 24.00 7.00 L 25.00 8.00 L 24.00 9.00 Z M 22.00 7.00 L 23.00 6.00 L 24.00 7.00 L 23.00 8.00 Z M 21.00 6.00 L 22.00 5.00 L 23.00 6.00 L 22.00 7.00 Z" fill="rgb(247,156,15)" opacity="0.230" fill-rule="evenodd"/>
<path d="M 18.00 4.00 L 16.00 5.00 L 15.00 7.00 L 16.00 9.00 L 20.00 12.00 L 19.00 13.00 L 5.00 13.00 L 4.00 16.00 L 7.00 18.00 L 18.00 18.00 L 19.00 19.00 L 17.00 20.00 L 15.00 23.00 L 17.00 26.00 L 20.00 25.00 L 29.00 16.00 L 29.00 14.00 Z" fill="rgb(248,156,16)" opacity="0.360" fill-rule="evenodd"/>
<path d="M 19.00 5.00 L 17.00 5.00 L 16.00 6.00 L 16.00 8.00 L 20.00 12.00 L 19.00 13.00 L 6.00 13.00 L 4.00 15.00 L 5.00 16.00 L 5.00 17.00 L 6.00 17.00 L 7.00 18.00 L 17.00 18.00 L 18.00 17.00 L 19.00 18.00 L 19.00 19.00 L 16.00 22.00 L 16.00 25.00 L 17.00 25.00 L 18.00 26.00 L 19.00 25.00 L 20.00 25.00 L 28.00 17.00 L 28.00 16.00 L 29.00 15.00 L 28.00 14.00 L 28.00 13.00 L 22.00 7.00 L 21.00 7.00 Z" fill="rgb(249,157,17)" opacity="0.550" fill-rule="evenodd"/>
<path d="M 17.00 5.00 L 16.00 6.00 L 16.00 8.00 L 20.00 12.00 L 19.00 13.00 L 6.00 13.00 L 5.00 14.00 L 5.00 16.00 L 6.00 17.00 L 19.00 17.00 L 20.00 18.00 L 16.00 22.00 L 16.00 25.00 L 19.00 25.00 L 20.00 24.00 L 21.00 24.00 L 28.00 17.00 L 28.00 14.00 L 19.00 5.00 Z" fill="rgb(249,159,17)" opacity="0.780" fill-rule="evenodd"/>
<path d="M 17.00 5.00 L 16.00 6.00 L 16.00 8.00 L 20.00 12.00 L 19.00 13.00 L 6.00 13.00 L 5.00 14.00 L 5.00 16.00 L 6.00 17.00 L 19.00 17.00 L 20.00 18.00 L 16.00 22.00 L 16.00 24.00 L 17.00 25.00 L 19.00 25.00 L 28.00 16.00 L 28.00 14.00 L 19.00 5.00 Z" fill="rgb(249,159,17)" opacity="1.000" fill-rule="evenodd"/>
</svg>