<svg xmlns="http://www.w3.org/2000/svg" viewBox="0 0 33 30" width="33" height="30" shape-rendering="geometricPrecision">
<title>action_arrow_left_legend smooth contour vector</title>
<path d="M 14.00 4.00 L 4.00 14.00 L 4.00 16.00 L 6.00 19.00 L 15.00 26.00 L 17.00 24.00 L 14.00 19.00 L 15.00 18.00 L 25.00 18.00 L 28.00 16.00 L 28.00 14.00 L 27.00 13.00 L 16.00 13.00 L 14.00 11.00 L 17.00 8.00 L 17.00 6.00 Z M 13.00 12.00 L 14.00 11.00 L 15.00 12.00 L 14.00 13.00 Z" fill="rgb(247,159,17)" opacity="0.230" fill-rule="evenodd"/>
<path d="M 15.00 4.00 L 4.00 14.00 L 4.00 16.00 L 14.00 26.00 L 17.00 24.00 L 15.00 20.00 L 13.00 19.00 L 14.00 18.00 L 25.00 18.00 L 28.00 16.00 L 27.00 13.00 L 14.00 13.00 L 13.00 12.00 L 17.00 8.00 L 17.00 6.00 Z" fill="rgb(247,159,17)" opacity="0.360" fill-rule="evenodd"/>
<path d="M 13.00 5.00 L 5.00 13.00 L 4.00 16.00 L 13.00 25.00 L 14.00 25.00 L 15.00 26.00 L 17.00 24.00 L 17.00 23.00 L 13.00 19.00 L 13.00 18.00 L 14.00 17.00 L 15.00 18.00 L 16.00 17.00 L 27.00 17.00 L 28.00 16.00 L 28.00 15.00 L 27.00 14.00 L 27.00 13.00 L 14.00 13.00 L 13.00 12.00 L 16.00 9.00 L 17.00 6.00 L 16.00 5.00 Z" fill="rgb(248,161,18)" opacity="0.550" fill-rule="evenodd"/>
<path d="M 14.00 5.00 L 13.00 6.00 L 12.00 6.00 L 5.00 13.00 L 5.00 14.00 L 4.00 15.00 L 5.00 16.00 L 5.00 17.00 L 13.00 25.00 L 16.00 25.00 L 16.00 24.00 L 17.00 23.00 L 13.00 19.00 L 13.00 18.00 L 14.00 17.00 L 27.00 17.00 L 27.00 16.00 L 28.00 15.00 L 26.00 13.00 L 14.00 13.00 L 13.00 12.00 L 16.00 9.00 L 16.00 8.00 L 17.00 7.00 L 16.00 6.00 L 16.00 5.00 Z" fill="rgb(248,161,18)" opacity="0.780" fill-rule="evenodd"/>
<path d="M 14.00 5.00 L 5.00 14.00 L 5.00 17.00 L 13.00 25.00 L 16.00 25.00 L 16.00 22.00 L 13.00 19.00 L 13.00 18.00 L 14.00 17.00 L 26.00 17.00 L 27.00 16.00 L 27.00 14.00 L 26.00 13.00 L 14.00 13.00 L 13.00 12.00 L 13.00 11.00 L 17.00 7.00 L 16.00 6.00 L 16.00 5.00 Z" fill="rgb(249,162,19)" opacity="1.000" fill-rule="evenodd"/>
</svg>