<svg xmlns="http://www.w3.org/2000/svg" viewBox="0 0 40 32" width="40" height="32" shape-rendering="geometricPrecision">
<title>legend_load_mid_arc smooth contour vector</title>
<path d="M 34.00 7.00 L 32.00 5.00 L 29.00 5.00 L 28.00 4.00 L 19.00 5.00 L 12.00 9.00 L 6.00 16.00 L 4.00 21.00 L 5.00 26.00 L 7.00 27.00 L 12.00 26.00 L 14.00 19.00 L 20.00 14.00 L 23.00 13.00 L 29.00 13.00 L 31.00 14.00 L 33.00 13.00 L 35.00 10.00 Z" fill="rgb(200,230,22)" opacity="0.230" fill-rule="evenodd"/>
<path d="M 34.00 7.00 L 32.00 5.00 L 29.00 5.00 L 28.00 4.00 L 24.00 4.00 L 15.00 7.00 L 12.00 9.00 L 6.00 16.00 L 4.00 22.00 L 5.00 26.00 L 7.00 27.00 L 12.00 26.00 L 14.00 19.00 L 18.00 15.00 L 22.00 13.00 L 29.00 13.00 L 30.00 14.00 L 33.00 13.00 L 35.00 10.00 Z" fill="rgb(200,230,22)" opacity="0.360" fill-rule="evenodd"/>
<path d="M 34.00 7.00 L 31.00 5.00 L 20.00 5.00 L 19.00 6.00 L 18.00 6.00 L 17.00 7.00 L 12.00 9.00 L 9.00 12.00 L 9.00 13.00 L 7.00 15.00 L 7.00 16.00 L 5.00 19.00 L 5.00 21.00 L 4.00 22.00 L 4.00 24.00 L 7.00 27.00 L 9.00 27.00 L 10.00 26.00 L 11.00 26.00 L 13.00 23.00 L 13.00 21.00 L 14.00 20.00 L 14.00 19.00 L 18.00 15.00 L 19.00 15.00 L 22.00 13.00 L 32.00 13.00 L 34.00 11.00 Z" fill="rgb(200,230,23)" opacity="0.550" fill-rule="evenodd"/>
<path d="M 33.00 6.00 L 32.00 6.00 L 31.00 5.00 L 21.00 5.00 L 20.00 6.00 L 18.00 6.00 L 17.00 7.00 L 14.00 8.00 L 11.00 11.00 L 10.00 11.00 L 10.00 12.00 L 7.00 15.00 L 7.00 16.00 L 5.00 19.00 L 5.00 22.00 L 4.00 23.00 L 5.00 24.00 L 5.00 25.00 L 8.00 27.00 L 11.00 26.00 L 12.00 25.00 L 12.00 23.00 L 13.00 22.00 L 13.00 20.00 L 19.00 14.00 L 20.00 14.00 L 21.00 13.00 L 32.00 13.00 L 34.00 11.00 L 34.00 8.00 L 33.00 7.00 Z" fill="rgb(200,231,23)" opacity="0.780" fill-rule="evenodd"/>
<path d="M 34.00 8.00 L 31.00 5.00 L 22.00 5.00 L 21.00 6.00 L 18.00 6.00 L 17.00 7.00 L 16.00 7.00 L 14.00 9.00 L 13.00 9.00 L 8.00 14.00 L 8.00 15.00 L 6.00 17.00 L 6.00 18.00 L 5.00 19.00 L 5.00 25.00 L 6.00 26.00 L 11.00 26.00 L 12.00 25.00 L 12.00 22.00 L 16.00 16.00 L 17.00 16.00 L 19.00 14.00 L 20.00 14.00 L 21.00 13.00 L 24.00 13.00 L 25.00 12.00 L 27.00 12.00 L 28.00 13.00 L 32.00 13.00 L 34.00 11.00 Z" fill="rgb(200,231,23)" opacity="1.000" fill-rule="evenodd"/>
</svg>