<svg xmlns="http://www.w3.org/2000/svg" viewBox="0 0 58 45" width="58" height="45" shape-rendering="geometricPrecision">
<title>badminton_chain_card smooth contour vector</title>
<path d="M 0.00 0.00 L 0.00 44.00 L 57.00 44.00 L 57.00 0.00 Z M 10.00 34.00 L 13.00 33.00 L 14.00 34.00 L 19.00 34.00 L 20.00 35.00 L 19.00 36.00 L 13.00 36.00 Z M 9.00 33.00 L 10.00 32.00 L 11.00 33.00 L 10.00 34.00 Z M 7.00 31.00 L 8.00 30.00 L 10.00 32.00 L 8.00 33.00 Z M 33.00 29.00 L 34.00 31.00 L 31.00 33.00 L 30.00 32.00 Z M 6.00 30.00 L 7.00 29.00 L 8.00 30.00 L 7.00 31.00 Z M 35.00 29.00 L 36.00 28.00 L 37.00 30.00 L 36.00 31.00 Z M 5.00 28.00 L 6.00 27.00 L 7.00 29.00 L 6.00 30.00 Z M 23.00 27.00 L 24.00 26.00 L 27.00 26.00 L 28.00 27.00 L 27.00 28.00 L 24.00 28.00 Z M 35.00 24.00 L 36.00 25.00 L 36.00 28.00 L 34.00 30.00 L 33.00 28.00 Z M 33.00 24.00 L 34.00 23.00 L 35.00 24.00 L 34.00 25.00 Z M 32.00 23.00 L 33.00 22.00 L 34.00 23.00 L 33.00 24.00 Z M 12.00 22.00 L 13.00 21.00 L 14.00 22.00 L 13.00 23.00 Z M 48.00 21.00 L 49.00 20.00 L 50.00 21.00 L 49.00 22.00 Z M 21.00 21.00 L 22.00 20.00 L 23.00 21.00 L 22.00 22.00 Z M 15.00 21.00 L 16.00 20.00 L 18.00 21.00 L 17.00 22.00 Z M 47.00 19.00 L 48.00 21.00 L 46.00 23.00 L 45.00 21.00 Z M 28.00 20.00 L 25.00 24.00 L 22.00 22.00 L 25.00 21.00 L 27.00 19.00 Z M 20.00 20.00 L 21.00 19.00 L 22.00 20.00 L 21.00 21.00 Z M 5.00 20.00 L 6.00 19.00 L 7.00 21.00 L 6.00 22.00 Z M 37.00 19.00 L 38.00 18.00 L 40.00 19.00 L 39.00 20.00 Z M 6.00 19.00 L 7.00 18.00 L 8.00 19.00 L 7.00 20.00 Z M 39.00 18.00 L 40.00 17.00 L 41.00 18.00 L 40.00 19.00 Z M 40.00 17.00 L 41.00 16.00 L 42.00 17.00 L 41.00 18.00 Z M 7.00 18.00 L 8.00 16.00 L 10.00 17.00 L 8.00 19.00 Z M 48.00 15.00 L 49.00 16.00 L 49.00 19.00 L 48.00 20.00 L 47.00 19.00 L 47.00 16.00 Z M 19.00 15.00 L 21.00 19.00 L 18.00 21.00 L 17.00 19.00 Z M 9.00 16.00 L 10.00 15.00 L 11.00 16.00 L 10.00 17.00 Z M 10.00 15.00 L 11.00 14.00 L 13.00 15.00 L 12.00 16.00 Z M 47.00 13.00 L 48.00 12.00 L 49.00 14.00 L 48.00 15.00 Z M 27.00 13.00 L 28.00 12.00 L 29.00 13.00 L 28.00 14.00 Z M 46.00 11.00 L 47.00 10.00 L 48.00 11.00 L 47.00 12.00 Z M 20.00 10.00 L 21.00 9.00 L 22.00 10.00 L 21.00 11.00 Z M 21.00 9.00 L 22.00 8.00 L 23.00 9.00 L 22.00 10.00 Z M 22.00 8.00 L 23.00 7.00 L 24.00 8.00 L 23.00 9.00 Z M 42.00 7.00 L 43.00 6.00 L 44.00 7.00 L 43.00 8.00 Z M 30.00 6.00 L 31.00 5.00 L 41.00 5.00 L 42.00 6.00 L 41.00 7.00 L 31.00 7.00 Z" fill="rgb(31,32,1)" opacity="0.230" fill-rule="evenodd"/>
<path d="M 0.00 0.00 L 0.00 44.00 L 25.00 44.00 L 26.00 43.00 L 35.00 43.00 L 36.00 44.00 L 57.00 44.00 L 56.00 43.00 L 56.00 39.00 L 55.00 40.00 L 52.00 39.00 L 53.00 37.00 L 51.00 34.00 L 52.00 33.00 L 51.00 36.00 L 47.00 36.00 L 46.00 34.00 L 47.00 33.00 L 48.00 34.00 L 50.00 31.00 L 53.00 31.00 L 54.00 32.00 L 54.00 35.00 L 55.00 34.00 L 56.00 35.00 L 55.00 33.00 L 57.00 30.00 L 56.00 28.00 L 57.00 27.00 L 57.00 10.00 L 54.00 7.00 L 54.00 5.00 L 56.00 3.00 L 57.00 0.00 Z M 10.00 34.00 L 11.00 33.00 L 15.00 33.00 L 16.00 34.00 L 23.00 34.00 L 24.00 35.00 L 23.00 36.00 L 13.00 36.00 Z M 47.00 33.00 L 48.00 32.00 L 49.00 33.00 L 48.00 34.00 Z M 29.00 33.00 L 30.00 32.00 L 31.00 33.00 L 30.00 34.00 Z M 6.00 33.00 L 7.00 32.00 L 8.00 33.00 L 7.00 34.00 Z M 3.00 30.00 L 5.00 29.00 L 6.00 32.00 L 5.00 33.00 Z M 22.00 27.00 L 23.00 26.00 L 27.00 26.00 L 28.00 27.00 L 27.00 28.00 L 23.00 28.00 Z M 6.00 26.00 L 8.00 30.00 L 11.00 33.00 L 10.00 34.00 L 6.00 31.00 L 5.00 29.00 Z M 36.00 26.00 L 37.00 25.00 L 40.00 26.00 L 39.00 27.00 Z M 30.00 32.00 L 33.00 29.00 L 35.00 24.00 L 36.00 27.00 L 40.00 30.00 L 39.00 32.00 L 34.00 33.00 L 33.00 32.00 L 34.00 31.00 L 32.00 33.00 Z M 33.00 24.00 L 34.00 23.00 L 35.00 24.00 L 34.00 25.00 Z M 44.00 23.00 L 45.00 22.00 L 46.00 23.00 L 45.00 24.00 Z M 32.00 23.00 L 33.00 22.00 L 34.00 23.00 L 33.00 24.00 Z M 12.00 22.00 L 13.00 21.00 L 14.00 22.00 L 13.00 23.00 Z M 45.00 22.00 L 47.00 19.00 L 48.00 20.00 L 51.00 19.00 L 55.00 21.00 L 51.00 24.00 L 49.00 23.00 L 47.00 24.00 Z M 5.00 20.00 L 6.00 19.00 L 7.00 21.00 L 6.00 22.00 Z M 37.00 19.00 L 38.00 18.00 L 40.00 19.00 L 39.00 20.00 Z M 39.00 18.00 L 40.00 17.00 L 41.00 18.00 L 40.00 19.00 Z M 40.00 17.00 L 41.00 16.00 L 42.00 17.00 L 41.00 18.00 Z M 14.00 21.00 L 17.00 20.00 L 19.00 15.00 L 23.00 21.00 L 26.00 19.00 L 29.00 20.00 L 24.00 25.00 L 23.00 23.00 L 21.00 22.00 L 20.00 23.00 L 19.00 22.00 L 16.00 23.00 Z M 10.00 15.00 L 11.00 14.00 L 13.00 15.00 L 12.00 16.00 Z M 8.00 14.00 L 11.00 16.00 L 7.00 20.00 L 6.00 18.00 L 4.00 17.00 Z M 40.00 14.00 L 41.00 13.00 L 42.00 14.00 L 41.00 15.00 Z M 48.00 12.00 L 49.00 13.00 L 49.00 19.00 L 48.00 20.00 L 47.00 19.00 L 47.00 13.00 Z M 27.00 13.00 L 28.00 12.00 L 30.00 13.00 L 29.00 14.00 Z M 46.00 11.00 L 47.00 10.00 L 48.00 11.00 L 47.00 12.00 Z M 20.00 10.00 L 21.00 9.00 L 22.00 10.00 L 21.00 11.00 Z M 21.00 9.00 L 22.00 8.00 L 23.00 9.00 L 22.00 10.00 Z M 22.00 8.00 L 23.00 7.00 L 24.00 8.00 L 23.00 9.00 Z M 42.00 7.00 L 43.00 6.00 L 44.00 7.00 L 43.00 8.00 Z M 26.00 6.00 L 27.00 5.00 L 41.00 5.00 L 42.00 6.00 L 41.00 7.00 L 27.00 7.00 Z" fill="rgb(33,34,1)" opacity="0.360" fill-rule="evenodd"/>
<path d="M 4.00 22.00 L 3.00 23.00 L 4.00 24.00 L 4.00 25.00 Z M 8.00 19.00 L 8.00 20.00 L 6.00 23.00 L 6.00 26.00 L 7.00 27.00 L 8.00 30.00 L 10.00 32.00 L 11.00 32.00 L 12.00 33.00 L 29.00 33.00 L 33.00 29.00 L 33.00 28.00 L 34.00 27.00 L 33.00 24.00 L 30.00 21.00 L 28.00 21.00 L 26.00 23.00 L 26.00 25.00 L 28.00 27.00 L 27.00 28.00 L 13.00 28.00 L 12.00 27.00 L 12.00 26.00 L 13.00 25.00 L 14.00 26.00 L 21.00 26.00 L 16.00 26.00 L 14.00 24.00 L 14.00 23.00 L 13.00 24.00 L 12.00 23.00 L 12.00 22.00 L 14.00 20.00 L 17.00 20.00 L 17.00 15.00 L 18.00 14.00 L 18.00 13.00 L 14.00 13.00 L 17.00 13.00 L 18.00 14.00 L 17.00 15.00 L 14.00 15.00 L 13.00 16.00 L 10.00 17.00 Z M 11.00 24.00 L 12.00 23.00 L 13.00 24.00 L 13.00 25.00 L 12.00 26.00 L 11.00 25.00 Z M 26.00 4.00 L 24.00 6.00 L 25.00 7.00 L 21.00 11.00 L 21.00 13.00 L 20.00 14.00 L 21.00 15.00 L 21.00 18.00 L 22.00 19.00 L 22.00 20.00 L 23.00 21.00 L 24.00 21.00 L 26.00 19.00 L 27.00 19.00 L 28.00 18.00 L 29.00 19.00 L 31.00 19.00 L 34.00 22.00 L 34.00 21.00 L 35.00 20.00 L 36.00 21.00 L 36.00 24.00 L 37.00 25.00 L 40.00 25.00 L 41.00 24.00 L 42.00 24.00 L 46.00 20.00 L 46.00 19.00 L 47.00 18.00 L 47.00 12.00 L 45.00 10.00 L 45.00 9.00 L 44.00 9.00 L 42.00 7.00 L 25.00 7.00 L 24.00 6.00 L 25.00 5.00 L 32.00 5.00 L 29.00 5.00 L 28.00 4.00 Z M 41.00 13.00 L 43.00 15.00 L 43.00 16.00 L 39.00 20.00 L 37.00 20.00 L 36.00 19.00 L 37.00 18.00 L 38.00 18.00 L 37.00 18.00 L 36.00 17.00 L 38.00 15.00 L 40.00 15.00 L 40.00 14.00 Z M 26.00 15.00 L 26.00 13.00 L 27.00 12.00 L 40.00 12.00 L 41.00 13.00 L 40.00 14.00 L 34.00 14.00 L 33.00 15.00 L 32.00 14.00 L 31.00 15.00 L 29.00 15.00 L 28.00 16.00 L 27.00 16.00 Z" fill="rgb(241,154,8)" opacity="0.550" fill-rule="evenodd"/>
<path d="M 8.00 19.00 L 8.00 20.00 L 7.00 21.00 L 7.00 28.00 L 9.00 30.00 L 9.00 31.00 L 10.00 31.00 L 12.00 33.00 L 29.00 33.00 L 33.00 29.00 L 33.00 27.00 L 34.00 26.00 L 33.00 25.00 L 33.00 24.00 L 30.00 21.00 L 28.00 21.00 L 26.00 23.00 L 26.00 25.00 L 27.00 25.00 L 28.00 26.00 L 28.00 27.00 L 27.00 28.00 L 13.00 28.00 L 11.00 25.00 L 11.00 23.00 L 14.00 20.00 L 16.00 20.00 L 17.00 19.00 L 17.00 16.00 L 16.00 15.00 L 15.00 15.00 L 14.00 16.00 L 12.00 16.00 L 11.00 17.00 L 10.00 17.00 Z M 21.00 12.00 L 21.00 18.00 L 24.00 21.00 L 27.00 18.00 L 28.00 18.00 L 28.00 16.00 L 27.00 16.00 L 26.00 15.00 L 26.00 13.00 L 27.00 12.00 L 41.00 12.00 L 42.00 13.00 L 43.00 16.00 L 41.00 19.00 L 40.00 19.00 L 39.00 20.00 L 37.00 20.00 L 36.00 21.00 L 36.00 23.00 L 38.00 25.00 L 39.00 25.00 L 40.00 24.00 L 42.00 24.00 L 46.00 20.00 L 46.00 19.00 L 47.00 18.00 L 47.00 13.00 L 46.00 12.00 L 46.00 11.00 L 43.00 8.00 L 42.00 8.00 L 41.00 7.00 L 26.00 7.00 L 25.00 8.00 L 24.00 8.00 L 22.00 10.00 L 22.00 11.00 Z" fill="rgb(243,157,9)" opacity="0.780" fill-rule="evenodd"/>
<path d="M 7.00 21.00 L 7.00 28.00 L 12.00 33.00 L 28.00 33.00 L 29.00 32.00 L 30.00 32.00 L 32.00 30.00 L 32.00 29.00 L 33.00 28.00 L 33.00 25.00 L 32.00 24.00 L 32.00 23.00 L 29.00 21.00 L 28.00 22.00 L 27.00 22.00 L 27.00 23.00 L 26.00 24.00 L 26.00 25.00 L 27.00 25.00 L 28.00 26.00 L 28.00 27.00 L 27.00 28.00 L 13.00 28.00 L 11.00 26.00 L 11.00 23.00 L 14.00 20.00 L 16.00 20.00 L 17.00 19.00 L 17.00 16.00 L 12.00 16.00 Z M 21.00 12.00 L 21.00 18.00 L 23.00 20.00 L 25.00 20.00 L 28.00 17.00 L 25.00 14.00 L 27.00 12.00 L 41.00 12.00 L 43.00 14.00 L 43.00 17.00 L 40.00 20.00 L 38.00 20.00 L 37.00 21.00 L 37.00 24.00 L 41.00 24.00 L 42.00 23.00 L 43.00 23.00 L 46.00 20.00 L 46.00 19.00 L 47.00 18.00 L 47.00 13.00 L 46.00 12.00 L 46.00 11.00 L 43.00 8.00 L 42.00 8.00 L 41.00 7.00 L 26.00 7.00 Z" fill="rgb(244,157,9)" opacity="1.000" fill-rule="evenodd"/>
</svg>