<svg xmlns="http://www.w3.org/2000/svg" viewBox="0 0 58 49" width="58" height="49" shape-rendering="geometricPrecision">
<title>body_heart_main smooth contour vector</title>
<path d="M 6.00 15.00 L 2.00 19.00 L 2.00 22.00 L 1.00 23.00 L 1.00 25.00 L 2.00 26.00 L 2.00 29.00 L 9.00 36.00 L 10.00 36.00 L 18.00 43.00 L 20.00 43.00 L 26.00 37.00 L 27.00 37.00 L 30.00 34.00 L 31.00 34.00 L 36.00 29.00 L 36.00 27.00 L 37.00 26.00 L 37.00 23.00 L 36.00 22.00 L 36.00 20.00 L 35.00 19.00 L 35.00 18.00 L 32.00 15.00 L 30.00 15.00 L 29.00 14.00 L 26.00 14.00 L 25.00 15.00 L 23.00 15.00 L 19.00 19.00 L 15.00 15.00 L 13.00 15.00 L 12.00 14.00 L 9.00 14.00 L 8.00 15.00 Z" fill="rgb(193,231,14)" opacity="1.000" fill-rule="evenodd"/>
</svg>
