<svg xmlns="http://www.w3.org/2000/svg" viewBox="0 0 58 49" width="58" height="49" shape-rendering="geometricPrecision">
<title>body_heart_main smooth contour vector</title>
<path d="M 40.00 7.00 L 38.00 9.00 L 35.00 9.00 L 34.00 10.00 L 32.00 8.00 L 26.00 7.00 L 25.00 6.00 L 26.00 5.00 L 21.00 5.00 L 20.00 6.00 L 20.00 8.00 L 22.00 9.00 L 21.00 10.00 L 22.00 12.00 L 21.00 14.00 L 18.00 13.00 L 16.00 15.00 L 14.00 14.00 L 7.00 14.00 L 3.00 17.00 L 1.00 21.00 L 1.00 27.00 L 2.00 30.00 L 18.00 44.00 L 22.00 42.00 L 25.00 39.00 L 26.00 40.00 L 25.00 39.00 L 28.00 36.00 L 30.00 37.00 L 29.00 38.00 L 30.00 37.00 L 29.00 36.00 L 33.00 33.00 L 37.00 28.00 L 39.00 29.00 L 40.00 25.00 L 38.00 29.00 L 37.00 28.00 L 37.00 21.00 L 33.00 15.00 L 31.00 14.00 L 24.00 14.00 L 22.00 15.00 L 21.00 14.00 L 23.00 12.00 L 27.00 12.00 L 28.00 11.00 L 33.00 13.00 L 39.00 13.00 L 42.00 11.00 L 40.00 10.00 L 39.00 8.00 Z M 18.00 17.00 L 19.00 16.00 L 20.00 17.00 L 19.00 18.00 Z M 17.00 16.00 L 18.00 15.00 L 19.00 16.00 L 18.00 17.00 Z M 20.00 15.00 L 21.00 14.00 L 22.00 15.00 L 21.00 16.00 Z M 16.00 15.00 L 17.00 14.00 L 18.00 15.00 L 17.00 16.00 Z M 34.00 0.00 L 42.00 1.00 L 43.00 3.00 L 45.00 4.00 L 42.00 8.00 L 45.00 5.00 L 46.00 6.00 L 48.00 5.00 L 50.00 6.00 L 52.00 5.00 L 57.00 6.00 L 57.00 0.00 Z" fill="rgb(192,229,13)" opacity="0.230" fill-rule="evenodd"/>
<path d="M 1.00 22.00 L 2.00 30.00 L 18.00 44.00 L 22.00 42.00 L 28.00 36.00 L 33.00 33.00 L 37.00 27.00 L 37.00 21.00 L 34.00 16.00 L 31.00 14.00 L 24.00 14.00 L 21.00 16.00 L 20.00 14.00 L 17.00 14.00 L 16.00 15.00 L 14.00 14.00 L 7.00 14.00 L 3.00 17.00 Z M 18.00 17.00 L 19.00 16.00 L 20.00 17.00 L 19.00 18.00 Z M 19.00 16.00 L 20.00 15.00 L 21.00 16.00 L 20.00 17.00 Z M 17.00 16.00 L 18.00 15.00 L 19.00 16.00 L 18.00 17.00 Z M 16.00 15.00 L 17.00 14.00 L 18.00 15.00 L 17.00 16.00 Z M 23.00 9.00 L 24.00 11.00 L 29.00 11.00 L 33.00 13.00 L 34.00 11.00 L 30.00 10.00 L 27.00 8.00 L 24.00 8.00 Z M 45.00 0.00 L 46.00 0.00 L 49.00 4.00 L 52.00 3.00 L 55.00 5.00 L 56.00 4.00 L 57.00 5.00 L 57.00 0.00 Z" fill="rgb(192,230,13)" opacity="0.360" fill-rule="evenodd"/>
<path d="M 30.00 14.00 L 24.00 14.00 L 23.00 15.00 L 22.00 15.00 L 19.00 18.00 L 17.00 16.00 L 16.00 16.00 L 13.00 14.00 L 8.00 14.00 L 7.00 15.00 L 6.00 15.00 L 2.00 19.00 L 2.00 21.00 L 1.00 22.00 L 1.00 27.00 L 2.00 28.00 L 3.00 31.00 L 5.00 33.00 L 6.00 33.00 L 10.00 37.00 L 11.00 37.00 L 16.00 42.00 L 17.00 42.00 L 19.00 44.00 L 24.00 39.00 L 25.00 39.00 L 28.00 36.00 L 29.00 36.00 L 36.00 29.00 L 36.00 28.00 L 37.00 27.00 L 37.00 21.00 L 36.00 20.00 L 36.00 19.00 L 32.00 15.00 L 31.00 15.00 Z" fill="rgb(193,231,14)" opacity="0.550" fill-rule="evenodd"/>
<path d="M 1.00 23.00 L 1.00 26.00 L 2.00 27.00 L 2.00 29.00 L 10.00 37.00 L 11.00 37.00 L 15.00 41.00 L 16.00 41.00 L 18.00 43.00 L 20.00 43.00 L 25.00 38.00 L 26.00 38.00 L 29.00 35.00 L 30.00 35.00 L 36.00 29.00 L 36.00 27.00 L 37.00 26.00 L 37.00 22.00 L 36.00 21.00 L 36.00 19.00 L 32.00 15.00 L 30.00 15.00 L 29.00 14.00 L 25.00 14.00 L 24.00 15.00 L 21.00 16.00 L 19.00 18.00 L 18.00 18.00 L 15.00 15.00 L 14.00 15.00 L 13.00 14.00 L 8.00 14.00 L 7.00 15.00 L 6.00 15.00 L 2.00 19.00 L 2.00 22.00 Z" fill="rgb(193,231,14)" opacity="0.780" fill-rule="evenodd"/>
<path d="M 6.00 15.00 L 2.00 19.00 L 2.00 22.00 L 1.00 23.00 L 1.00 25.00 L 2.00 26.00 L 2.00 29.00 L 9.00 36.00 L 10.00 36.00 L 18.00 43.00 L 20.00 43.00 L 26.00 37.00 L 27.00 37.00 L 30.00 34.00 L 31.00 34.00 L 36.00 29.00 L 36.00 27.00 L 37.00 26.00 L 37.00 23.00 L 36.00 22.00 L 36.00 20.00 L 35.00 19.00 L 35.00 18.00 L 32.00 15.00 L 30.00 15.00 L 29.00 14.00 L 26.00 14.00 L 25.00 15.00 L 23.00 15.00 L 19.00 19.00 L 15.00 15.00 L 13.00 15.00 L 12.00 14.00 L 9.00 14.00 L 8.00 15.00 Z" fill="rgb(193,231,14)" opacity="1.000" fill-rule="evenodd"/>
</svg>