<svg xmlns="http://www.w3.org/2000/svg" viewBox="0 0 44 32" width="44" height="32" shape-rendering="geometricPrecision">
<title>badminton_chain_legend smooth contour vector</title>
<path d="M 4.00 17.00 L 4.00 21.00 L 8.00 26.00 L 21.00 27.00 L 27.00 22.00 L 27.00 19.00 L 24.00 16.00 L 21.00 18.00 L 22.00 21.00 L 21.00 22.00 L 10.00 22.00 L 9.00 21.00 L 10.00 19.00 L 9.00 20.00 L 8.00 18.00 L 14.00 14.00 L 13.00 11.00 L 8.00 12.00 Z M 16.00 8.00 L 16.00 14.00 L 18.00 16.00 L 23.00 14.00 L 23.00 11.00 L 21.00 10.00 L 22.00 9.00 L 33.00 9.00 L 34.00 10.00 L 34.00 13.00 L 29.00 16.00 L 29.00 19.00 L 34.00 19.00 L 36.00 18.00 L 39.00 12.00 L 38.00 8.00 L 33.00 4.00 L 20.00 4.00 Z" fill="rgb(242,140,21)" opacity="0.230" fill-rule="evenodd"/>
<path d="M 4.00 17.00 L 5.00 23.00 L 8.00 26.00 L 23.00 26.00 L 27.00 22.00 L 27.00 19.00 L 24.00 16.00 L 21.00 18.00 L 22.00 21.00 L 21.00 22.00 L 10.00 22.00 L 8.00 18.00 L 14.00 14.00 L 13.00 11.00 L 8.00 12.00 Z M 16.00 8.00 L 16.00 14.00 L 18.00 16.00 L 21.00 14.00 L 23.00 14.00 L 23.00 12.00 L 21.00 10.00 L 22.00 9.00 L 25.00 9.00 L 26.00 8.00 L 27.00 9.00 L 33.00 9.00 L 34.00 10.00 L 34.00 13.00 L 32.00 15.00 L 29.00 16.00 L 29.00 19.00 L 34.00 19.00 L 36.00 18.00 L 39.00 12.00 L 38.00 8.00 L 33.00 4.00 L 21.00 4.00 Z" fill="rgb(242,141,21)" opacity="0.360" fill-rule="evenodd"/>
<path d="M 5.00 15.00 L 5.00 18.00 L 4.00 19.00 L 5.00 20.00 L 5.00 22.00 L 6.00 23.00 L 6.00 24.00 L 9.00 26.00 L 23.00 26.00 L 26.00 23.00 L 26.00 22.00 L 27.00 21.00 L 26.00 18.00 L 24.00 16.00 L 23.00 16.00 L 21.00 18.00 L 21.00 19.00 L 22.00 20.00 L 22.00 21.00 L 21.00 22.00 L 10.00 22.00 L 9.00 21.00 L 8.00 18.00 L 11.00 15.00 L 13.00 15.00 L 13.00 12.00 L 12.00 11.00 L 10.00 11.00 L 9.00 12.00 L 8.00 12.00 Z M 16.00 9.00 L 16.00 13.00 L 18.00 16.00 L 23.00 13.00 L 23.00 12.00 L 22.00 12.00 L 21.00 11.00 L 21.00 10.00 L 24.00 8.00 L 31.00 8.00 L 32.00 9.00 L 33.00 9.00 L 35.00 11.00 L 35.00 12.00 L 32.00 15.00 L 30.00 15.00 L 29.00 16.00 L 29.00 18.00 L 30.00 19.00 L 34.00 19.00 L 38.00 15.00 L 38.00 9.00 L 37.00 8.00 L 37.00 7.00 L 35.00 5.00 L 34.00 5.00 L 33.00 4.00 L 21.00 4.00 L 20.00 5.00 L 19.00 5.00 L 17.00 7.00 L 17.00 8.00 Z" fill="rgb(243,142,22)" opacity="0.550" fill-rule="evenodd"/>
<path d="M 6.00 14.00 L 6.00 15.00 L 5.00 16.00 L 5.00 22.00 L 9.00 26.00 L 23.00 26.00 L 26.00 23.00 L 26.00 22.00 L 27.00 21.00 L 26.00 18.00 L 24.00 16.00 L 21.00 18.00 L 21.00 19.00 L 23.00 21.00 L 22.00 22.00 L 10.00 22.00 L 8.00 20.00 L 8.00 18.00 L 11.00 15.00 L 13.00 15.00 L 13.00 12.00 L 12.00 11.00 L 11.00 11.00 Z M 16.00 9.00 L 16.00 13.00 L 17.00 14.00 L 17.00 15.00 L 20.00 15.00 L 23.00 13.00 L 21.00 11.00 L 21.00 10.00 L 23.00 8.00 L 32.00 8.00 L 35.00 11.00 L 35.00 12.00 L 32.00 15.00 L 31.00 15.00 L 29.00 17.00 L 29.00 18.00 L 30.00 19.00 L 34.00 19.00 L 38.00 15.00 L 38.00 9.00 L 37.00 8.00 L 37.00 7.00 L 34.00 5.00 L 20.00 5.00 L 19.00 6.00 L 18.00 6.00 L 18.00 7.00 Z" fill="rgb(244,144,22)" opacity="0.780" fill-rule="evenodd"/>
<path d="M 5.00 16.00 L 5.00 22.00 L 9.00 26.00 L 22.00 26.00 L 23.00 25.00 L 24.00 25.00 L 26.00 22.00 L 26.00 19.00 L 25.00 18.00 L 25.00 17.00 L 22.00 17.00 L 21.00 18.00 L 21.00 19.00 L 23.00 21.00 L 22.00 22.00 L 21.00 22.00 L 20.00 23.00 L 17.00 23.00 L 16.00 22.00 L 15.00 22.00 L 14.00 23.00 L 11.00 23.00 L 8.00 20.00 L 8.00 18.00 L 11.00 15.00 L 13.00 15.00 L 13.00 12.00 L 9.00 12.00 Z M 16.00 10.00 L 16.00 12.00 L 17.00 13.00 L 17.00 14.00 L 18.00 15.00 L 20.00 15.00 L 22.00 13.00 L 22.00 12.00 L 20.00 10.00 L 22.00 8.00 L 32.00 8.00 L 35.00 11.00 L 35.00 12.00 L 32.00 15.00 L 31.00 15.00 L 30.00 16.00 L 30.00 19.00 L 33.00 19.00 L 34.00 18.00 L 35.00 18.00 L 37.00 16.00 L 37.00 15.00 L 38.00 14.00 L 38.00 9.00 L 34.00 5.00 L 20.00 5.00 L 17.00 8.00 L 17.00 9.00 Z" fill="rgb(245,145,23)" opacity="1.000" fill-rule="evenodd"/>
</svg>