<svg xmlns="http://www.w3.org/2000/svg" viewBox="0 0 46 39" width="46" height="39" shape-rendering="geometricPrecision">
<title>badminton_speedometer_legend smooth contour vector</title>
<path d="M 11.00 8.00 L 6.00 14.00 L 4.00 20.00 L 5.00 29.00 L 8.00 34.00 L 11.00 35.00 L 13.00 33.00 L 9.00 28.00 L 9.00 25.00 L 13.00 20.00 L 15.00 20.00 L 16.00 22.00 L 17.00 21.00 L 18.00 22.00 L 18.00 26.00 L 20.00 28.00 L 23.00 29.00 L 27.00 26.00 L 27.00 21.00 L 28.00 20.00 L 29.00 21.00 L 28.00 20.00 L 29.00 17.00 L 31.00 15.00 L 32.00 16.00 L 31.00 15.00 L 33.00 14.00 L 36.00 20.00 L 33.00 21.00 L 33.00 24.00 L 32.00 25.00 L 29.00 24.00 L 29.00 26.00 L 30.00 25.00 L 33.00 28.00 L 32.00 29.00 L 33.00 28.00 L 34.00 29.00 L 32.00 32.00 L 32.00 34.00 L 35.00 35.00 L 39.00 30.00 L 40.00 27.00 L 40.00 19.00 L 38.00 13.00 L 32.00 7.00 L 23.00 4.00 L 16.00 5.00 Z M 33.00 27.00 L 34.00 26.00 L 35.00 28.00 L 34.00 29.00 Z M 32.00 25.00 L 33.00 24.00 L 36.00 25.00 L 35.00 26.00 Z M 21.00 23.00 L 22.00 22.00 L 23.00 24.00 L 22.00 25.00 Z M 17.00 21.00 L 18.00 20.00 L 19.00 21.00 L 18.00 22.00 Z M 20.00 18.00 L 21.00 17.00 L 24.00 17.00 L 25.00 18.00 L 24.00 19.00 L 21.00 19.00 Z M 9.00 18.00 L 10.00 17.00 L 12.00 20.00 L 10.00 21.00 Z M 12.00 16.00 L 13.00 15.00 L 15.00 16.00 L 14.00 17.00 Z M 10.00 16.00 L 11.00 15.00 L 12.00 17.00 L 11.00 18.00 Z M 14.00 12.00 L 18.00 9.00 L 20.00 9.00 L 21.00 11.00 L 23.00 11.00 L 24.00 9.00 L 27.00 9.00 L 30.00 11.00 L 30.00 13.00 L 25.00 18.00 L 24.00 17.00 L 19.00 17.00 L 18.00 16.00 L 17.00 17.00 L 15.00 15.00 Z" fill="rgb(211,235,6)" opacity="0.230" fill-rule="evenodd"/>
<path d="M 13.00 17.00 L 16.00 19.00 L 15.00 17.00 Z M 37.00 12.00 L 30.00 6.00 L 23.00 5.00 L 22.00 4.00 L 21.00 5.00 L 14.00 6.00 L 11.00 8.00 L 6.00 14.00 L 4.00 20.00 L 5.00 29.00 L 8.00 34.00 L 11.00 35.00 L 13.00 33.00 L 9.00 28.00 L 9.00 25.00 L 11.00 23.00 L 11.00 21.00 L 9.00 20.00 L 10.00 16.00 L 12.00 14.00 L 15.00 15.00 L 14.00 12.00 L 18.00 9.00 L 20.00 9.00 L 21.00 11.00 L 23.00 11.00 L 24.00 9.00 L 27.00 9.00 L 30.00 11.00 L 30.00 13.00 L 24.00 19.00 L 18.00 18.00 L 19.00 20.00 L 18.00 22.00 L 18.00 26.00 L 22.00 29.00 L 25.00 28.00 L 27.00 26.00 L 27.00 20.00 L 29.00 17.00 L 33.00 14.00 L 36.00 19.00 L 35.00 21.00 L 33.00 21.00 L 33.00 24.00 L 36.00 25.00 L 34.00 30.00 L 32.00 32.00 L 32.00 34.00 L 35.00 35.00 L 40.00 27.00 L 40.00 19.00 Z M 21.00 23.00 L 22.00 22.00 L 23.00 24.00 L 22.00 25.00 Z M 18.00 19.00 L 19.00 18.00 L 20.00 19.00 L 19.00 20.00 Z" fill="rgb(217,239,6)" opacity="0.360" fill-rule="evenodd"/>
<path d="M 10.00 9.00 L 10.00 10.00 L 6.00 14.00 L 6.00 16.00 L 5.00 17.00 L 5.00 20.00 L 4.00 21.00 L 4.00 24.00 L 5.00 25.00 L 5.00 28.00 L 6.00 29.00 L 7.00 32.00 L 10.00 35.00 L 11.00 35.00 L 12.00 34.00 L 12.00 32.00 L 10.00 30.00 L 10.00 29.00 L 9.00 28.00 L 9.00 26.00 L 8.00 25.00 L 10.00 23.00 L 11.00 23.00 L 11.00 21.00 L 10.00 21.00 L 9.00 20.00 L 9.00 17.00 L 10.00 16.00 L 10.00 15.00 L 11.00 14.00 L 14.00 15.00 L 15.00 14.00 L 14.00 13.00 L 14.00 11.00 L 17.00 9.00 L 20.00 9.00 L 21.00 10.00 L 21.00 11.00 L 23.00 11.00 L 23.00 10.00 L 25.00 8.00 L 26.00 9.00 L 29.00 10.00 L 30.00 11.00 L 30.00 13.00 L 24.00 19.00 L 21.00 19.00 L 18.00 22.00 L 18.00 26.00 L 20.00 28.00 L 25.00 28.00 L 27.00 26.00 L 27.00 20.00 L 29.00 18.00 L 29.00 17.00 L 32.00 14.00 L 33.00 14.00 L 35.00 16.00 L 35.00 17.00 L 36.00 18.00 L 36.00 20.00 L 35.00 21.00 L 34.00 21.00 L 33.00 22.00 L 33.00 23.00 L 34.00 24.00 L 35.00 24.00 L 36.00 25.00 L 36.00 26.00 L 35.00 27.00 L 35.00 29.00 L 32.00 32.00 L 32.00 34.00 L 33.00 35.00 L 35.00 35.00 L 36.00 34.00 L 36.00 33.00 L 38.00 31.00 L 38.00 30.00 L 39.00 29.00 L 39.00 27.00 L 40.00 26.00 L 40.00 20.00 L 39.00 19.00 L 39.00 16.00 L 38.00 15.00 L 37.00 12.00 L 33.00 8.00 L 32.00 8.00 L 27.00 5.00 L 17.00 5.00 L 16.00 6.00 L 13.00 7.00 L 11.00 9.00 Z M 21.00 23.00 L 22.00 22.00 L 24.00 24.00 L 23.00 25.00 L 22.00 25.00 L 21.00 24.00 Z" fill="rgb(219,241,7)" opacity="0.550" fill-rule="evenodd"/>
<path d="M 13.00 7.00 L 7.00 13.00 L 7.00 14.00 L 5.00 17.00 L 5.00 28.00 L 6.00 29.00 L 7.00 32.00 L 10.00 35.00 L 11.00 35.00 L 12.00 34.00 L 12.00 32.00 L 9.00 29.00 L 9.00 26.00 L 8.00 25.00 L 10.00 23.00 L 11.00 23.00 L 11.00 22.00 L 8.00 20.00 L 9.00 19.00 L 9.00 17.00 L 10.00 16.00 L 10.00 15.00 L 11.00 14.00 L 14.00 15.00 L 14.00 11.00 L 17.00 9.00 L 19.00 9.00 L 20.00 8.00 L 21.00 9.00 L 21.00 10.00 L 22.00 11.00 L 23.00 11.00 L 23.00 9.00 L 24.00 8.00 L 25.00 8.00 L 26.00 9.00 L 29.00 10.00 L 31.00 12.00 L 29.00 14.00 L 29.00 15.00 L 26.00 17.00 L 26.00 18.00 L 25.00 19.00 L 22.00 19.00 L 21.00 20.00 L 20.00 20.00 L 18.00 22.00 L 18.00 26.00 L 20.00 28.00 L 24.00 28.00 L 25.00 27.00 L 26.00 27.00 L 26.00 26.00 L 27.00 25.00 L 27.00 22.00 L 26.00 21.00 L 28.00 19.00 L 29.00 16.00 L 30.00 15.00 L 33.00 14.00 L 35.00 16.00 L 35.00 17.00 L 36.00 18.00 L 36.00 20.00 L 33.00 22.00 L 33.00 23.00 L 35.00 23.00 L 36.00 24.00 L 36.00 26.00 L 35.00 27.00 L 35.00 29.00 L 32.00 32.00 L 33.00 35.00 L 34.00 35.00 L 38.00 31.00 L 38.00 30.00 L 39.00 29.00 L 39.00 26.00 L 40.00 25.00 L 40.00 21.00 L 39.00 20.00 L 39.00 16.00 L 38.00 15.00 L 38.00 14.00 L 36.00 12.00 L 36.00 11.00 L 31.00 7.00 L 30.00 7.00 L 29.00 6.00 L 27.00 6.00 L 26.00 5.00 L 18.00 5.00 L 17.00 6.00 L 15.00 6.00 L 14.00 7.00 Z M 21.00 25.00 L 21.00 23.00 L 22.00 22.00 L 23.00 22.00 L 24.00 23.00 L 24.00 24.00 L 22.00 26.00 Z" fill="rgb(221,243,7)" opacity="0.780" fill-rule="evenodd"/>
<path d="M 12.00 8.00 L 7.00 13.00 L 7.00 14.00 L 5.00 17.00 L 5.00 28.00 L 6.00 29.00 L 7.00 32.00 L 10.00 35.00 L 12.00 33.00 L 12.00 32.00 L 9.00 29.00 L 9.00 27.00 L 8.00 26.00 L 8.00 25.00 L 10.00 23.00 L 11.00 23.00 L 11.00 22.00 L 10.00 22.00 L 8.00 20.00 L 10.00 15.00 L 11.00 14.00 L 14.00 14.00 L 14.00 13.00 L 13.00 12.00 L 15.00 10.00 L 16.00 10.00 L 19.00 8.00 L 20.00 8.00 L 22.00 11.00 L 23.00 10.00 L 23.00 9.00 L 24.00 8.00 L 25.00 8.00 L 26.00 9.00 L 28.00 9.00 L 29.00 10.00 L 30.00 10.00 L 31.00 11.00 L 31.00 12.00 L 30.00 13.00 L 30.00 14.00 L 28.00 16.00 L 27.00 16.00 L 25.00 19.00 L 22.00 19.00 L 21.00 20.00 L 20.00 20.00 L 18.00 23.00 L 18.00 25.00 L 19.00 26.00 L 19.00 27.00 L 20.00 27.00 L 21.00 28.00 L 24.00 28.00 L 27.00 25.00 L 27.00 23.00 L 26.00 22.00 L 26.00 21.00 L 28.00 19.00 L 29.00 16.00 L 32.00 13.00 L 33.00 13.00 L 36.00 18.00 L 36.00 20.00 L 34.00 22.00 L 33.00 22.00 L 33.00 23.00 L 35.00 23.00 L 36.00 24.00 L 36.00 27.00 L 35.00 28.00 L 34.00 31.00 L 33.00 32.00 L 32.00 32.00 L 33.00 35.00 L 34.00 35.00 L 37.00 32.00 L 37.00 31.00 L 39.00 28.00 L 39.00 17.00 L 38.00 16.00 L 38.00 14.00 L 35.00 11.00 L 35.00 10.00 L 34.00 10.00 L 31.00 7.00 L 30.00 7.00 L 29.00 6.00 L 26.00 6.00 L 25.00 5.00 L 18.00 5.00 L 17.00 6.00 L 15.00 6.00 L 13.00 8.00 Z M 23.00 22.00 L 24.00 23.00 L 24.00 24.00 L 22.00 26.00 L 20.00 24.00 L 22.00 22.00 Z" fill="rgb(223,244,7)" opacity="1.000" fill-rule="evenodd"/>
</svg>