<svg xmlns="http://www.w3.org/2000/svg" viewBox="0 0 88 87" width="88" height="87" shape-rendering="geometricPrecision">
<title>badminton_shuttle_main smooth contour vector</title>
<path d="M 78.00 18.00 L 72.00 18.00 L 75.00 18.00 L 77.00 20.00 L 76.00 21.00 L 74.00 20.00 L 71.00 21.00 L 63.00 14.00 L 66.00 12.00 L 66.00 10.00 L 64.00 8.00 L 60.00 8.00 L 60.00 11.00 L 59.00 12.00 L 57.00 7.00 L 55.00 6.00 L 53.00 7.00 L 51.00 10.00 L 46.00 6.00 L 40.00 6.00 L 39.00 5.00 L 40.00 4.00 L 45.00 4.00 L 40.00 4.00 L 38.00 5.00 L 35.00 8.00 L 36.00 10.00 L 33.00 18.00 L 32.00 19.00 L 31.00 17.00 L 28.00 18.00 L 27.00 21.00 L 28.00 24.00 L 30.00 25.00 L 30.00 28.00 L 27.00 34.00 L 27.00 36.00 L 26.00 37.00 L 25.00 34.00 L 22.00 35.00 L 21.00 37.00 L 23.00 41.00 L 24.00 39.00 L 25.00 40.00 L 25.00 43.00 L 23.00 49.00 L 15.00 53.00 L 9.00 60.00 L 8.00 59.00 L 9.00 57.00 L 6.00 60.00 L 6.00 67.00 L 4.00 70.00 L 7.00 72.00 L 8.00 70.00 L 11.00 75.00 L 10.00 77.00 L 11.00 80.00 L 14.00 80.00 L 15.00 79.00 L 21.00 82.00 L 26.00 82.00 L 33.00 79.00 L 36.00 76.00 L 37.00 77.00 L 39.00 75.00 L 40.00 76.00 L 41.00 75.00 L 40.00 73.00 L 43.00 72.00 L 42.00 72.00 L 41.00 70.00 L 39.00 75.00 L 37.00 77.00 L 36.00 76.00 L 39.00 70.00 L 39.00 67.00 L 32.00 61.00 L 33.00 60.00 L 36.00 62.00 L 34.00 60.00 L 36.00 59.00 L 42.00 64.00 L 44.00 62.00 L 52.00 58.00 L 54.00 59.00 L 58.00 58.00 L 59.00 57.00 L 57.00 56.00 L 68.00 50.00 L 72.00 51.00 L 77.00 48.00 L 75.00 47.00 L 80.00 44.00 L 80.00 41.00 L 79.00 40.00 L 80.00 33.00 L 82.00 32.00 L 83.00 34.00 L 81.00 29.00 L 79.00 28.00 L 77.00 25.00 L 77.00 22.00 L 78.00 21.00 L 77.00 20.00 Z M 12.00 79.00 L 13.00 78.00 L 14.00 79.00 L 13.00 80.00 Z M 11.00 78.00 L 12.00 77.00 L 13.00 78.00 L 12.00 79.00 Z M 10.00 77.00 L 11.00 76.00 L 12.00 77.00 L 11.00 78.00 Z M 14.00 73.00 L 16.00 72.00 L 17.00 74.00 L 16.00 75.00 Z M 7.00 62.00 L 8.00 63.00 L 8.00 70.00 L 7.00 71.00 L 6.00 70.00 L 6.00 63.00 Z M 8.00 59.00 L 9.00 60.00 L 8.00 63.00 L 7.00 62.00 Z M 33.00 59.00 L 34.00 58.00 L 35.00 59.00 L 34.00 60.00 Z M 53.00 58.00 L 54.00 57.00 L 56.00 58.00 L 55.00 59.00 Z M 32.00 58.00 L 33.00 57.00 L 34.00 58.00 L 33.00 59.00 Z M 55.00 57.00 L 56.00 56.00 L 58.00 57.00 L 57.00 58.00 Z M 45.00 55.00 L 46.00 54.00 L 47.00 55.00 L 46.00 56.00 Z M 44.00 54.00 L 46.00 56.00 L 43.00 58.00 L 41.00 56.00 Z M 47.00 54.00 L 48.00 53.00 L 49.00 54.00 L 48.00 55.00 Z M 44.00 54.00 L 45.00 53.00 L 46.00 54.00 L 45.00 55.00 Z M 27.00 54.00 L 28.00 53.00 L 29.00 54.00 L 28.00 55.00 Z M 23.00 54.00 L 24.00 53.00 L 28.00 55.00 L 30.00 54.00 L 33.00 57.00 L 32.00 58.00 L 33.00 60.00 L 31.00 61.00 Z M 45.00 53.00 L 46.00 52.00 L 47.00 53.00 L 46.00 54.00 Z M 26.00 53.00 L 27.00 52.00 L 28.00 53.00 L 27.00 54.00 Z M 22.00 53.00 L 23.00 52.00 L 24.00 53.00 L 23.00 54.00 Z M 37.00 52.00 L 38.00 51.00 L 39.00 52.00 L 38.00 53.00 Z M 25.00 52.00 L 26.00 51.00 L 27.00 52.00 L 26.00 53.00 Z M 21.00 52.00 L 22.00 51.00 L 23.00 52.00 L 22.00 53.00 Z M 38.00 51.00 L 39.00 50.00 L 40.00 51.00 L 39.00 52.00 Z M 20.00 51.00 L 21.00 50.00 L 22.00 51.00 L 21.00 52.00 Z M 69.00 50.00 L 70.00 49.00 L 72.00 50.00 L 71.00 51.00 Z M 49.00 50.00 L 50.00 49.00 L 51.00 50.00 L 50.00 51.00 Z M 34.00 50.00 L 35.00 49.00 L 36.00 50.00 L 35.00 51.00 Z M 22.00 50.00 L 23.00 49.00 L 24.00 50.00 L 23.00 51.00 Z M 71.00 49.00 L 72.00 48.00 L 74.00 49.00 L 73.00 50.00 Z M 73.00 48.00 L 74.00 47.00 L 76.00 48.00 L 75.00 49.00 Z M 44.00 46.00 L 45.00 45.00 L 46.00 46.00 L 45.00 47.00 Z M 31.00 43.00 L 32.00 44.00 L 30.00 47.00 L 29.00 44.00 Z M 70.00 43.00 L 71.00 42.00 L 72.00 43.00 L 71.00 44.00 Z M 64.00 47.00 L 56.00 52.00 L 53.00 52.00 L 52.00 50.00 L 50.00 49.00 L 58.00 42.00 L 60.00 43.00 L 59.00 44.00 L 61.00 46.00 Z M 31.00 43.00 L 32.00 42.00 L 33.00 43.00 L 32.00 44.00 Z M 59.00 42.00 L 60.00 41.00 L 61.00 42.00 L 60.00 43.00 Z M 38.00 42.00 L 39.00 41.00 L 40.00 43.00 L 39.00 44.00 Z M 60.00 41.00 L 61.00 40.00 L 62.00 41.00 L 61.00 42.00 Z M 61.00 40.00 L 62.00 39.00 L 63.00 40.00 L 62.00 41.00 Z M 32.00 40.00 L 33.00 39.00 L 34.00 41.00 L 33.00 42.00 Z M 30.00 40.00 L 31.00 39.00 L 32.00 41.00 L 31.00 42.00 Z M 62.00 39.00 L 63.00 38.00 L 64.00 39.00 L 63.00 40.00 Z M 54.00 38.00 L 55.00 37.00 L 56.00 38.00 L 55.00 39.00 Z M 55.00 37.00 L 56.00 36.00 L 57.00 37.00 L 56.00 38.00 Z M 25.00 36.00 L 26.00 37.00 L 25.00 40.00 L 24.00 39.00 Z M 63.00 38.00 L 70.00 32.00 L 74.00 33.00 L 76.00 35.00 L 76.00 38.00 L 74.00 43.00 L 71.00 42.00 L 73.00 41.00 L 68.00 40.00 L 66.00 38.00 L 65.00 39.00 Z M 39.00 41.00 L 44.00 32.00 L 45.00 35.00 L 51.00 39.00 L 54.00 38.00 L 55.00 39.00 L 46.00 46.00 L 42.00 44.00 L 41.00 42.00 Z M 79.00 32.00 L 80.00 31.00 L 81.00 32.00 L 80.00 33.00 Z M 78.00 31.00 L 79.00 30.00 L 80.00 31.00 L 79.00 32.00 Z M 44.00 31.00 L 45.00 30.00 L 46.00 32.00 L 45.00 33.00 Z M 77.00 30.00 L 78.00 29.00 L 79.00 30.00 L 78.00 31.00 Z M 38.00 30.00 L 39.00 29.00 L 40.00 30.00 L 39.00 31.00 Z M 74.00 28.00 L 75.00 27.00 L 76.00 28.00 L 75.00 29.00 Z M 39.00 28.00 L 40.00 27.00 L 41.00 28.00 L 40.00 29.00 Z M 35.00 27.00 L 36.00 29.00 L 37.00 28.00 L 39.00 32.00 L 36.00 38.00 L 34.00 40.00 L 33.00 39.00 L 34.00 37.00 L 32.00 40.00 L 31.00 39.00 L 31.00 36.00 Z M 75.00 27.00 L 76.00 26.00 L 77.00 27.00 L 76.00 28.00 Z M 76.00 26.00 L 77.00 25.00 L 78.00 26.00 L 77.00 27.00 Z M 40.00 26.00 L 41.00 25.00 L 42.00 26.00 L 41.00 27.00 Z M 36.00 24.00 L 37.00 25.00 L 36.00 28.00 L 35.00 27.00 Z M 66.00 24.00 L 67.00 23.00 L 68.00 24.00 L 67.00 25.00 Z M 41.00 24.00 L 42.00 23.00 L 43.00 25.00 L 42.00 26.00 Z M 64.00 23.00 L 65.00 22.00 L 66.00 23.00 L 65.00 24.00 Z M 63.00 22.00 L 64.00 21.00 L 65.00 22.00 L 64.00 23.00 Z M 30.00 21.00 L 31.00 22.00 L 30.00 25.00 L 29.00 24.00 Z M 76.00 21.00 L 77.00 20.00 L 78.00 21.00 L 77.00 22.00 Z M 62.00 21.00 L 63.00 20.00 L 64.00 21.00 L 63.00 22.00 Z M 60.00 19.00 L 63.00 22.00 L 61.00 23.00 L 60.00 25.00 L 63.00 26.00 L 65.00 28.00 L 66.00 27.00 L 68.00 28.00 L 58.00 37.00 L 57.00 37.00 L 52.00 31.00 L 48.00 29.00 L 46.00 31.00 L 45.00 30.00 L 48.00 23.00 L 51.00 20.00 L 57.00 22.00 L 58.00 20.00 Z M 51.00 19.00 L 52.00 18.00 L 53.00 20.00 L 52.00 21.00 Z M 31.00 18.00 L 32.00 19.00 L 31.00 22.00 L 30.00 21.00 Z M 57.00 18.00 L 58.00 17.00 L 61.00 17.00 L 63.00 20.00 L 62.00 21.00 L 60.00 19.00 Z M 55.00 17.00 L 56.00 16.00 L 57.00 17.00 L 56.00 18.00 Z M 52.00 17.00 L 53.00 16.00 L 54.00 18.00 L 53.00 19.00 Z M 54.00 16.00 L 55.00 15.00 L 56.00 16.00 L 55.00 17.00 Z M 62.00 13.00 L 63.00 12.00 L 64.00 13.00 L 63.00 14.00 Z M 60.00 12.00 L 61.00 11.00 L 62.00 12.00 L 61.00 13.00 Z M 45.00 10.00 L 47.00 12.00 L 47.00 14.00 L 49.00 15.00 L 43.00 24.00 L 39.00 21.00 L 37.00 24.00 L 36.00 21.00 L 39.00 12.00 L 41.00 10.00 Z M 35.00 8.00 L 36.00 7.00 L 37.00 8.00 L 36.00 9.00 Z M 36.00 7.00 L 37.00 6.00 L 38.00 7.00 L 37.00 8.00 Z M 37.00 6.00 L 38.00 5.00 L 40.00 6.00 L 39.00 7.00 Z" fill="rgb(208,238,4)" opacity="0.230" fill-rule="evenodd"/>
<path d="M 24.00 36.00 L 23.00 36.00 L 23.00 40.00 Z M 64.00 9.00 L 60.00 9.00 L 59.00 12.00 L 57.00 7.00 L 55.00 6.00 L 53.00 7.00 L 51.00 11.00 L 50.00 9.00 L 46.00 6.00 L 41.00 6.00 L 38.00 7.00 L 36.00 9.00 L 31.00 22.00 L 30.00 21.00 L 30.00 18.00 L 29.00 19.00 L 29.00 23.00 L 30.00 21.00 L 31.00 22.00 L 31.00 25.00 L 27.00 34.00 L 22.00 51.00 L 21.00 52.00 L 18.00 51.00 L 14.00 54.00 L 9.00 60.00 L 8.00 59.00 L 6.00 62.00 L 6.00 70.00 L 6.00 62.00 L 8.00 59.00 L 9.00 60.00 L 8.00 63.00 L 8.00 69.00 L 12.00 77.00 L 11.00 78.00 L 12.00 79.00 L 13.00 78.00 L 21.00 82.00 L 26.00 82.00 L 33.00 79.00 L 36.00 76.00 L 39.00 70.00 L 39.00 67.00 L 27.00 58.00 L 22.00 53.00 L 23.00 52.00 L 27.00 54.00 L 28.00 53.00 L 30.00 54.00 L 33.00 57.00 L 32.00 58.00 L 33.00 57.00 L 42.00 64.00 L 44.00 62.00 L 54.00 57.00 L 57.00 58.00 L 55.00 57.00 L 65.00 52.00 L 67.00 50.00 L 70.00 49.00 L 73.00 50.00 L 77.00 48.00 L 75.00 47.00 L 80.00 44.00 L 80.00 41.00 L 79.00 40.00 L 80.00 33.00 L 78.00 31.00 L 79.00 30.00 L 81.00 31.00 L 76.00 26.00 L 77.00 25.00 L 76.00 21.00 L 74.00 20.00 L 71.00 21.00 L 63.00 14.00 L 65.00 11.00 Z M 11.00 78.00 L 12.00 77.00 L 13.00 78.00 L 12.00 79.00 Z M 14.00 73.00 L 15.00 72.00 L 18.00 73.00 L 16.00 75.00 Z M 46.00 54.00 L 47.00 53.00 L 49.00 54.00 L 48.00 55.00 Z M 45.00 53.00 L 47.00 55.00 L 43.00 58.00 L 41.00 56.00 Z M 49.00 53.00 L 50.00 52.00 L 51.00 53.00 L 50.00 54.00 Z M 45.00 53.00 L 46.00 52.00 L 47.00 53.00 L 46.00 54.00 Z M 26.00 53.00 L 27.00 52.00 L 28.00 53.00 L 27.00 54.00 Z M 50.00 52.00 L 51.00 51.00 L 52.00 52.00 L 51.00 53.00 Z M 37.00 52.00 L 38.00 51.00 L 39.00 52.00 L 38.00 53.00 Z M 25.00 52.00 L 26.00 51.00 L 27.00 52.00 L 26.00 53.00 Z M 21.00 52.00 L 22.00 51.00 L 23.00 52.00 L 22.00 53.00 Z M 48.00 51.00 L 49.00 50.00 L 50.00 51.00 L 49.00 52.00 Z M 38.00 51.00 L 39.00 50.00 L 40.00 51.00 L 39.00 52.00 Z M 36.00 51.00 L 37.00 50.00 L 38.00 51.00 L 37.00 52.00 Z M 24.00 51.00 L 25.00 50.00 L 26.00 51.00 L 25.00 52.00 Z M 39.00 50.00 L 40.00 49.00 L 41.00 50.00 L 40.00 51.00 Z M 34.00 50.00 L 35.00 49.00 L 36.00 50.00 L 35.00 51.00 Z M 22.00 50.00 L 23.00 49.00 L 24.00 50.00 L 23.00 51.00 Z M 71.00 49.00 L 72.00 48.00 L 74.00 49.00 L 73.00 50.00 Z M 40.00 49.00 L 41.00 48.00 L 42.00 49.00 L 41.00 50.00 Z M 73.00 48.00 L 74.00 47.00 L 76.00 48.00 L 75.00 49.00 Z M 35.00 48.00 L 36.00 47.00 L 37.00 48.00 L 36.00 49.00 Z M 64.00 46.00 L 65.00 45.00 L 66.00 46.00 L 65.00 47.00 Z M 66.00 45.00 L 67.00 44.00 L 68.00 45.00 L 67.00 46.00 Z M 68.00 44.00 L 69.00 43.00 L 70.00 44.00 L 69.00 45.00 Z M 70.00 43.00 L 71.00 42.00 L 72.00 43.00 L 71.00 44.00 Z M 64.00 47.00 L 56.00 52.00 L 52.00 52.00 L 49.00 50.00 L 58.00 42.00 L 60.00 43.00 L 59.00 44.00 L 60.00 44.00 L 61.00 46.00 Z M 30.00 42.00 L 32.00 45.00 L 29.00 47.00 L 28.00 46.00 Z M 59.00 42.00 L 60.00 41.00 L 61.00 42.00 L 60.00 43.00 Z M 60.00 41.00 L 61.00 40.00 L 62.00 41.00 L 61.00 42.00 Z M 61.00 40.00 L 62.00 39.00 L 63.00 40.00 L 62.00 41.00 Z M 32.00 40.00 L 33.00 39.00 L 34.00 41.00 L 33.00 42.00 Z M 31.00 39.00 L 33.00 42.00 L 32.00 44.00 L 30.00 42.00 Z M 62.00 39.00 L 70.00 32.00 L 74.00 33.00 L 76.00 35.00 L 76.00 38.00 L 74.00 43.00 L 72.00 43.00 L 68.00 40.00 L 66.00 40.00 L 65.00 39.00 L 66.00 38.00 L 64.00 40.00 Z M 44.00 32.00 L 45.00 34.00 L 51.00 38.00 L 55.00 37.00 L 56.00 38.00 L 44.00 48.00 L 43.00 47.00 L 44.00 45.00 L 38.00 43.00 Z M 44.00 31.00 L 45.00 30.00 L 46.00 32.00 L 45.00 33.00 Z M 77.00 30.00 L 78.00 29.00 L 79.00 30.00 L 78.00 31.00 Z M 76.00 29.00 L 77.00 28.00 L 78.00 29.00 L 77.00 30.00 Z M 38.00 29.00 L 39.00 28.00 L 40.00 30.00 L 39.00 31.00 Z M 74.00 28.00 L 75.00 27.00 L 76.00 28.00 L 75.00 29.00 Z M 39.00 28.00 L 40.00 27.00 L 41.00 28.00 L 40.00 29.00 Z M 75.00 27.00 L 76.00 26.00 L 77.00 27.00 L 76.00 28.00 Z M 40.00 26.00 L 41.00 25.00 L 42.00 27.00 L 41.00 28.00 Z M 67.00 25.00 L 68.00 24.00 L 69.00 25.00 L 68.00 26.00 Z M 36.00 24.00 L 39.00 32.00 L 36.00 38.00 L 34.00 40.00 L 33.00 38.00 L 32.00 40.00 L 31.00 39.00 L 31.00 36.00 L 34.00 27.00 Z M 66.00 24.00 L 67.00 23.00 L 68.00 24.00 L 67.00 25.00 Z M 41.00 24.00 L 42.00 23.00 L 43.00 25.00 L 42.00 26.00 Z M 64.00 23.00 L 65.00 22.00 L 66.00 23.00 L 65.00 24.00 Z M 63.00 22.00 L 64.00 21.00 L 65.00 22.00 L 64.00 23.00 Z M 61.00 17.00 L 64.00 21.00 L 63.00 22.00 L 64.00 23.00 L 61.00 25.00 L 63.00 24.00 L 64.00 26.00 L 66.00 27.00 L 67.00 26.00 L 68.00 28.00 L 62.00 34.00 L 56.00 38.00 L 55.00 37.00 L 56.00 36.00 L 54.00 34.00 L 51.00 33.00 L 50.00 31.00 L 47.00 30.00 L 46.00 31.00 L 45.00 29.00 L 48.00 23.00 L 52.00 18.00 L 53.00 20.00 L 56.00 20.00 L 59.00 19.00 L 57.00 19.00 L 56.00 18.00 L 57.00 17.00 Z M 55.00 17.00 L 56.00 16.00 L 57.00 17.00 L 56.00 18.00 Z M 52.00 17.00 L 53.00 16.00 L 54.00 18.00 L 53.00 19.00 Z M 53.00 16.00 L 54.00 15.00 L 56.00 16.00 L 55.00 17.00 Z M 62.00 13.00 L 63.00 12.00 L 64.00 13.00 L 63.00 14.00 Z M 60.00 12.00 L 61.00 11.00 L 63.00 12.00 L 62.00 13.00 Z M 45.00 10.00 L 49.00 15.00 L 43.00 24.00 L 42.00 23.00 L 40.00 24.00 L 38.00 22.00 L 37.00 24.00 L 36.00 21.00 L 39.00 12.00 L 41.00 10.00 Z" fill="rgb(210,240,4)" opacity="0.360" fill-rule="evenodd"/>
<path d="M 18.00 51.00 L 14.00 55.00 L 13.00 55.00 L 12.00 56.00 L 12.00 57.00 L 10.00 59.00 L 10.00 60.00 L 9.00 61.00 L 9.00 63.00 L 8.00 64.00 L 8.00 69.00 L 9.00 70.00 L 9.00 72.00 L 10.00 73.00 L 10.00 74.00 L 12.00 76.00 L 12.00 77.00 L 18.00 81.00 L 21.00 81.00 L 22.00 82.00 L 25.00 82.00 L 26.00 81.00 L 29.00 81.00 L 35.00 77.00 L 35.00 76.00 L 37.00 74.00 L 37.00 73.00 L 39.00 70.00 L 39.00 68.00 L 33.00 62.00 L 32.00 62.00 L 29.00 59.00 L 28.00 59.00 L 22.00 53.00 L 21.00 53.00 L 19.00 51.00 Z M 14.00 72.00 L 15.00 71.00 L 17.00 71.00 L 21.00 75.00 L 20.00 76.00 L 17.00 76.00 L 14.00 73.00 Z M 23.00 67.00 L 24.00 66.00 L 25.00 67.00 L 25.00 68.00 L 24.00 69.00 L 23.00 68.00 Z M 15.00 60.00 L 16.00 61.00 L 16.00 62.00 L 15.00 63.00 L 14.00 63.00 L 13.00 62.00 Z M 57.00 7.00 L 54.00 7.00 L 52.00 9.00 L 52.00 10.00 L 51.00 11.00 L 47.00 7.00 L 46.00 7.00 L 45.00 6.00 L 41.00 6.00 L 36.00 9.00 L 36.00 10.00 L 35.00 11.00 L 35.00 13.00 L 34.00 14.00 L 34.00 16.00 L 33.00 17.00 L 33.00 19.00 L 32.00 20.00 L 32.00 22.00 L 31.00 23.00 L 31.00 25.00 L 30.00 26.00 L 30.00 28.00 L 29.00 29.00 L 29.00 31.00 L 28.00 32.00 L 28.00 34.00 L 27.00 35.00 L 27.00 36.00 L 26.00 37.00 L 26.00 39.00 L 25.00 40.00 L 25.00 43.00 L 24.00 44.00 L 24.00 46.00 L 23.00 47.00 L 23.00 48.00 L 28.00 53.00 L 29.00 53.00 L 33.00 57.00 L 34.00 57.00 L 40.00 63.00 L 43.00 63.00 L 44.00 62.00 L 45.00 62.00 L 46.00 61.00 L 47.00 61.00 L 48.00 60.00 L 49.00 60.00 L 50.00 59.00 L 51.00 59.00 L 52.00 58.00 L 53.00 58.00 L 54.00 57.00 L 55.00 57.00 L 56.00 56.00 L 57.00 56.00 L 58.00 55.00 L 59.00 55.00 L 60.00 54.00 L 65.00 52.00 L 67.00 50.00 L 69.00 50.00 L 70.00 49.00 L 71.00 49.00 L 72.00 48.00 L 73.00 48.00 L 80.00 44.00 L 80.00 41.00 L 79.00 40.00 L 79.00 38.00 L 80.00 37.00 L 80.00 33.00 L 76.00 29.00 L 75.00 29.00 L 74.00 28.00 L 76.00 26.00 L 77.00 23.00 L 75.00 21.00 L 71.00 21.00 L 70.00 20.00 L 69.00 20.00 L 63.00 14.00 L 58.00 12.00 L 57.00 11.00 L 58.00 10.00 Z M 76.00 35.00 L 76.00 41.00 L 74.00 43.00 L 73.00 43.00 L 72.00 44.00 L 71.00 44.00 L 70.00 45.00 L 69.00 45.00 L 68.00 46.00 L 67.00 46.00 L 66.00 47.00 L 65.00 47.00 L 64.00 48.00 L 63.00 48.00 L 56.00 52.00 L 53.00 52.00 L 52.00 53.00 L 51.00 53.00 L 49.00 55.00 L 48.00 55.00 L 43.00 58.00 L 41.00 56.00 L 44.00 53.00 L 45.00 53.00 L 48.00 50.00 L 49.00 50.00 L 59.00 41.00 L 60.00 41.00 L 67.00 34.00 L 68.00 34.00 L 70.00 32.00 L 71.00 32.00 L 72.00 33.00 L 74.00 33.00 Z M 60.00 16.00 L 65.00 21.00 L 65.00 22.00 L 66.00 22.00 L 69.00 25.00 L 69.00 27.00 L 61.00 35.00 L 60.00 35.00 L 51.00 43.00 L 50.00 43.00 L 42.00 50.00 L 41.00 50.00 L 38.00 53.00 L 37.00 53.00 L 34.00 50.00 L 34.00 49.00 L 36.00 47.00 L 36.00 46.00 L 37.00 45.00 L 37.00 44.00 L 38.00 43.00 L 38.00 42.00 L 39.00 41.00 L 41.00 36.00 L 43.00 34.00 L 43.00 33.00 L 44.00 32.00 L 44.00 31.00 L 45.00 30.00 L 45.00 29.00 L 46.00 28.00 L 48.00 23.00 L 50.00 21.00 L 51.00 18.00 L 53.00 16.00 L 53.00 15.00 L 54.00 14.00 L 55.00 14.00 L 56.00 15.00 L 56.00 16.00 L 57.00 16.00 L 58.00 17.00 L 59.00 17.00 Z M 45.00 10.00 L 49.00 15.00 L 48.00 16.00 L 47.00 19.00 L 45.00 21.00 L 44.00 24.00 L 42.00 26.00 L 42.00 27.00 L 41.00 28.00 L 39.00 33.00 L 37.00 35.00 L 37.00 36.00 L 36.00 37.00 L 35.00 40.00 L 33.00 42.00 L 32.00 45.00 L 30.00 47.00 L 29.00 47.00 L 28.00 46.00 L 28.00 45.00 L 29.00 44.00 L 29.00 42.00 L 30.00 41.00 L 30.00 39.00 L 31.00 38.00 L 31.00 35.00 L 33.00 32.00 L 33.00 30.00 L 34.00 29.00 L 34.00 27.00 L 35.00 26.00 L 35.00 24.00 L 36.00 23.00 L 36.00 20.00 L 37.00 19.00 L 37.00 17.00 L 38.00 16.00 L 38.00 14.00 L 39.00 13.00 L 39.00 12.00 L 41.00 10.00 Z" fill="rgb(214,243,5)" opacity="0.550" fill-rule="evenodd"/>
<path d="M 19.00 51.00 L 18.00 52.00 L 17.00 52.00 L 10.00 59.00 L 10.00 60.00 L 9.00 61.00 L 9.00 64.00 L 8.00 65.00 L 8.00 68.00 L 9.00 69.00 L 9.00 71.00 L 10.00 72.00 L 10.00 74.00 L 15.00 79.00 L 16.00 79.00 L 19.00 81.00 L 21.00 81.00 L 22.00 82.00 L 24.00 82.00 L 25.00 81.00 L 29.00 81.00 L 30.00 80.00 L 31.00 80.00 L 37.00 74.00 L 39.00 68.00 L 34.00 63.00 L 33.00 63.00 L 30.00 60.00 L 29.00 60.00 L 23.00 54.00 L 22.00 54.00 Z M 14.00 72.00 L 15.00 71.00 L 17.00 71.00 L 22.00 76.00 L 21.00 77.00 L 19.00 77.00 L 18.00 76.00 L 16.00 76.00 L 14.00 74.00 Z M 23.00 67.00 L 24.00 66.00 L 26.00 66.00 L 28.00 68.00 L 27.00 69.00 L 24.00 69.00 L 23.00 68.00 Z M 15.00 60.00 L 17.00 62.00 L 17.00 63.00 L 16.00 64.00 L 15.00 64.00 L 13.00 62.00 Z M 56.00 7.00 L 54.00 7.00 L 52.00 9.00 L 52.00 10.00 L 51.00 11.00 L 47.00 7.00 L 46.00 7.00 L 45.00 6.00 L 42.00 6.00 L 41.00 7.00 L 39.00 7.00 L 38.00 8.00 L 37.00 8.00 L 37.00 9.00 L 35.00 12.00 L 35.00 14.00 L 34.00 15.00 L 34.00 17.00 L 32.00 20.00 L 32.00 22.00 L 31.00 23.00 L 31.00 26.00 L 30.00 27.00 L 30.00 29.00 L 28.00 32.00 L 28.00 34.00 L 27.00 35.00 L 27.00 37.00 L 26.00 38.00 L 26.00 40.00 L 25.00 41.00 L 25.00 44.00 L 23.00 47.00 L 23.00 48.00 L 27.00 52.00 L 28.00 52.00 L 32.00 56.00 L 33.00 56.00 L 39.00 62.00 L 40.00 62.00 L 41.00 63.00 L 43.00 63.00 L 45.00 61.00 L 47.00 61.00 L 49.00 59.00 L 50.00 59.00 L 57.00 55.00 L 59.00 55.00 L 61.00 53.00 L 63.00 53.00 L 65.00 51.00 L 66.00 51.00 L 73.00 47.00 L 75.00 47.00 L 80.00 43.00 L 80.00 41.00 L 79.00 40.00 L 79.00 37.00 L 80.00 36.00 L 80.00 33.00 L 78.00 31.00 L 77.00 31.00 L 74.00 28.00 L 76.00 26.00 L 77.00 23.00 L 75.00 21.00 L 71.00 21.00 L 70.00 20.00 L 69.00 20.00 L 61.00 13.00 L 59.00 13.00 L 57.00 11.00 L 58.00 10.00 L 58.00 9.00 Z M 76.00 35.00 L 76.00 41.00 L 74.00 43.00 L 73.00 43.00 L 72.00 44.00 L 71.00 44.00 L 70.00 45.00 L 69.00 45.00 L 68.00 46.00 L 67.00 46.00 L 66.00 47.00 L 65.00 47.00 L 64.00 48.00 L 63.00 48.00 L 62.00 49.00 L 61.00 49.00 L 54.00 53.00 L 52.00 53.00 L 51.00 54.00 L 46.00 56.00 L 44.00 58.00 L 42.00 58.00 L 41.00 57.00 L 41.00 56.00 L 44.00 53.00 L 45.00 53.00 L 50.00 48.00 L 51.00 48.00 L 55.00 44.00 L 56.00 44.00 L 60.00 40.00 L 61.00 40.00 L 69.00 32.00 L 72.00 32.00 L 73.00 33.00 L 74.00 33.00 Z M 60.00 16.00 L 69.00 25.00 L 69.00 27.00 L 60.00 36.00 L 59.00 36.00 L 56.00 39.00 L 55.00 39.00 L 50.00 44.00 L 49.00 44.00 L 46.00 47.00 L 45.00 47.00 L 40.00 52.00 L 37.00 53.00 L 34.00 50.00 L 34.00 49.00 L 35.00 48.00 L 36.00 45.00 L 38.00 43.00 L 38.00 41.00 L 39.00 40.00 L 39.00 39.00 L 41.00 37.00 L 42.00 34.00 L 44.00 32.00 L 44.00 31.00 L 45.00 30.00 L 45.00 29.00 L 46.00 28.00 L 46.00 27.00 L 47.00 26.00 L 49.00 21.00 L 51.00 19.00 L 52.00 16.00 L 54.00 14.00 L 55.00 14.00 L 56.00 15.00 L 56.00 16.00 L 57.00 16.00 L 58.00 17.00 L 59.00 16.00 Z M 45.00 10.00 L 49.00 15.00 L 48.00 16.00 L 46.00 21.00 L 42.00 26.00 L 42.00 27.00 L 41.00 28.00 L 41.00 29.00 L 40.00 30.00 L 38.00 35.00 L 36.00 37.00 L 34.00 42.00 L 32.00 44.00 L 32.00 45.00 L 30.00 47.00 L 29.00 47.00 L 28.00 46.00 L 28.00 45.00 L 29.00 44.00 L 29.00 42.00 L 30.00 41.00 L 30.00 39.00 L 31.00 38.00 L 31.00 35.00 L 32.00 34.00 L 32.00 32.00 L 33.00 31.00 L 33.00 29.00 L 34.00 28.00 L 34.00 26.00 L 35.00 25.00 L 35.00 23.00 L 36.00 22.00 L 36.00 20.00 L 37.00 19.00 L 37.00 17.00 L 38.00 16.00 L 38.00 13.00 L 40.00 10.00 Z" fill="rgb(215,244,5)" opacity="0.780" fill-rule="evenodd"/>
<path d="M 18.00 52.00 L 17.00 53.00 L 16.00 53.00 L 10.00 59.00 L 10.00 60.00 L 9.00 61.00 L 9.00 71.00 L 10.00 72.00 L 11.00 75.00 L 15.00 79.00 L 16.00 79.00 L 19.00 81.00 L 28.00 81.00 L 29.00 80.00 L 32.00 79.00 L 36.00 75.00 L 36.00 74.00 L 37.00 73.00 L 39.00 68.00 L 35.00 64.00 L 34.00 64.00 L 31.00 61.00 L 30.00 61.00 L 24.00 55.00 L 23.00 55.00 L 20.00 52.00 Z M 14.00 72.00 L 15.00 71.00 L 17.00 71.00 L 20.00 74.00 L 21.00 74.00 L 23.00 76.00 L 22.00 77.00 L 19.00 77.00 L 18.00 76.00 L 16.00 76.00 L 14.00 74.00 Z M 29.00 70.00 L 30.00 69.00 L 31.00 69.00 L 32.00 70.00 L 31.00 71.00 L 30.00 71.00 Z M 13.00 70.00 L 14.00 69.00 L 15.00 70.00 L 15.00 71.00 L 14.00 72.00 L 13.00 71.00 Z M 25.00 65.00 L 28.00 68.00 L 28.00 69.00 L 27.00 70.00 L 25.00 70.00 L 23.00 68.00 L 23.00 67.00 Z M 13.00 61.00 L 14.00 60.00 L 16.00 60.00 L 17.00 61.00 L 17.00 63.00 L 16.00 64.00 L 14.00 64.00 L 13.00 63.00 Z M 56.00 7.00 L 54.00 7.00 L 53.00 8.00 L 53.00 9.00 L 51.00 11.00 L 48.00 8.00 L 47.00 8.00 L 44.00 6.00 L 43.00 6.00 L 42.00 7.00 L 39.00 7.00 L 36.00 10.00 L 36.00 11.00 L 35.00 12.00 L 35.00 14.00 L 34.00 15.00 L 34.00 17.00 L 33.00 18.00 L 33.00 20.00 L 32.00 21.00 L 32.00 23.00 L 31.00 24.00 L 31.00 26.00 L 30.00 27.00 L 30.00 29.00 L 29.00 30.00 L 29.00 32.00 L 27.00 35.00 L 27.00 37.00 L 26.00 38.00 L 26.00 40.00 L 25.00 41.00 L 25.00 44.00 L 24.00 45.00 L 24.00 47.00 L 23.00 48.00 L 26.00 51.00 L 27.00 51.00 L 31.00 55.00 L 32.00 55.00 L 38.00 61.00 L 39.00 61.00 L 41.00 63.00 L 43.00 63.00 L 45.00 61.00 L 46.00 61.00 L 47.00 60.00 L 48.00 60.00 L 49.00 59.00 L 50.00 59.00 L 51.00 58.00 L 52.00 58.00 L 53.00 57.00 L 54.00 57.00 L 55.00 56.00 L 56.00 56.00 L 57.00 55.00 L 58.00 55.00 L 59.00 54.00 L 60.00 54.00 L 61.00 53.00 L 62.00 53.00 L 63.00 52.00 L 64.00 52.00 L 65.00 51.00 L 66.00 51.00 L 67.00 50.00 L 68.00 50.00 L 69.00 49.00 L 70.00 49.00 L 71.00 48.00 L 72.00 48.00 L 73.00 47.00 L 78.00 45.00 L 80.00 43.00 L 80.00 42.00 L 79.00 41.00 L 79.00 37.00 L 80.00 36.00 L 80.00 33.00 L 73.00 28.00 L 77.00 24.00 L 77.00 23.00 L 75.00 21.00 L 70.00 21.00 L 61.00 13.00 L 59.00 13.00 L 57.00 11.00 L 57.00 8.00 Z M 76.00 34.00 L 76.00 42.00 L 75.00 43.00 L 74.00 43.00 L 69.00 46.00 L 67.00 46.00 L 66.00 47.00 L 65.00 47.00 L 63.00 49.00 L 62.00 49.00 L 61.00 50.00 L 59.00 50.00 L 57.00 52.00 L 56.00 52.00 L 55.00 53.00 L 52.00 53.00 L 51.00 54.00 L 50.00 54.00 L 48.00 56.00 L 47.00 56.00 L 44.00 58.00 L 42.00 58.00 L 41.00 57.00 L 41.00 56.00 L 45.00 52.00 L 46.00 52.00 L 51.00 47.00 L 52.00 47.00 L 56.00 43.00 L 57.00 43.00 L 61.00 39.00 L 62.00 39.00 L 69.00 32.00 L 72.00 32.00 L 73.00 33.00 L 75.00 33.00 Z M 60.00 16.00 L 67.00 23.00 L 68.00 23.00 L 70.00 25.00 L 70.00 26.00 L 64.00 33.00 L 63.00 33.00 L 59.00 37.00 L 58.00 37.00 L 55.00 40.00 L 54.00 40.00 L 49.00 45.00 L 48.00 45.00 L 46.00 47.00 L 45.00 47.00 L 39.00 53.00 L 37.00 53.00 L 34.00 50.00 L 34.00 49.00 L 35.00 48.00 L 35.00 47.00 L 36.00 46.00 L 36.00 45.00 L 37.00 44.00 L 37.00 43.00 L 38.00 42.00 L 40.00 37.00 L 42.00 35.00 L 42.00 34.00 L 43.00 33.00 L 43.00 32.00 L 44.00 31.00 L 44.00 30.00 L 45.00 29.00 L 47.00 24.00 L 49.00 22.00 L 49.00 21.00 L 51.00 19.00 L 52.00 16.00 L 54.00 14.00 L 55.00 14.00 L 57.00 16.00 Z M 46.00 10.00 L 47.00 11.00 L 49.00 16.00 L 47.00 18.00 L 45.00 23.00 L 41.00 28.00 L 41.00 29.00 L 40.00 30.00 L 40.00 31.00 L 39.00 32.00 L 37.00 37.00 L 35.00 39.00 L 33.00 44.00 L 31.00 46.00 L 31.00 47.00 L 30.00 48.00 L 28.00 46.00 L 28.00 45.00 L 29.00 44.00 L 29.00 41.00 L 30.00 40.00 L 30.00 38.00 L 31.00 37.00 L 31.00 35.00 L 32.00 34.00 L 32.00 31.00 L 34.00 28.00 L 34.00 26.00 L 35.00 25.00 L 35.00 23.00 L 36.00 22.00 L 36.00 19.00 L 37.00 18.00 L 37.00 16.00 L 38.00 15.00 L 38.00 13.00 L 40.00 10.00 Z" fill="rgb(216,244,5)" opacity="1.000" fill-rule="evenodd"/>
</svg>