<svg xmlns="http://www.w3.org/2000/svg" viewBox="0 0 51 46" width="51" height="46" shape-rendering="geometricPrecision">
<title>body_flame_card smooth contour vector</title>
<path d="M 23.00 6.00 L 21.00 6.00 L 20.00 8.00 L 17.00 7.00 L 19.00 8.00 L 16.00 9.00 L 14.00 13.00 L 13.00 11.00 L 11.00 12.00 L 10.00 11.00 L 7.00 13.00 L 7.00 17.00 L 9.00 20.00 L 9.00 18.00 L 10.00 17.00 L 11.00 18.00 L 11.00 22.00 L 8.00 26.00 L 8.00 33.00 L 13.00 39.00 L 19.00 41.00 L 26.00 39.00 L 29.00 36.00 L 31.00 32.00 L 31.00 25.00 L 28.00 19.00 L 29.00 17.00 L 30.00 18.00 L 27.00 15.00 L 26.00 16.00 L 22.00 12.00 L 25.00 10.00 L 24.00 8.00 L 25.00 7.00 Z M 19.00 34.00 L 20.00 33.00 L 22.00 34.00 L 21.00 35.00 Z M 21.00 25.00 L 23.00 27.00 L 24.00 31.00 L 22.00 34.00 L 21.00 33.00 L 19.00 34.00 L 18.00 33.00 L 17.00 35.00 L 16.00 34.00 L 16.00 30.00 Z M 27.00 17.00 L 28.00 16.00 L 29.00 17.00 L 28.00 18.00 Z M 26.00 16.00 L 27.00 15.00 L 28.00 16.00 L 27.00 17.00 Z M 15.00 12.00 L 16.00 13.00 L 16.00 17.00 L 15.00 18.00 L 12.00 16.00 L 14.00 15.00 Z M 21.00 11.00 L 22.00 10.00 L 23.00 11.00 L 22.00 12.00 Z M 19.00 10.00 L 20.00 9.00 L 22.00 10.00 L 21.00 11.00 Z M 18.00 9.00 L 19.00 8.00 L 20.00 9.00 L 19.00 10.00 Z M 36.00 0.00 L 38.00 0.00 L 41.00 2.00 L 44.00 2.00 L 40.00 0.00 Z M 0.00 0.00 L 0.00 1.00 L 3.00 2.00 L 2.00 4.00 L 8.00 2.00 L 11.00 2.00 L 8.00 0.00 Z M 3.00 1.00 L 4.00 0.00 L 5.00 1.00 L 4.00 2.00 Z" fill="rgb(185,224,11)" opacity="0.230" fill-rule="evenodd"/>
<path d="M 16.00 9.00 L 15.00 12.00 L 17.00 15.00 L 15.00 18.00 L 14.00 17.00 L 11.00 18.00 L 11.00 22.00 L 9.00 24.00 L 8.00 27.00 L 8.00 33.00 L 13.00 39.00 L 15.00 40.00 L 20.00 40.00 L 21.00 41.00 L 26.00 39.00 L 29.00 36.00 L 31.00 32.00 L 31.00 25.00 L 28.00 18.00 L 21.00 11.00 Z M 21.00 25.00 L 24.00 29.00 L 24.00 32.00 L 19.00 36.00 L 16.00 34.00 L 16.00 30.00 Z M 0.00 1.00 L 4.00 0.00 L 0.00 0.00 Z" fill="rgb(187,228,10)" opacity="0.360" fill-rule="evenodd"/>
<path d="M 17.00 9.00 L 16.00 10.00 L 15.00 10.00 L 15.00 11.00 L 17.00 14.00 L 17.00 16.00 L 15.00 18.00 L 14.00 17.00 L 12.00 17.00 L 12.00 21.00 L 10.00 23.00 L 10.00 24.00 L 8.00 27.00 L 8.00 33.00 L 9.00 34.00 L 9.00 35.00 L 13.00 39.00 L 14.00 39.00 L 15.00 40.00 L 24.00 40.00 L 26.00 38.00 L 27.00 38.00 L 28.00 37.00 L 28.00 36.00 L 30.00 34.00 L 30.00 32.00 L 31.00 31.00 L 31.00 26.00 L 30.00 25.00 L 30.00 22.00 L 29.00 21.00 L 29.00 20.00 L 27.00 18.00 L 27.00 17.00 L 21.00 11.00 L 20.00 11.00 Z M 21.00 25.00 L 23.00 27.00 L 23.00 28.00 L 24.00 29.00 L 24.00 32.00 L 22.00 35.00 L 21.00 35.00 L 20.00 36.00 L 18.00 36.00 L 16.00 34.00 L 15.00 31.00 L 19.00 27.00 L 19.00 26.00 L 20.00 25.00 Z" fill="rgb(187,228,11)" opacity="0.550" fill-rule="evenodd"/>
<path d="M 17.00 9.00 L 15.00 11.00 L 17.00 14.00 L 17.00 17.00 L 16.00 18.00 L 15.00 18.00 L 14.00 17.00 L 12.00 17.00 L 12.00 21.00 L 10.00 23.00 L 10.00 24.00 L 8.00 27.00 L 8.00 32.00 L 9.00 33.00 L 10.00 36.00 L 12.00 38.00 L 13.00 38.00 L 16.00 40.00 L 23.00 40.00 L 24.00 39.00 L 25.00 39.00 L 29.00 35.00 L 29.00 34.00 L 31.00 31.00 L 31.00 26.00 L 30.00 25.00 L 30.00 23.00 L 29.00 22.00 L 28.00 19.00 L 26.00 17.00 L 26.00 16.00 L 22.00 12.00 L 21.00 12.00 L 19.00 10.00 L 18.00 10.00 Z M 21.00 24.00 L 22.00 25.00 L 22.00 26.00 L 24.00 28.00 L 24.00 33.00 L 21.00 36.00 L 18.00 36.00 L 15.00 33.00 L 15.00 31.00 L 19.00 27.00 L 19.00 26.00 Z" fill="rgb(188,229,11)" opacity="0.780" fill-rule="evenodd"/>
<path d="M 16.00 10.00 L 16.00 12.00 L 17.00 13.00 L 17.00 17.00 L 15.00 19.00 L 14.00 18.00 L 14.00 17.00 L 13.00 17.00 L 12.00 18.00 L 12.00 22.00 L 9.00 25.00 L 9.00 27.00 L 8.00 28.00 L 8.00 32.00 L 12.00 38.00 L 13.00 38.00 L 16.00 40.00 L 23.00 40.00 L 24.00 39.00 L 25.00 39.00 L 29.00 35.00 L 29.00 34.00 L 30.00 33.00 L 30.00 31.00 L 31.00 30.00 L 31.00 27.00 L 30.00 26.00 L 30.00 23.00 L 29.00 22.00 L 28.00 19.00 L 25.00 16.00 L 25.00 15.00 L 22.00 12.00 L 21.00 12.00 L 18.00 10.00 Z M 21.00 24.00 L 23.00 26.00 L 23.00 27.00 L 24.00 28.00 L 24.00 33.00 L 21.00 36.00 L 18.00 36.00 L 15.00 33.00 L 15.00 31.00 L 16.00 30.00 L 16.00 29.00 L 17.00 28.00 L 18.00 28.00 L 19.00 27.00 L 19.00 26.00 Z" fill="rgb(188,229,11)" opacity="1.000" fill-rule="evenodd"/>
</svg>