<svg xmlns="http://www.w3.org/2000/svg" viewBox="0 0 54 46" width="54" height="46" shape-rendering="geometricPrecision">
<title>body_clock_card smooth contour vector</title>
<path d="M 0.00 2.00 L 0.00 4.00 L 3.00 6.00 L 2.00 11.00 L 5.00 16.00 L 5.00 18.00 L 8.00 21.00 L 9.00 19.00 L 10.00 20.00 L 10.00 30.00 L 9.00 33.00 L 11.00 32.00 L 12.00 33.00 L 11.00 35.00 L 12.00 36.00 L 13.00 35.00 L 16.00 38.00 L 22.00 41.00 L 29.00 41.00 L 34.00 39.00 L 40.00 33.00 L 41.00 34.00 L 45.00 32.00 L 44.00 28.00 L 43.00 29.00 L 42.00 28.00 L 41.00 20.00 L 42.00 19.00 L 43.00 21.00 L 46.00 19.00 L 48.00 19.00 L 49.00 16.00 L 45.00 14.00 L 39.00 16.00 L 36.00 13.00 L 37.00 12.00 L 39.00 13.00 L 41.00 11.00 L 44.00 11.00 L 51.00 4.00 L 53.00 5.00 L 53.00 3.00 L 51.00 1.00 L 53.00 0.00 L 51.00 1.00 L 49.00 0.00 L 4.00 0.00 Z M 19.00 35.00 L 20.00 34.00 L 22.00 35.00 L 21.00 36.00 Z M 11.00 35.00 L 12.00 34.00 L 13.00 35.00 L 12.00 36.00 Z M 17.00 34.00 L 18.00 33.00 L 20.00 34.00 L 19.00 35.00 Z M 33.00 33.00 L 34.00 32.00 L 35.00 33.00 L 34.00 34.00 Z M 40.00 32.00 L 41.00 31.00 L 42.00 33.00 L 41.00 34.00 Z M 16.00 32.00 L 17.00 31.00 L 18.00 33.00 L 17.00 34.00 Z M 34.00 31.00 L 35.00 30.00 L 36.00 32.00 L 35.00 33.00 Z M 34.00 34.00 L 30.00 37.00 L 22.00 37.00 L 21.00 36.00 L 22.00 35.00 L 28.00 35.00 L 24.00 35.00 L 23.00 34.00 L 25.00 31.00 L 28.00 30.00 L 32.00 31.00 L 33.00 32.00 L 32.00 33.00 Z M 9.00 31.00 L 10.00 30.00 L 11.00 32.00 L 10.00 33.00 Z M 15.00 30.00 L 16.00 29.00 L 17.00 31.00 L 16.00 32.00 Z M 42.00 28.00 L 43.00 29.00 L 42.00 32.00 L 41.00 31.00 Z M 35.00 29.00 L 36.00 28.00 L 37.00 30.00 L 36.00 31.00 Z M 25.00 29.00 L 26.00 28.00 L 30.00 28.00 L 31.00 29.00 L 30.00 30.00 L 26.00 30.00 Z M 30.00 28.00 L 31.00 27.00 L 33.00 28.00 L 32.00 29.00 Z M 23.00 28.00 L 24.00 27.00 L 25.00 28.00 L 24.00 29.00 Z M 22.00 26.00 L 23.00 25.00 L 24.00 27.00 L 23.00 28.00 Z M 33.00 25.00 L 34.00 24.00 L 35.00 26.00 L 34.00 27.00 Z M 37.00 22.00 L 38.00 23.00 L 38.00 27.00 L 37.00 28.00 L 36.00 27.00 L 36.00 23.00 Z M 30.00 23.00 L 31.00 22.00 L 32.00 23.00 L 31.00 24.00 Z M 27.00 23.00 L 28.00 22.00 L 29.00 23.00 L 28.00 24.00 Z M 22.00 22.00 L 23.00 23.00 L 22.00 26.00 L 21.00 25.00 Z M 15.00 20.00 L 16.00 21.00 L 16.00 25.00 L 17.00 23.00 L 19.00 25.00 L 19.00 28.00 L 18.00 29.00 L 16.00 28.00 L 15.00 30.00 L 13.00 26.00 Z M 36.00 19.00 L 37.00 20.00 L 36.00 23.00 L 35.00 22.00 Z M 15.00 19.00 L 16.00 18.00 L 17.00 20.00 L 16.00 21.00 Z M 9.00 19.00 L 10.00 18.00 L 11.00 19.00 L 10.00 20.00 Z M 16.00 18.00 L 17.00 17.00 L 18.00 18.00 L 17.00 19.00 Z M 17.00 17.00 L 18.00 16.00 L 19.00 17.00 L 18.00 18.00 Z M 40.00 15.00 L 42.00 17.00 L 41.00 20.00 L 39.00 17.00 Z M 18.00 16.00 L 19.00 15.00 L 21.00 16.00 L 20.00 17.00 Z M 20.00 15.00 L 21.00 14.00 L 31.00 14.00 L 34.00 16.00 L 36.00 19.00 L 35.00 20.00 L 33.00 18.00 L 31.00 19.00 L 30.00 18.00 L 31.00 17.00 L 29.00 16.00 L 29.00 21.00 L 28.00 22.00 L 27.00 21.00 L 27.00 16.00 L 24.00 16.00 L 23.00 17.00 Z M 12.00 14.00 L 13.00 13.00 L 14.00 14.00 L 13.00 15.00 Z M 13.00 13.00 L 14.00 12.00 L 15.00 13.00 L 14.00 14.00 Z M 35.00 12.00 L 36.00 11.00 L 37.00 12.00 L 36.00 13.00 Z M 33.00 11.00 L 34.00 10.00 L 35.00 11.00 L 34.00 12.00 Z M 17.00 10.00 L 18.00 11.00 L 15.00 13.00 L 14.00 12.00 Z M 31.00 10.00 L 32.00 9.00 L 33.00 10.00 L 32.00 11.00 Z M 17.00 10.00 L 18.00 9.00 L 20.00 10.00 L 19.00 11.00 Z M 14.00 10.00 L 15.00 9.00 L 16.00 10.00 L 15.00 11.00 Z M 28.00 9.00 L 29.00 8.00 L 30.00 9.00 L 29.00 10.00 Z M 20.00 9.00 L 21.00 8.00 L 24.00 9.00 L 23.00 10.00 Z M 1.00 4.00 L 2.00 3.00 L 3.00 4.00 L 2.00 5.00 Z" fill="rgb(49,58,9)" opacity="0.230" fill-rule="evenodd"/>
<path d="M 29.00 20.00 L 29.00 22.00 L 32.00 22.00 L 31.00 20.00 L 30.00 21.00 Z M 24.00 16.00 L 23.00 18.00 L 23.00 25.00 L 24.00 27.00 L 26.00 28.00 L 32.00 27.00 L 34.00 23.00 L 33.00 24.00 L 28.00 24.00 L 27.00 23.00 L 27.00 16.00 Z M 0.00 2.00 L 0.00 4.00 L 3.00 2.00 L 9.00 1.00 L 11.00 2.00 L 14.00 6.00 L 18.00 7.00 L 19.00 9.00 L 20.00 8.00 L 23.00 8.00 L 24.00 9.00 L 15.00 13.00 L 11.00 18.00 L 10.00 21.00 L 10.00 29.00 L 12.00 34.00 L 16.00 38.00 L 22.00 41.00 L 29.00 41.00 L 35.00 38.00 L 41.00 31.00 L 41.00 28.00 L 42.00 27.00 L 41.00 20.00 L 39.00 16.00 L 35.00 12.00 L 36.00 11.00 L 35.00 10.00 L 39.00 7.00 L 36.00 5.00 L 39.00 3.00 L 43.00 3.00 L 44.00 2.00 L 48.00 2.00 L 53.00 4.00 L 52.00 2.00 L 48.00 0.00 L 35.00 0.00 L 34.00 2.00 L 33.00 1.00 L 31.00 3.00 L 30.00 1.00 L 27.00 3.00 L 24.00 2.00 L 22.00 3.00 L 20.00 2.00 L 18.00 3.00 L 12.00 3.00 L 11.00 2.00 L 13.00 0.00 L 17.00 1.00 L 15.00 0.00 L 4.00 0.00 Z M 16.00 18.00 L 17.00 17.00 L 18.00 18.00 L 17.00 19.00 Z M 24.00 13.00 L 31.00 14.00 L 36.00 18.00 L 38.00 23.00 L 38.00 27.00 L 36.00 32.00 L 30.00 37.00 L 22.00 37.00 L 18.00 35.00 L 14.00 30.00 L 13.00 27.00 L 13.00 24.00 L 16.00 18.00 L 17.00 21.00 L 21.00 22.00 L 21.00 19.00 L 19.00 21.00 L 17.00 17.00 L 19.00 15.00 Z M 33.00 11.00 L 34.00 10.00 L 36.00 11.00 L 35.00 12.00 Z M 31.00 10.00 L 32.00 9.00 L 34.00 10.00 L 33.00 11.00 Z M 28.00 9.00 L 29.00 8.00 L 31.00 9.00 L 30.00 10.00 Z M 24.00 4.00 L 25.00 3.00 L 27.00 4.00 L 26.00 5.00 Z M 21.00 4.00 L 22.00 3.00 L 23.00 4.00 L 22.00 5.00 Z" fill="rgb(146,182,8)" opacity="0.360" fill-rule="evenodd"/>
<path d="M 24.00 16.00 L 24.00 23.00 L 23.00 24.00 L 24.00 25.00 L 24.00 26.00 L 25.00 27.00 L 32.00 27.00 L 33.00 26.00 L 33.00 25.00 L 32.00 24.00 L 28.00 24.00 L 27.00 23.00 L 27.00 17.00 L 26.00 16.00 Z M 26.00 9.00 L 25.00 10.00 L 21.00 10.00 L 20.00 11.00 L 17.00 12.00 L 15.00 14.00 L 14.00 14.00 L 13.00 15.00 L 13.00 16.00 L 11.00 19.00 L 11.00 21.00 L 10.00 22.00 L 10.00 29.00 L 11.00 30.00 L 11.00 32.00 L 13.00 34.00 L 13.00 35.00 L 18.00 39.00 L 19.00 39.00 L 20.00 40.00 L 23.00 40.00 L 24.00 41.00 L 27.00 41.00 L 28.00 40.00 L 31.00 40.00 L 32.00 39.00 L 35.00 38.00 L 39.00 34.00 L 39.00 33.00 L 41.00 30.00 L 41.00 20.00 L 40.00 19.00 L 39.00 16.00 L 36.00 13.00 L 35.00 13.00 L 33.00 11.00 L 31.00 11.00 L 30.00 10.00 L 27.00 10.00 Z M 20.00 14.00 L 22.00 14.00 L 23.00 13.00 L 29.00 13.00 L 30.00 14.00 L 33.00 15.00 L 36.00 18.00 L 36.00 19.00 L 38.00 22.00 L 38.00 28.00 L 37.00 29.00 L 37.00 31.00 L 32.00 36.00 L 31.00 36.00 L 30.00 37.00 L 21.00 37.00 L 20.00 36.00 L 19.00 36.00 L 15.00 32.00 L 15.00 31.00 L 14.00 30.00 L 14.00 28.00 L 13.00 27.00 L 13.00 23.00 L 14.00 22.00 L 14.00 20.00 Z M 43.00 0.00 L 45.00 0.00 L 46.00 1.00 L 48.00 1.00 L 51.00 3.00 L 53.00 3.00 L 52.00 3.00 L 47.00 0.00 Z M 9.00 0.00 L 5.00 0.00 L 0.00 3.00 L 1.00 2.00 L 3.00 2.00 L 4.00 1.00 L 6.00 1.00 L 7.00 0.00 Z" fill="rgb(175,215,9)" opacity="0.550" fill-rule="evenodd"/>
<path d="M 24.00 16.00 L 24.00 26.00 L 25.00 27.00 L 31.00 27.00 L 32.00 26.00 L 32.00 24.00 L 28.00 24.00 L 27.00 23.00 L 27.00 17.00 L 26.00 16.00 Z M 19.00 11.00 L 18.00 12.00 L 17.00 12.00 L 12.00 17.00 L 12.00 18.00 L 11.00 19.00 L 11.00 22.00 L 10.00 23.00 L 10.00 28.00 L 11.00 29.00 L 11.00 31.00 L 12.00 32.00 L 12.00 33.00 L 14.00 35.00 L 14.00 36.00 L 15.00 37.00 L 16.00 37.00 L 18.00 39.00 L 20.00 39.00 L 21.00 40.00 L 31.00 40.00 L 32.00 39.00 L 33.00 39.00 L 35.00 37.00 L 36.00 37.00 L 39.00 34.00 L 39.00 33.00 L 41.00 30.00 L 41.00 21.00 L 40.00 20.00 L 40.00 18.00 L 36.00 13.00 L 35.00 13.00 L 30.00 10.00 L 22.00 10.00 L 21.00 11.00 Z M 17.00 16.00 L 18.00 16.00 L 20.00 14.00 L 21.00 14.00 L 22.00 13.00 L 29.00 13.00 L 30.00 14.00 L 33.00 15.00 L 37.00 19.00 L 37.00 21.00 L 38.00 22.00 L 38.00 28.00 L 37.00 29.00 L 37.00 31.00 L 36.00 32.00 L 36.00 33.00 L 34.00 35.00 L 33.00 35.00 L 30.00 37.00 L 21.00 37.00 L 20.00 36.00 L 19.00 36.00 L 15.00 32.00 L 15.00 31.00 L 13.00 28.00 L 13.00 22.00 Z" fill="rgb(177,216,10)" opacity="0.780" fill-rule="evenodd"/>
<path d="M 25.00 16.00 L 24.00 17.00 L 24.00 26.00 L 25.00 27.00 L 31.00 27.00 L 32.00 26.00 L 32.00 24.00 L 28.00 24.00 L 27.00 23.00 L 27.00 18.00 L 26.00 17.00 L 26.00 16.00 Z M 22.00 10.00 L 21.00 11.00 L 19.00 11.00 L 17.00 13.00 L 16.00 13.00 L 12.00 17.00 L 12.00 18.00 L 11.00 19.00 L 11.00 23.00 L 10.00 24.00 L 10.00 27.00 L 11.00 28.00 L 11.00 31.00 L 12.00 32.00 L 12.00 33.00 L 17.00 38.00 L 18.00 38.00 L 21.00 40.00 L 30.00 40.00 L 31.00 39.00 L 34.00 38.00 L 36.00 36.00 L 37.00 36.00 L 38.00 35.00 L 38.00 34.00 L 40.00 32.00 L 40.00 30.00 L 41.00 29.00 L 41.00 21.00 L 40.00 20.00 L 39.00 17.00 L 37.00 15.00 L 37.00 14.00 L 36.00 14.00 L 34.00 12.00 L 33.00 12.00 L 30.00 10.00 Z M 22.00 13.00 L 30.00 13.00 L 31.00 14.00 L 32.00 14.00 L 37.00 19.00 L 37.00 20.00 L 38.00 21.00 L 38.00 29.00 L 37.00 30.00 L 36.00 33.00 L 31.00 37.00 L 28.00 37.00 L 27.00 38.00 L 25.00 38.00 L 24.00 37.00 L 21.00 37.00 L 20.00 36.00 L 19.00 36.00 L 14.00 31.00 L 14.00 30.00 L 13.00 29.00 L 13.00 22.00 L 14.00 21.00 L 15.00 18.00 L 18.00 15.00 L 19.00 15.00 Z" fill="rgb(178,218,10)" opacity="1.000" fill-rule="evenodd"/>
</svg>