<svg xmlns="http://www.w3.org/2000/svg" viewBox="0 0 49 57" width="49" height="57" shape-rendering="geometricPrecision">
<title>common_lightbulb_advantage smooth contour vector</title>
<path d="M 10.00 33.00 L 7.00 34.00 L 8.00 37.00 L 11.00 35.00 Z M 39.00 29.00 L 39.00 30.00 L 42.00 30.00 L 42.00 29.00 Z M 8.00 27.00 L 5.00 28.00 L 5.00 30.00 L 7.00 30.00 Z M 39.00 22.00 L 39.00 25.00 L 43.00 25.00 L 44.00 24.00 L 43.00 22.00 Z M 38.00 14.00 L 37.00 17.00 L 38.00 19.00 L 40.00 19.00 L 38.00 18.00 L 41.00 16.00 L 41.00 14.00 Z M 7.00 13.00 L 6.00 16.00 L 9.00 17.00 L 10.00 16.00 Z M 35.00 8.00 L 32.00 7.00 L 31.00 11.00 L 33.00 11.00 Z M 12.00 7.00 L 11.00 9.00 L 17.00 12.00 L 12.00 16.00 L 10.00 20.00 L 7.00 19.00 L 8.00 20.00 L 7.00 22.00 L 2.00 22.00 L 2.00 25.00 L 8.00 25.00 L 8.00 20.00 L 9.00 19.00 L 10.00 20.00 L 10.00 29.00 L 16.00 37.00 L 16.00 43.00 L 18.00 44.00 L 16.00 45.00 L 16.00 47.00 L 17.00 47.00 L 21.00 52.00 L 25.00 52.00 L 27.00 51.00 L 28.00 48.00 L 30.00 47.00 L 29.00 44.00 L 30.00 43.00 L 30.00 37.00 L 34.00 33.00 L 38.00 37.00 L 40.00 35.00 L 40.00 34.00 L 36.00 31.00 L 36.00 19.00 L 31.00 13.00 L 26.00 11.00 L 19.00 11.00 L 17.00 12.00 L 15.00 8.00 Z M 23.00 48.00 L 24.00 47.00 L 25.00 48.00 L 24.00 49.00 Z M 21.00 48.00 L 22.00 47.00 L 23.00 48.00 L 22.00 49.00 Z M 14.00 20.00 L 15.00 21.00 L 15.00 24.00 L 14.00 25.00 L 13.00 24.00 L 13.00 21.00 Z M 18.00 16.00 L 19.00 17.00 L 15.00 21.00 L 14.00 19.00 Z M 18.00 16.00 L 19.00 15.00 L 21.00 16.00 L 20.00 17.00 Z M 21.00 14.00 L 28.00 15.00 L 30.00 17.00 L 29.00 18.00 L 30.00 17.00 L 34.00 22.00 L 34.00 26.00 L 32.00 30.00 L 28.00 34.00 L 26.00 40.00 L 20.00 40.00 L 18.00 37.00 L 17.00 33.00 L 14.00 30.00 L 15.00 28.00 L 16.00 29.00 L 16.00 24.00 L 17.00 22.00 L 21.00 18.00 L 20.00 15.00 Z M 22.00 4.00 L 22.00 8.00 L 24.00 9.00 L 24.00 4.00 Z" fill="rgb(208,192,14)" opacity="0.230" fill-rule="evenodd"/>
<path d="M 10.00 33.00 L 7.00 34.00 L 8.00 37.00 L 11.00 35.00 Z M 39.00 29.00 L 39.00 30.00 L 42.00 30.00 Z M 7.00 29.00 L 6.00 28.00 L 5.00 30.00 Z M 39.00 23.00 L 40.00 25.00 L 43.00 25.00 L 44.00 24.00 L 43.00 22.00 L 40.00 22.00 Z M 2.00 22.00 L 2.00 25.00 L 7.00 25.00 L 8.00 24.00 L 7.00 22.00 Z M 37.00 15.00 L 37.00 17.00 L 41.00 16.00 L 41.00 14.00 L 38.00 14.00 Z M 7.00 13.00 L 6.00 16.00 L 9.00 17.00 L 10.00 16.00 Z M 19.00 11.00 L 15.00 13.00 L 12.00 16.00 L 10.00 20.00 L 10.00 28.00 L 11.00 31.00 L 16.00 37.00 L 16.00 43.00 L 18.00 44.00 L 16.00 45.00 L 16.00 47.00 L 17.00 47.00 L 21.00 52.00 L 25.00 52.00 L 27.00 51.00 L 28.00 48.00 L 30.00 47.00 L 29.00 44.00 L 30.00 42.00 L 30.00 37.00 L 34.00 33.00 L 37.00 36.00 L 39.00 36.00 L 40.00 34.00 L 34.00 32.00 L 36.00 29.00 L 36.00 20.00 L 35.00 17.00 L 29.00 12.00 L 26.00 11.00 Z M 21.00 48.00 L 22.00 47.00 L 25.00 48.00 L 24.00 49.00 Z M 21.00 14.00 L 26.00 14.00 L 28.00 15.00 L 34.00 22.00 L 34.00 26.00 L 32.00 30.00 L 28.00 34.00 L 28.00 39.00 L 27.00 40.00 L 20.00 40.00 L 18.00 38.00 L 18.00 35.00 L 13.00 28.00 L 13.00 21.00 L 14.00 20.00 L 15.00 21.00 L 15.00 27.00 L 17.00 22.00 L 21.00 17.00 L 19.00 17.00 L 15.00 21.00 L 14.00 19.00 L 18.00 15.00 Z M 35.00 8.00 L 32.00 7.00 L 31.00 11.00 L 33.00 11.00 Z M 12.00 7.00 L 11.00 8.00 L 15.00 11.00 L 16.00 10.00 L 15.00 8.00 Z M 24.00 4.00 L 22.00 4.00 L 22.00 8.00 L 23.00 9.00 L 24.00 8.00 Z" fill="rgb(214,201,14)" opacity="0.360" fill-rule="evenodd"/>
<path d="M 16.00 45.00 L 16.00 46.00 L 18.00 48.00 L 18.00 49.00 L 20.00 51.00 L 21.00 51.00 L 22.00 52.00 L 24.00 52.00 L 25.00 51.00 L 26.00 51.00 L 28.00 49.00 L 28.00 48.00 L 29.00 47.00 L 30.00 47.00 L 30.00 45.00 Z M 21.00 48.00 L 22.00 47.00 L 24.00 47.00 L 25.00 48.00 L 24.00 49.00 L 22.00 49.00 Z M 35.00 34.00 L 37.00 36.00 L 39.00 36.00 L 39.00 34.00 L 38.00 33.00 L 36.00 33.00 Z M 11.00 34.00 L 10.00 33.00 L 9.00 33.00 L 8.00 34.00 L 7.00 34.00 L 7.00 36.00 L 9.00 36.00 Z M 39.00 29.00 L 40.00 30.00 L 41.00 30.00 L 41.00 29.00 Z M 5.00 29.00 L 5.00 30.00 L 6.00 30.00 L 6.00 29.00 Z M 39.00 24.00 L 40.00 25.00 L 42.00 25.00 L 44.00 23.00 L 43.00 22.00 L 40.00 22.00 L 39.00 23.00 Z M 2.00 22.00 L 2.00 24.00 L 3.00 25.00 L 7.00 25.00 L 7.00 22.00 Z M 21.00 17.00 L 19.00 17.00 L 16.00 20.00 L 16.00 21.00 L 15.00 22.00 L 15.00 26.00 L 16.00 25.00 L 16.00 23.00 L 17.00 22.00 L 17.00 21.00 L 19.00 19.00 L 20.00 19.00 L 21.00 18.00 Z M 41.00 15.00 L 40.00 14.00 L 39.00 14.00 L 38.00 15.00 L 37.00 15.00 L 37.00 17.00 L 39.00 17.00 L 40.00 16.00 L 41.00 16.00 Z M 6.00 14.00 L 6.00 16.00 L 9.00 17.00 L 9.00 15.00 L 8.00 14.00 Z M 20.00 11.00 L 13.00 15.00 L 13.00 16.00 L 10.00 21.00 L 10.00 28.00 L 11.00 29.00 L 12.00 32.00 L 15.00 35.00 L 15.00 36.00 L 16.00 37.00 L 16.00 42.00 L 17.00 43.00 L 29.00 43.00 L 30.00 42.00 L 30.00 36.00 L 35.00 31.00 L 35.00 29.00 L 36.00 28.00 L 36.00 20.00 L 35.00 19.00 L 34.00 16.00 L 32.00 14.00 L 31.00 14.00 L 28.00 12.00 L 26.00 12.00 L 25.00 11.00 Z M 20.00 14.00 L 26.00 14.00 L 27.00 15.00 L 30.00 16.00 L 32.00 18.00 L 32.00 19.00 L 34.00 22.00 L 34.00 26.00 L 33.00 27.00 L 33.00 29.00 L 29.00 33.00 L 29.00 34.00 L 28.00 35.00 L 28.00 39.00 L 27.00 40.00 L 19.00 40.00 L 18.00 39.00 L 18.00 35.00 L 14.00 30.00 L 14.00 29.00 L 13.00 28.00 L 13.00 26.00 L 12.00 25.00 L 12.00 24.00 L 13.00 23.00 L 13.00 20.00 L 18.00 15.00 L 19.00 15.00 Z M 35.00 8.00 L 34.00 7.00 L 33.00 7.00 L 31.00 9.00 L 31.00 11.00 L 33.00 11.00 L 33.00 10.00 Z M 12.00 7.00 L 12.00 9.00 L 14.00 11.00 L 15.00 11.00 L 15.00 9.00 L 14.00 8.00 L 14.00 7.00 Z M 24.00 4.00 L 23.00 4.00 L 22.00 5.00 L 22.00 8.00 L 23.00 9.00 L 24.00 8.00 Z" fill="rgb(224,210,15)" opacity="0.550" fill-rule="evenodd"/>
<path d="M 16.00 45.00 L 16.00 46.00 L 19.00 49.00 L 19.00 50.00 L 20.00 51.00 L 26.00 51.00 L 30.00 46.00 L 30.00 45.00 Z M 20.00 48.00 L 21.00 47.00 L 24.00 47.00 L 25.00 48.00 L 24.00 49.00 L 21.00 49.00 Z M 36.00 33.00 L 36.00 35.00 L 37.00 36.00 L 39.00 36.00 L 39.00 34.00 Z M 10.00 33.00 L 7.00 34.00 L 7.00 36.00 L 9.00 36.00 L 10.00 35.00 Z M 40.00 29.00 L 40.00 30.00 L 41.00 30.00 L 41.00 29.00 Z M 39.00 23.00 L 39.00 24.00 L 40.00 24.00 L 41.00 25.00 L 42.00 25.00 L 44.00 23.00 L 43.00 23.00 L 42.00 22.00 Z M 2.00 23.00 L 2.00 24.00 L 3.00 25.00 L 6.00 25.00 L 7.00 24.00 L 7.00 22.00 L 3.00 22.00 Z M 20.00 17.00 L 19.00 17.00 L 16.00 20.00 L 16.00 21.00 L 15.00 22.00 L 15.00 25.00 L 16.00 24.00 L 17.00 21.00 L 20.00 18.00 Z M 41.00 15.00 L 40.00 14.00 L 39.00 14.00 L 37.00 16.00 L 37.00 17.00 L 39.00 17.00 L 40.00 16.00 L 41.00 16.00 Z M 6.00 14.00 L 6.00 16.00 L 7.00 16.00 L 8.00 17.00 L 9.00 16.00 L 9.00 15.00 L 8.00 14.00 Z M 28.00 12.00 L 24.00 12.00 L 23.00 11.00 L 22.00 11.00 L 21.00 12.00 L 18.00 12.00 L 17.00 13.00 L 16.00 13.00 L 12.00 17.00 L 12.00 18.00 L 10.00 21.00 L 10.00 28.00 L 11.00 29.00 L 12.00 32.00 L 16.00 36.00 L 16.00 42.00 L 17.00 43.00 L 23.00 43.00 L 24.00 42.00 L 30.00 42.00 L 30.00 36.00 L 34.00 32.00 L 34.00 31.00 L 36.00 28.00 L 36.00 21.00 L 35.00 20.00 L 35.00 18.00 L 33.00 16.00 L 33.00 15.00 L 32.00 15.00 L 30.00 13.00 L 29.00 13.00 Z M 20.00 14.00 L 27.00 14.00 L 32.00 18.00 L 32.00 19.00 L 34.00 22.00 L 34.00 27.00 L 33.00 28.00 L 33.00 29.00 L 31.00 31.00 L 31.00 32.00 L 28.00 35.00 L 28.00 39.00 L 27.00 40.00 L 19.00 40.00 L 18.00 39.00 L 18.00 36.00 L 17.00 35.00 L 17.00 34.00 L 15.00 32.00 L 15.00 31.00 L 13.00 29.00 L 13.00 27.00 L 12.00 26.00 L 12.00 23.00 L 13.00 22.00 L 13.00 20.00 L 18.00 15.00 L 19.00 15.00 Z M 33.00 7.00 L 31.00 9.00 L 31.00 10.00 L 32.00 11.00 L 34.00 9.00 L 34.00 8.00 Z M 13.00 7.00 L 12.00 8.00 L 12.00 9.00 L 15.00 11.00 L 15.00 9.00 Z M 23.00 4.00 L 22.00 5.00 L 22.00 8.00 L 24.00 8.00 L 24.00 5.00 Z" fill="rgb(229,216,15)" opacity="0.780" fill-rule="evenodd"/>
<path d="M 16.00 46.00 L 19.00 48.00 L 19.00 50.00 L 20.00 51.00 L 26.00 51.00 L 27.00 50.00 L 27.00 48.00 L 30.00 46.00 L 29.00 45.00 L 17.00 45.00 Z M 20.00 48.00 L 21.00 47.00 L 25.00 47.00 L 26.00 48.00 L 25.00 49.00 L 21.00 49.00 Z M 36.00 33.00 L 36.00 34.00 L 38.00 36.00 L 39.00 36.00 L 39.00 34.00 Z M 10.00 34.00 L 9.00 33.00 L 7.00 35.00 L 7.00 36.00 L 9.00 36.00 L 10.00 35.00 Z M 40.00 29.00 L 40.00 30.00 L 41.00 30.00 L 41.00 29.00 Z M 39.00 24.00 L 43.00 24.00 L 43.00 23.00 L 40.00 23.00 Z M 2.00 23.00 L 2.00 24.00 L 7.00 24.00 L 7.00 23.00 L 6.00 22.00 L 3.00 22.00 Z M 20.00 17.00 L 17.00 19.00 L 15.00 24.00 L 16.00 23.00 L 16.00 22.00 L 20.00 18.00 Z M 41.00 15.00 L 40.00 14.00 L 39.00 14.00 L 37.00 16.00 L 38.00 17.00 L 39.00 17.00 Z M 6.00 14.00 L 6.00 15.00 L 7.00 16.00 L 9.00 16.00 L 7.00 14.00 Z M 18.00 12.00 L 17.00 13.00 L 16.00 13.00 L 12.00 17.00 L 12.00 18.00 L 11.00 19.00 L 11.00 21.00 L 10.00 22.00 L 10.00 27.00 L 11.00 28.00 L 11.00 30.00 L 13.00 32.00 L 13.00 33.00 L 16.00 36.00 L 16.00 42.00 L 17.00 42.00 L 18.00 43.00 L 19.00 42.00 L 30.00 42.00 L 30.00 36.00 L 34.00 32.00 L 34.00 31.00 L 35.00 30.00 L 35.00 28.00 L 36.00 27.00 L 36.00 21.00 L 35.00 20.00 L 34.00 17.00 L 30.00 13.00 L 29.00 13.00 L 28.00 12.00 Z M 19.00 14.00 L 27.00 14.00 L 28.00 15.00 L 29.00 15.00 L 33.00 19.00 L 33.00 20.00 L 34.00 21.00 L 34.00 27.00 L 33.00 28.00 L 32.00 31.00 L 28.00 35.00 L 28.00 39.00 L 26.00 41.00 L 25.00 40.00 L 19.00 40.00 L 18.00 39.00 L 18.00 36.00 L 17.00 35.00 L 17.00 34.00 L 14.00 31.00 L 14.00 30.00 L 12.00 27.00 L 12.00 22.00 L 13.00 21.00 L 14.00 18.00 Z M 34.00 8.00 L 32.00 8.00 L 31.00 9.00 L 31.00 10.00 L 32.00 11.00 L 34.00 9.00 Z M 13.00 7.00 L 12.00 8.00 L 12.00 9.00 L 15.00 10.00 L 15.00 9.00 Z M 23.00 4.00 L 22.00 5.00 L 22.00 7.00 L 23.00 8.00 L 24.00 8.00 L 24.00 5.00 Z" fill="rgb(236,223,16)" opacity="1.000" fill-rule="evenodd"/>
</svg>