<svg xmlns="http://www.w3.org/2000/svg" viewBox="0 0 68 76" width="68" height="76" shape-rendering="geometricPrecision">
<title>action_runner_button smooth contour vector</title>
<path d="M 0.00 0.00 L 0.00 74.00 L 17.00 74.00 L 18.00 75.00 L 31.00 75.00 L 32.00 74.00 L 67.00 74.00 L 67.00 27.00 L 66.00 26.00 L 67.00 24.00 L 67.00 0.00 Z M 26.00 72.00 L 27.00 71.00 L 37.00 71.00 L 38.00 72.00 L 37.00 73.00 L 27.00 73.00 Z M 24.00 60.00 L 25.00 59.00 L 28.00 60.00 L 27.00 61.00 Z M 27.00 59.00 L 28.00 58.00 L 29.00 59.00 L 28.00 60.00 Z M 22.00 59.00 L 23.00 58.00 L 24.00 59.00 L 23.00 60.00 Z M 28.00 58.00 L 29.00 57.00 L 30.00 58.00 L 29.00 59.00 Z M 29.00 57.00 L 30.00 56.00 L 31.00 57.00 L 30.00 58.00 Z M 7.00 57.00 L 8.00 56.00 L 9.00 57.00 L 8.00 58.00 Z M 9.00 56.00 L 10.00 55.00 L 11.00 56.00 L 10.00 57.00 Z M 30.00 55.00 L 31.00 54.00 L 32.00 55.00 L 31.00 56.00 Z M 11.00 55.00 L 12.00 54.00 L 14.00 55.00 L 13.00 56.00 Z M 31.00 54.00 L 32.00 53.00 L 33.00 54.00 L 32.00 55.00 Z M 23.00 53.00 L 24.00 55.00 L 22.00 59.00 L 21.00 58.00 L 21.00 55.00 Z M 13.00 54.00 L 14.00 53.00 L 16.00 54.00 L 15.00 55.00 Z M 23.00 53.00 L 24.00 52.00 L 25.00 53.00 L 24.00 54.00 Z M 15.00 53.00 L 16.00 52.00 L 18.00 53.00 L 17.00 54.00 Z M 17.00 52.00 L 18.00 51.00 L 19.00 52.00 L 18.00 53.00 Z M 4.00 52.00 L 5.00 51.00 L 6.00 53.00 L 5.00 54.00 Z M 33.00 51.00 L 34.00 50.00 L 35.00 51.00 L 34.00 52.00 Z M 18.00 51.00 L 19.00 50.00 L 20.00 51.00 L 19.00 52.00 Z M 34.00 50.00 L 35.00 49.00 L 36.00 50.00 L 35.00 51.00 Z M 6.00 50.00 L 7.00 49.00 L 8.00 50.00 L 7.00 51.00 Z M 7.00 49.00 L 8.00 48.00 L 10.00 49.00 L 9.00 50.00 Z M 9.00 48.00 L 10.00 47.00 L 12.00 48.00 L 11.00 49.00 Z M 11.00 47.00 L 12.00 46.00 L 13.00 47.00 L 12.00 48.00 Z M 22.00 45.00 L 23.00 44.00 L 24.00 45.00 L 23.00 46.00 Z M 37.00 43.00 L 39.00 46.00 L 36.00 50.00 L 35.00 48.00 Z M 35.00 43.00 L 36.00 42.00 L 37.00 43.00 L 36.00 44.00 Z M 34.00 42.00 L 35.00 41.00 L 36.00 42.00 L 35.00 43.00 Z M 32.00 41.00 L 33.00 40.00 L 35.00 41.00 L 34.00 42.00 Z M 30.00 40.00 L 31.00 39.00 L 33.00 40.00 L 32.00 41.00 Z M 28.00 38.00 L 29.00 37.00 L 31.00 39.00 L 29.00 40.00 Z M 16.00 38.00 L 17.00 37.00 L 18.00 39.00 L 17.00 40.00 Z M 29.00 37.00 L 30.00 36.00 L 31.00 37.00 L 30.00 38.00 Z M 17.00 36.00 L 18.00 35.00 L 19.00 37.00 L 18.00 38.00 Z M 37.00 35.00 L 38.00 34.00 L 39.00 35.00 L 38.00 36.00 Z M 30.00 35.00 L 31.00 34.00 L 32.00 35.00 L 31.00 36.00 Z M 39.00 34.00 L 40.00 33.00 L 41.00 34.00 L 40.00 35.00 Z M 15.00 34.00 L 16.00 33.00 L 18.00 34.00 L 17.00 35.00 Z M 13.00 33.00 L 14.00 32.00 L 15.00 33.00 L 14.00 34.00 Z M 11.00 30.00 L 12.00 29.00 L 13.00 30.00 L 12.00 31.00 Z M 48.00 28.00 L 49.00 27.00 L 50.00 29.00 L 49.00 30.00 Z M 12.00 28.00 L 13.00 27.00 L 14.00 28.00 L 13.00 29.00 Z M 22.00 26.00 L 23.00 28.00 L 19.00 36.00 L 17.00 33.00 Z M 13.00 26.00 L 14.00 25.00 L 15.00 27.00 L 14.00 28.00 Z M 14.00 25.00 L 15.00 24.00 L 16.00 25.00 L 15.00 26.00 Z M 34.00 25.00 L 37.00 23.00 L 39.00 24.00 L 42.00 23.00 L 43.00 24.00 L 38.00 28.00 Z M 43.00 22.00 L 45.00 22.00 L 49.00 27.00 L 48.00 28.00 L 49.00 30.00 L 45.00 34.00 L 43.00 33.00 L 41.00 34.00 L 40.00 33.00 L 46.00 28.00 L 46.00 26.00 L 42.00 23.00 Z M 32.00 23.00 L 34.00 22.00 L 35.00 24.00 L 34.00 25.00 Z M 40.00 22.00 L 41.00 21.00 L 42.00 22.00 L 41.00 23.00 Z M 38.00 22.00 L 39.00 21.00 L 41.00 23.00 L 39.00 24.00 Z M 30.00 22.00 L 31.00 21.00 L 32.00 22.00 L 31.00 23.00 Z M 28.00 21.00 L 29.00 20.00 L 31.00 21.00 L 30.00 22.00 Z M 37.00 19.00 L 38.00 21.00 L 35.00 23.00 L 34.00 22.00 Z M 25.00 20.00 L 28.00 18.00 L 29.00 19.00 L 28.00 21.00 Z M 37.00 18.00 L 38.00 17.00 L 39.00 19.00 L 38.00 20.00 Z M 27.00 15.00 L 28.00 16.00 L 27.00 19.00 L 26.00 18.00 Z M 27.00 14.00 L 28.00 13.00 L 29.00 15.00 L 28.00 16.00 Z M 34.00 12.00 L 35.00 11.00 L 36.00 12.00 L 35.00 13.00 Z M 29.00 12.00 L 30.00 11.00 L 32.00 12.00 L 31.00 13.00 Z M 31.00 11.00 L 32.00 10.00 L 34.00 11.00 L 33.00 12.00 Z" fill="rgb(22,27,1)" opacity="0.230" fill-rule="evenodd"/>
<path d="M 65.00 70.00 L 65.00 71.00 L 67.00 71.00 L 67.00 70.00 Z M 67.00 47.00 L 66.00 47.00 L 67.00 48.00 L 66.00 49.00 Z M 2.00 0.00 L 6.00 0.00 L 7.00 1.00 L 6.00 2.00 L 1.00 2.00 L 0.00 3.00 L 0.00 74.00 L 23.00 74.00 L 24.00 75.00 L 26.00 74.00 L 67.00 74.00 L 67.00 73.00 L 23.00 73.00 L 22.00 72.00 L 23.00 71.00 L 54.00 71.00 L 52.00 70.00 L 50.00 71.00 L 49.00 69.00 L 52.00 67.00 L 54.00 68.00 L 53.00 67.00 L 54.00 65.00 L 56.00 66.00 L 57.00 68.00 L 66.00 68.00 L 65.00 66.00 L 66.00 63.00 L 65.00 62.00 L 67.00 61.00 L 67.00 58.00 L 65.00 57.00 L 66.00 56.00 L 65.00 54.00 L 67.00 53.00 L 67.00 51.00 L 66.00 51.00 L 66.00 53.00 L 64.00 55.00 L 63.00 54.00 L 60.00 55.00 L 59.00 54.00 L 60.00 51.00 L 56.00 48.00 L 56.00 45.00 L 60.00 42.00 L 63.00 43.00 L 62.00 42.00 L 63.00 40.00 L 67.00 40.00 L 67.00 29.00 L 63.00 29.00 L 59.00 26.00 L 61.00 23.00 L 64.00 23.00 L 65.00 21.00 L 67.00 21.00 L 67.00 17.00 L 64.00 16.00 L 66.00 13.00 L 65.00 10.00 L 66.00 9.00 L 65.00 8.00 L 67.00 6.00 L 67.00 2.00 L 65.00 2.00 L 65.00 3.00 L 63.00 4.00 L 61.00 2.00 L 54.00 2.00 L 53.00 1.00 L 55.00 0.00 Z M 20.00 72.00 L 21.00 71.00 L 22.00 72.00 L 21.00 73.00 Z M 47.00 67.00 L 49.00 66.00 L 50.00 68.00 L 49.00 69.00 Z M 56.00 66.00 L 57.00 65.00 L 58.00 66.00 L 57.00 67.00 Z M 49.00 66.00 L 50.00 63.00 L 53.00 63.00 L 54.00 65.00 L 51.00 67.00 Z M 59.00 61.00 L 62.00 62.00 L 62.00 66.00 L 61.00 67.00 L 58.00 65.00 L 59.00 64.00 L 58.00 62.00 Z M 45.00 63.00 L 47.00 61.00 L 49.00 63.00 L 48.00 64.00 Z M 39.00 62.00 L 41.00 61.00 L 43.00 63.00 L 41.00 64.00 Z M 43.00 60.00 L 44.00 59.00 L 45.00 60.00 L 44.00 61.00 Z M 24.00 60.00 L 25.00 59.00 L 28.00 60.00 L 27.00 61.00 Z M 22.00 59.00 L 23.00 58.00 L 24.00 59.00 L 23.00 60.00 Z M 63.00 58.00 L 64.00 57.00 L 66.00 58.00 L 65.00 59.00 Z M 29.00 57.00 L 30.00 59.00 L 28.00 60.00 L 27.00 59.00 Z M 29.00 57.00 L 30.00 56.00 L 31.00 57.00 L 30.00 58.00 Z M 7.00 57.00 L 8.00 56.00 L 10.00 57.00 L 9.00 58.00 Z M 9.00 56.00 L 10.00 55.00 L 12.00 56.00 L 11.00 57.00 Z M 30.00 55.00 L 31.00 54.00 L 32.00 55.00 L 31.00 56.00 Z M 11.00 55.00 L 12.00 54.00 L 14.00 55.00 L 13.00 56.00 Z M 5.00 55.00 L 6.00 54.00 L 8.00 56.00 L 6.00 57.00 Z M 31.00 54.00 L 32.00 53.00 L 33.00 54.00 L 32.00 55.00 Z M 23.00 53.00 L 24.00 55.00 L 22.00 59.00 L 21.00 58.00 L 21.00 55.00 Z M 19.00 53.00 L 21.00 55.00 L 20.00 58.00 L 19.00 58.00 L 17.00 55.00 Z M 23.00 53.00 L 24.00 52.00 L 25.00 53.00 L 24.00 54.00 Z M 19.00 53.00 L 16.00 55.00 L 13.00 54.00 L 18.00 51.00 Z M 5.00 51.00 L 6.00 52.00 L 5.00 55.00 L 4.00 54.00 Z M 33.00 51.00 L 34.00 50.00 L 35.00 51.00 L 34.00 52.00 Z M 18.00 51.00 L 19.00 50.00 L 20.00 51.00 L 19.00 52.00 Z M 5.00 50.00 L 6.00 49.00 L 8.00 50.00 L 7.00 51.00 Z M 7.00 49.00 L 8.00 48.00 L 10.00 49.00 L 9.00 50.00 Z M 9.00 48.00 L 10.00 47.00 L 12.00 48.00 L 11.00 49.00 Z M 26.00 47.00 L 27.00 46.00 L 28.00 47.00 L 27.00 48.00 Z M 11.00 47.00 L 12.00 46.00 L 14.00 47.00 L 13.00 48.00 Z M 13.00 46.00 L 14.00 45.00 L 15.00 46.00 L 14.00 47.00 Z M 22.00 45.00 L 23.00 44.00 L 24.00 45.00 L 23.00 46.00 Z M 34.00 42.00 L 36.00 41.00 L 40.00 47.00 L 41.00 46.00 L 43.00 47.00 L 38.00 51.00 L 35.00 51.00 L 34.00 50.00 L 36.00 47.00 L 36.00 44.00 Z M 32.00 41.00 L 33.00 40.00 L 35.00 41.00 L 34.00 42.00 Z M 15.00 41.00 L 16.00 40.00 L 17.00 41.00 L 16.00 42.00 Z M 28.00 38.00 L 29.00 37.00 L 33.00 40.00 L 31.00 41.00 L 29.00 40.00 Z M 17.00 37.00 L 18.00 38.00 L 17.00 41.00 L 16.00 40.00 Z M 29.00 37.00 L 30.00 36.00 L 31.00 37.00 L 30.00 38.00 Z M 36.00 35.00 L 37.00 34.00 L 40.00 35.00 L 39.00 36.00 Z M 30.00 35.00 L 31.00 34.00 L 32.00 35.00 L 31.00 36.00 Z M 13.00 33.00 L 14.00 32.00 L 15.00 33.00 L 14.00 34.00 Z M 11.00 30.00 L 12.00 29.00 L 13.00 31.00 L 12.00 32.00 Z M 12.00 28.00 L 13.00 27.00 L 14.00 29.00 L 13.00 30.00 Z M 22.00 26.00 L 23.00 28.00 L 18.00 38.00 L 17.00 35.00 L 15.00 34.00 L 18.00 32.00 Z M 13.00 26.00 L 14.00 25.00 L 15.00 27.00 L 14.00 28.00 Z M 14.00 24.00 L 15.00 23.00 L 16.00 25.00 L 15.00 26.00 Z M 30.00 22.00 L 31.00 21.00 L 33.00 22.00 L 32.00 23.00 Z M 19.00 20.00 L 20.00 19.00 L 22.00 20.00 L 21.00 21.00 Z M 31.00 21.00 L 29.00 22.00 L 28.00 21.00 L 23.00 21.00 L 22.00 20.00 L 28.00 18.00 Z M 38.00 17.00 L 40.00 21.00 L 42.00 20.00 L 43.00 22.00 L 46.00 23.00 L 47.00 22.00 L 49.00 26.00 L 52.00 26.00 L 53.00 27.00 L 50.00 32.00 L 48.00 33.00 L 49.00 35.00 L 46.00 37.00 L 45.00 36.00 L 42.00 36.00 L 39.00 34.00 L 46.00 28.00 L 46.00 26.00 L 43.00 24.00 L 37.00 28.00 L 32.00 23.00 L 34.00 22.00 Z M 37.00 16.00 L 38.00 15.00 L 39.00 16.00 L 38.00 17.00 Z M 27.00 15.00 L 28.00 16.00 L 27.00 19.00 L 26.00 18.00 Z M 58.00 15.00 L 60.00 14.00 L 62.00 15.00 L 63.00 17.00 L 61.00 18.00 L 59.00 17.00 Z M 27.00 14.00 L 28.00 13.00 L 29.00 15.00 L 28.00 16.00 Z M 28.00 13.00 L 29.00 12.00 L 30.00 13.00 L 29.00 14.00 Z M 34.00 12.00 L 35.00 11.00 L 36.00 12.00 L 35.00 13.00 Z M 29.00 12.00 L 30.00 11.00 L 32.00 12.00 L 31.00 13.00 Z M 31.00 11.00 L 32.00 10.00 L 35.00 11.00 L 34.00 12.00 Z M 54.00 3.00 L 55.00 2.00 L 57.00 3.00 L 56.00 4.00 Z M 43.00 1.00 L 44.00 0.00 L 51.00 0.00 L 52.00 1.00 L 51.00 2.00 L 44.00 2.00 Z" fill="rgb(23,28,1)" opacity="0.360" fill-rule="evenodd"/>
<path d="M 10.00 74.00 L 42.00 74.00 L 31.00 74.00 L 30.00 73.00 L 18.00 73.00 L 17.00 74.00 Z M 14.00 42.00 L 12.00 42.00 L 12.00 46.00 L 13.00 45.00 Z M 35.00 13.00 L 34.00 13.00 L 33.00 12.00 L 30.00 13.00 L 30.00 14.00 L 28.00 17.00 L 29.00 18.00 L 29.00 19.00 L 31.00 21.00 L 30.00 22.00 L 29.00 22.00 L 28.00 21.00 L 19.00 21.00 L 18.00 20.00 L 19.00 19.00 L 24.00 19.00 L 19.00 19.00 L 18.00 20.00 L 17.00 20.00 L 18.00 21.00 L 18.00 22.00 L 16.00 24.00 L 16.00 25.00 L 15.00 26.00 L 13.00 31.00 L 14.00 32.00 L 17.00 32.00 L 19.00 30.00 L 19.00 29.00 L 21.00 26.00 L 22.00 26.00 L 23.00 27.00 L 23.00 29.00 L 19.00 36.00 L 19.00 38.00 L 18.00 39.00 L 18.00 40.00 L 17.00 41.00 L 15.00 46.00 L 13.00 48.00 L 8.00 50.00 L 6.00 52.00 L 6.00 54.00 L 7.00 55.00 L 10.00 55.00 L 11.00 54.00 L 12.00 54.00 L 13.00 53.00 L 18.00 51.00 L 20.00 49.00 L 21.00 50.00 L 21.00 51.00 L 22.00 50.00 L 23.00 50.00 L 24.00 51.00 L 25.00 50.00 L 26.00 51.00 L 26.00 52.00 L 24.00 54.00 L 24.00 55.00 L 23.00 56.00 L 23.00 57.00 L 25.00 59.00 L 27.00 59.00 L 29.00 57.00 L 29.00 56.00 L 32.00 53.00 L 33.00 54.00 L 32.00 53.00 L 32.00 52.00 L 36.00 47.00 L 36.00 44.00 L 35.00 43.00 L 32.00 42.00 L 30.00 40.00 L 29.00 40.00 L 28.00 39.00 L 28.00 38.00 L 32.00 31.00 L 33.00 31.00 L 34.00 32.00 L 33.00 33.00 L 33.00 34.00 L 34.00 35.00 L 34.00 34.00 L 35.00 33.00 L 36.00 34.00 L 38.00 34.00 L 39.00 33.00 L 40.00 33.00 L 43.00 30.00 L 44.00 30.00 L 46.00 28.00 L 46.00 26.00 L 44.00 24.00 L 43.00 24.00 L 41.00 26.00 L 40.00 26.00 L 38.00 28.00 L 37.00 28.00 L 33.00 24.00 L 32.00 24.00 L 30.00 22.00 L 31.00 21.00 L 32.00 21.00 L 33.00 22.00 L 34.00 21.00 L 35.00 21.00 L 37.00 19.00 L 37.00 15.00 Z M 24.00 46.00 L 25.00 45.00 L 26.00 45.00 L 27.00 46.00 L 28.00 46.00 L 29.00 47.00 L 29.00 48.00 L 26.00 51.00 L 25.00 50.00 L 25.00 47.00 Z M 24.00 44.00 L 25.00 45.00 L 21.00 50.00 L 20.00 49.00 L 20.00 48.00 L 21.00 47.00 L 21.00 46.00 L 23.00 44.00 Z M 33.00 33.00 L 34.00 32.00 L 35.00 33.00 L 34.00 34.00 Z" fill="rgb(210,239,6)" opacity="0.550" fill-rule="evenodd"/>
<path d="M 45.00 25.00 L 42.00 25.00 L 40.00 27.00 L 37.00 28.00 L 33.00 24.00 L 32.00 24.00 L 27.00 21.00 L 19.00 21.00 L 17.00 23.00 L 16.00 26.00 L 14.00 28.00 L 14.00 31.00 L 15.00 32.00 L 17.00 32.00 L 21.00 26.00 L 23.00 26.00 L 24.00 27.00 L 20.00 34.00 L 20.00 36.00 L 19.00 37.00 L 19.00 38.00 L 18.00 39.00 L 18.00 40.00 L 17.00 41.00 L 15.00 46.00 L 13.00 48.00 L 12.00 48.00 L 11.00 49.00 L 10.00 49.00 L 8.00 51.00 L 7.00 51.00 L 6.00 52.00 L 6.00 54.00 L 7.00 55.00 L 10.00 55.00 L 11.00 54.00 L 12.00 54.00 L 13.00 53.00 L 18.00 51.00 L 20.00 49.00 L 21.00 46.00 L 23.00 44.00 L 24.00 44.00 L 25.00 45.00 L 28.00 46.00 L 29.00 47.00 L 29.00 48.00 L 27.00 50.00 L 27.00 51.00 L 25.00 53.00 L 25.00 54.00 L 23.00 56.00 L 23.00 57.00 L 25.00 59.00 L 28.00 58.00 L 28.00 57.00 L 31.00 54.00 L 31.00 53.00 L 33.00 51.00 L 33.00 50.00 L 36.00 47.00 L 36.00 44.00 L 35.00 43.00 L 32.00 42.00 L 30.00 40.00 L 29.00 40.00 L 28.00 39.00 L 28.00 37.00 L 30.00 35.00 L 30.00 34.00 L 32.00 31.00 L 33.00 31.00 L 36.00 34.00 L 38.00 34.00 L 40.00 32.00 L 41.00 32.00 L 44.00 29.00 L 45.00 29.00 L 46.00 28.00 L 46.00 26.00 Z M 31.00 13.00 L 29.00 15.00 L 29.00 19.00 L 31.00 21.00 L 35.00 21.00 L 37.00 18.00 L 37.00 15.00 L 35.00 13.00 Z" fill="rgb(211,242,7)" opacity="0.780" fill-rule="evenodd"/>
<path d="M 45.00 25.00 L 42.00 25.00 L 40.00 27.00 L 37.00 28.00 L 34.00 25.00 L 33.00 25.00 L 31.00 23.00 L 30.00 23.00 L 27.00 21.00 L 20.00 21.00 L 19.00 22.00 L 18.00 22.00 L 14.00 29.00 L 14.00 31.00 L 15.00 32.00 L 17.00 32.00 L 18.00 31.00 L 19.00 28.00 L 21.00 26.00 L 23.00 26.00 L 24.00 27.00 L 21.00 32.00 L 21.00 34.00 L 18.00 39.00 L 18.00 41.00 L 16.00 43.00 L 16.00 45.00 L 12.00 49.00 L 11.00 49.00 L 6.00 52.00 L 7.00 55.00 L 10.00 55.00 L 12.00 53.00 L 14.00 53.00 L 15.00 52.00 L 16.00 52.00 L 20.00 48.00 L 21.00 45.00 L 23.00 43.00 L 24.00 44.00 L 27.00 45.00 L 29.00 47.00 L 29.00 48.00 L 27.00 50.00 L 27.00 51.00 L 25.00 53.00 L 25.00 54.00 L 24.00 55.00 L 24.00 58.00 L 25.00 59.00 L 26.00 59.00 L 30.00 55.00 L 30.00 54.00 L 33.00 51.00 L 33.00 50.00 L 35.00 48.00 L 35.00 47.00 L 36.00 46.00 L 36.00 45.00 L 33.00 42.00 L 30.00 41.00 L 27.00 38.00 L 29.00 36.00 L 29.00 35.00 L 32.00 30.00 L 35.00 33.00 L 38.00 34.00 L 46.00 27.00 L 45.00 26.00 Z M 31.00 13.00 L 29.00 15.00 L 29.00 19.00 L 32.00 21.00 L 34.00 21.00 L 35.00 20.00 L 36.00 20.00 L 36.00 19.00 L 37.00 18.00 L 37.00 16.00 L 36.00 15.00 L 36.00 14.00 L 35.00 13.00 Z" fill="rgb(212,242,7)" opacity="1.000" fill-rule="evenodd"/>
</svg>