<svg xmlns="http://www.w3.org/2000/svg" viewBox="0 0 58 45" width="58" height="45" shape-rendering="geometricPrecision">
<title>badminton_chain_card smooth contour vector</title>
<path d="M 7.00 21.00 L 7.00 28.00 L 12.00 33.00 L 28.00 33.00 L 29.00 32.00 L 30.00 32.00 L 32.00 30.00 L 32.00 29.00 L 33.00 28.00 L 33.00 25.00 L 32.00 24.00 L 32.00 23.00 L 29.00 21.00 L 28.00 22.00 L 27.00 22.00 L 27.00 23.00 L 26.00 24.00 L 26.00 25.00 L 27.00 25.00 L 28.00 26.00 L 28.00 27.00 L 27.00 28.00 L 13.00 28.00 L 11.00 26.00 L 11.00 23.00 L 14.00 20.00 L 16.00 20.00 L 17.00 19.00 L 17.00 16.00 L 12.00 16.00 Z M 21.00 12.00 L 21.00 18.00 L 23.00 20.00 L 25.00 20.00 L 28.00 17.00 L 25.00 14.00 L 27.00 12.00 L 41.00 12.00 L 43.00 14.00 L 43.00 17.00 L 40.00 20.00 L 38.00 20.00 L 37.00 21.00 L 37.00 24.00 L 41.00 24.00 L 42.00 23.00 L 43.00 23.00 L 46.00 20.00 L 46.00 19.00 L 47.00 18.00 L 47.00 13.00 L 46.00 12.00 L 46.00 11.00 L 43.00 8.00 L 42.00 8.00 L 41.00 7.00 L 26.00 7.00 Z" fill="rgb(244,157,9)" opacity="1.000" fill-rule="evenodd"/>
</svg>
