<svg xmlns="http://www.w3.org/2000/svg" viewBox="0 0 44 41" width="44" height="41" shape-rendering="geometricPrecision">
<title>badminton_shuttle_legend smooth contour vector</title>
<path d="M 27.00 4.00 L 24.00 5.00 L 18.00 4.00 L 15.00 8.00 L 14.00 6.00 L 12.00 9.00 L 11.00 8.00 L 9.00 9.00 L 10.00 16.00 L 12.00 17.00 L 11.00 24.00 L 13.00 26.00 L 11.00 27.00 L 9.00 25.00 L 7.00 25.00 L 4.00 29.00 L 4.00 35.00 L 8.00 39.00 L 14.00 39.00 L 17.00 36.00 L 18.00 32.00 L 20.00 30.00 L 27.00 27.00 L 29.00 28.00 L 34.00 27.00 L 34.00 26.00 L 36.00 25.00 L 36.00 23.00 L 39.00 22.00 L 38.00 23.00 L 37.00 22.00 L 37.00 17.00 L 35.00 15.00 L 36.00 12.00 L 33.00 11.00 L 31.00 8.00 L 29.00 8.00 L 27.00 6.00 Z M 13.00 28.00 L 15.00 27.00 L 19.00 31.00 L 17.00 32.00 Z M 28.00 27.00 L 29.00 26.00 L 31.00 27.00 L 30.00 28.00 Z M 12.00 27.00 L 13.00 26.00 L 14.00 27.00 L 13.00 28.00 Z M 30.00 26.00 L 31.00 25.00 L 33.00 26.00 L 32.00 27.00 Z M 32.00 25.00 L 33.00 24.00 L 35.00 25.00 L 34.00 26.00 Z M 34.00 24.00 L 35.00 23.00 L 36.00 24.00 L 35.00 25.00 Z M 32.00 20.00 L 33.00 19.00 L 34.00 20.00 L 33.00 21.00 Z M 29.00 19.00 L 30.00 18.00 L 31.00 19.00 L 30.00 20.00 Z M 31.00 18.00 L 32.00 17.00 L 33.00 18.00 L 32.00 19.00 Z M 25.00 17.00 L 26.00 16.00 L 27.00 17.00 L 26.00 18.00 Z M 26.00 16.00 L 27.00 15.00 L 28.00 16.00 L 27.00 17.00 Z M 11.00 15.00 L 12.00 14.00 L 13.00 16.00 L 12.00 17.00 Z M 17.00 14.00 L 18.00 13.00 L 19.00 14.00 L 18.00 15.00 Z M 12.00 11.00 L 13.00 10.00 L 14.00 12.00 L 13.00 13.00 Z M 22.00 14.00 L 25.00 9.00 L 28.00 10.00 L 31.00 13.00 L 29.00 16.00 L 27.00 15.00 L 23.00 15.00 Z M 20.00 7.00 L 22.00 9.00 L 19.00 13.00 L 18.00 12.00 L 18.00 9.00 Z M 13.00 8.00 L 14.00 7.00 L 15.00 9.00 L 14.00 10.00 Z" fill="rgb(211,236,6)" opacity="0.230" fill-rule="evenodd"/>
<path d="M 27.00 4.00 L 24.00 5.00 L 18.00 4.00 L 16.00 6.00 L 13.00 14.00 L 12.00 12.00 L 13.00 16.00 L 11.00 20.00 L 11.00 24.00 L 13.00 26.00 L 11.00 27.00 L 9.00 25.00 L 7.00 25.00 L 4.00 29.00 L 4.00 35.00 L 8.00 39.00 L 13.00 39.00 L 15.00 38.00 L 20.00 30.00 L 26.00 28.00 L 37.00 22.00 L 37.00 17.00 L 35.00 15.00 L 36.00 12.00 L 29.00 8.00 L 27.00 6.00 Z M 13.00 28.00 L 15.00 27.00 L 19.00 31.00 L 17.00 32.00 Z M 12.00 27.00 L 13.00 26.00 L 14.00 27.00 L 13.00 28.00 Z M 25.00 23.00 L 26.00 22.00 L 27.00 23.00 L 26.00 24.00 Z M 18.00 22.00 L 19.00 21.00 L 20.00 22.00 L 19.00 23.00 Z M 28.00 20.00 L 29.00 19.00 L 30.00 20.00 L 29.00 21.00 Z M 33.00 18.00 L 34.00 20.00 L 32.00 21.00 L 31.00 20.00 Z M 29.00 19.00 L 30.00 18.00 L 32.00 19.00 L 31.00 20.00 Z M 31.00 18.00 L 32.00 17.00 L 33.00 18.00 L 32.00 19.00 Z M 25.00 17.00 L 26.00 16.00 L 27.00 17.00 L 26.00 18.00 Z M 26.00 16.00 L 27.00 15.00 L 28.00 16.00 L 27.00 17.00 Z M 16.00 15.00 L 17.00 14.00 L 18.00 15.00 L 17.00 16.00 Z M 17.00 13.00 L 18.00 12.00 L 19.00 14.00 L 18.00 15.00 Z M 22.00 15.00 L 25.00 9.00 L 28.00 10.00 L 31.00 13.00 L 29.00 16.00 L 27.00 15.00 L 25.00 17.00 Z M 20.00 7.00 L 22.00 9.00 L 19.00 13.00 L 18.00 12.00 L 18.00 9.00 Z" fill="rgb(212,238,6)" opacity="0.360" fill-rule="evenodd"/>
<path d="M 8.00 25.00 L 7.00 26.00 L 6.00 26.00 L 6.00 27.00 L 4.00 29.00 L 4.00 34.00 L 5.00 35.00 L 5.00 36.00 L 7.00 38.00 L 8.00 38.00 L 9.00 39.00 L 13.00 39.00 L 14.00 38.00 L 15.00 38.00 L 17.00 36.00 L 18.00 33.00 L 14.00 29.00 L 13.00 29.00 L 9.00 25.00 Z M 26.00 4.00 L 25.00 4.00 L 23.00 6.00 L 21.00 4.00 L 19.00 4.00 L 18.00 5.00 L 17.00 5.00 L 16.00 6.00 L 16.00 8.00 L 14.00 11.00 L 14.00 14.00 L 13.00 15.00 L 13.00 17.00 L 12.00 18.00 L 12.00 20.00 L 11.00 21.00 L 11.00 24.00 L 13.00 26.00 L 14.00 26.00 L 18.00 30.00 L 21.00 30.00 L 22.00 29.00 L 23.00 29.00 L 30.00 25.00 L 32.00 25.00 L 37.00 21.00 L 37.00 17.00 L 35.00 15.00 L 35.00 12.00 L 34.00 12.00 L 30.00 8.00 L 29.00 8.00 L 27.00 6.00 L 27.00 5.00 Z M 22.00 25.00 L 23.00 24.00 L 24.00 25.00 L 23.00 26.00 Z M 24.00 24.00 L 25.00 23.00 L 26.00 24.00 L 25.00 25.00 Z M 25.00 23.00 L 26.00 22.00 L 27.00 23.00 L 26.00 24.00 Z M 35.00 19.00 L 33.00 21.00 L 32.00 21.00 L 31.00 22.00 L 29.00 22.00 L 28.00 23.00 L 27.00 23.00 L 26.00 22.00 L 31.00 17.00 L 33.00 17.00 Z M 15.00 17.00 L 16.00 16.00 L 17.00 17.00 L 16.00 18.00 Z M 29.00 10.00 L 31.00 12.00 L 31.00 14.00 L 28.00 17.00 L 27.00 17.00 L 25.00 19.00 L 24.00 19.00 L 19.00 24.00 L 18.00 24.00 L 17.00 23.00 L 18.00 22.00 L 18.00 21.00 L 20.00 19.00 L 20.00 18.00 L 21.00 17.00 L 21.00 16.00 L 22.00 15.00 L 24.00 10.00 L 25.00 9.00 L 26.00 9.00 L 27.00 10.00 Z M 20.00 7.00 L 22.00 9.00 L 21.00 10.00 L 20.00 13.00 L 18.00 15.00 L 18.00 16.00 L 17.00 17.00 L 16.00 16.00 L 16.00 14.00 L 17.00 13.00 L 17.00 11.00 L 18.00 10.00 L 18.00 8.00 L 19.00 7.00 Z" fill="rgb(217,241,6)" opacity="0.550" fill-rule="evenodd"/>
<path d="M 8.00 25.00 L 4.00 29.00 L 4.00 34.00 L 5.00 35.00 L 5.00 36.00 L 7.00 38.00 L 8.00 38.00 L 9.00 39.00 L 13.00 39.00 L 14.00 38.00 L 15.00 38.00 L 17.00 36.00 L 18.00 33.00 L 16.00 31.00 L 15.00 31.00 L 9.00 25.00 Z M 26.00 4.00 L 25.00 4.00 L 23.00 6.00 L 20.00 4.00 L 17.00 5.00 L 17.00 6.00 L 15.00 9.00 L 15.00 11.00 L 14.00 12.00 L 14.00 14.00 L 13.00 15.00 L 13.00 17.00 L 12.00 18.00 L 12.00 20.00 L 11.00 21.00 L 11.00 24.00 L 12.00 25.00 L 13.00 25.00 L 18.00 30.00 L 20.00 30.00 L 21.00 29.00 L 23.00 29.00 L 24.00 28.00 L 25.00 28.00 L 26.00 27.00 L 27.00 27.00 L 28.00 26.00 L 29.00 26.00 L 30.00 25.00 L 35.00 23.00 L 37.00 21.00 L 37.00 17.00 L 34.00 15.00 L 35.00 12.00 L 34.00 12.00 L 30.00 8.00 L 29.00 8.00 L 27.00 6.00 L 27.00 5.00 Z M 22.00 25.00 L 23.00 24.00 L 24.00 25.00 L 23.00 26.00 Z M 23.00 24.00 L 24.00 23.00 L 25.00 23.00 L 26.00 24.00 L 25.00 25.00 L 24.00 25.00 Z M 14.00 19.00 L 15.00 18.00 L 16.00 19.00 L 16.00 20.00 L 15.00 21.00 L 14.00 20.00 Z M 35.00 19.00 L 33.00 21.00 L 32.00 21.00 L 27.00 24.00 L 26.00 24.00 L 25.00 23.00 L 31.00 17.00 L 33.00 17.00 Z M 15.00 17.00 L 16.00 16.00 L 17.00 17.00 L 17.00 18.00 L 16.00 19.00 L 15.00 18.00 Z M 29.00 10.00 L 31.00 12.00 L 31.00 14.00 L 27.00 18.00 L 26.00 18.00 L 24.00 20.00 L 23.00 20.00 L 19.00 24.00 L 18.00 24.00 L 17.00 23.00 L 18.00 22.00 L 18.00 21.00 L 19.00 20.00 L 19.00 19.00 L 20.00 18.00 L 20.00 17.00 L 21.00 16.00 L 23.00 11.00 L 25.00 9.00 L 26.00 9.00 L 27.00 10.00 Z M 21.00 7.00 L 22.00 8.00 L 22.00 10.00 L 20.00 12.00 L 20.00 13.00 L 18.00 15.00 L 18.00 16.00 L 17.00 17.00 L 16.00 16.00 L 16.00 14.00 L 17.00 13.00 L 17.00 10.00 L 19.00 7.00 Z" fill="rgb(218,241,6)" opacity="0.780" fill-rule="evenodd"/>
<path d="M 8.00 25.00 L 5.00 28.00 L 5.00 29.00 L 4.00 30.00 L 4.00 34.00 L 6.00 36.00 L 6.00 37.00 L 7.00 38.00 L 9.00 38.00 L 10.00 39.00 L 12.00 39.00 L 13.00 38.00 L 16.00 37.00 L 16.00 36.00 L 18.00 33.00 L 17.00 32.00 L 16.00 32.00 L 11.00 27.00 L 10.00 27.00 L 9.00 26.00 L 9.00 25.00 Z M 27.00 5.00 L 25.00 5.00 L 24.00 6.00 L 23.00 6.00 L 20.00 4.00 L 19.00 5.00 L 18.00 5.00 L 16.00 7.00 L 16.00 8.00 L 15.00 9.00 L 15.00 11.00 L 14.00 12.00 L 14.00 14.00 L 13.00 15.00 L 13.00 18.00 L 12.00 19.00 L 12.00 21.00 L 11.00 22.00 L 11.00 24.00 L 12.00 24.00 L 18.00 30.00 L 20.00 30.00 L 23.00 28.00 L 25.00 28.00 L 26.00 27.00 L 27.00 27.00 L 28.00 26.00 L 29.00 26.00 L 30.00 25.00 L 35.00 23.00 L 37.00 21.00 L 37.00 18.00 L 34.00 15.00 L 35.00 12.00 L 34.00 12.00 L 30.00 8.00 L 28.00 8.00 L 27.00 7.00 Z M 14.00 19.00 L 15.00 18.00 L 16.00 19.00 L 16.00 20.00 L 15.00 21.00 L 14.00 20.00 Z M 35.00 19.00 L 32.00 22.00 L 31.00 22.00 L 30.00 23.00 L 28.00 23.00 L 26.00 25.00 L 25.00 25.00 L 24.00 26.00 L 23.00 26.00 L 22.00 25.00 L 31.00 17.00 L 33.00 17.00 Z M 29.00 10.00 L 31.00 12.00 L 31.00 14.00 L 26.00 19.00 L 25.00 19.00 L 18.00 25.00 L 17.00 24.00 L 17.00 22.00 L 18.00 21.00 L 18.00 20.00 L 20.00 18.00 L 20.00 17.00 L 21.00 16.00 L 23.00 11.00 L 25.00 9.00 L 26.00 9.00 L 27.00 10.00 Z M 21.00 7.00 L 22.00 8.00 L 22.00 10.00 L 16.00 19.00 L 15.00 18.00 L 15.00 16.00 L 16.00 15.00 L 16.00 13.00 L 17.00 12.00 L 17.00 10.00 L 19.00 7.00 Z" fill="rgb(220,242,6)" opacity="1.000" fill-rule="evenodd"/>
</svg>