<svg xmlns="http://www.w3.org/2000/svg" viewBox="0 0 28 28" width="28" height="28" shape-rendering="geometricPrecision">
<title>action_arrow_down_right_legend smooth contour vector</title>
<path d="M 5.00 5.00 L 4.00 7.00 L 5.00 9.00 L 11.00 15.00 L 10.00 16.00 L 11.00 15.00 L 13.00 17.00 L 12.00 18.00 L 9.00 18.00 L 7.00 20.00 L 7.00 22.00 L 8.00 23.00 L 21.00 23.00 L 23.00 21.00 L 23.00 8.00 L 22.00 7.00 L 19.00 7.00 L 18.00 8.00 L 15.00 6.00 L 14.00 7.00 L 12.00 6.00 L 11.00 7.00 L 7.00 4.00 Z M 14.00 10.00 L 15.00 9.00 L 16.00 10.00 L 15.00 11.00 Z M 13.00 9.00 L 14.00 8.00 L 15.00 9.00 L 14.00 10.00 Z M 17.00 7.00 L 18.00 8.00 L 18.00 13.00 L 17.00 14.00 L 15.00 11.00 Z M 12.00 8.00 L 13.00 7.00 L 14.00 8.00 L 13.00 9.00 Z M 11.00 7.00 L 12.00 6.00 L 13.00 7.00 L 12.00 8.00 Z" fill="rgb(200,233,10)" opacity="0.230" fill-rule="evenodd"/>
<path d="M 5.00 5.00 L 4.00 7.00 L 5.00 9.00 L 13.00 17.00 L 12.00 18.00 L 9.00 18.00 L 7.00 20.00 L 7.00 22.00 L 8.00 23.00 L 21.00 23.00 L 23.00 21.00 L 23.00 8.00 L 22.00 7.00 L 19.00 7.00 L 18.00 8.00 L 18.00 13.00 L 17.00 14.00 L 15.00 12.00 L 16.00 10.00 L 15.00 11.00 L 13.00 10.00 L 12.00 8.00 L 7.00 4.00 Z" fill="rgb(201,234,10)" opacity="0.360" fill-rule="evenodd"/>
<path d="M 6.00 5.00 L 5.00 6.00 L 5.00 9.00 L 13.00 17.00 L 12.00 18.00 L 10.00 18.00 L 9.00 19.00 L 8.00 19.00 L 7.00 20.00 L 7.00 22.00 L 8.00 23.00 L 21.00 23.00 L 23.00 21.00 L 23.00 9.00 L 22.00 8.00 L 22.00 7.00 L 19.00 7.00 L 19.00 8.00 L 18.00 9.00 L 18.00 12.00 L 19.00 13.00 L 18.00 14.00 L 17.00 14.00 L 8.00 5.00 Z" fill="rgb(201,235,10)" opacity="0.550" fill-rule="evenodd"/>
<path d="M 6.00 5.00 L 5.00 6.00 L 5.00 9.00 L 14.00 17.00 L 14.00 18.00 L 13.00 19.00 L 8.00 19.00 L 7.00 20.00 L 8.00 23.00 L 21.00 23.00 L 22.00 22.00 L 22.00 8.00 L 21.00 7.00 L 20.00 7.00 L 18.00 9.00 L 18.00 11.00 L 19.00 12.00 L 19.00 13.00 L 18.00 14.00 L 17.00 14.00 L 8.00 5.00 Z" fill="rgb(203,236,11)" opacity="0.780" fill-rule="evenodd"/>
<path d="M 6.00 5.00 L 5.00 6.00 L 5.00 8.00 L 14.00 17.00 L 14.00 18.00 L 13.00 19.00 L 8.00 19.00 L 8.00 20.00 L 7.00 21.00 L 9.00 23.00 L 21.00 23.00 L 22.00 22.00 L 22.00 8.00 L 21.00 7.00 L 20.00 7.00 L 19.00 8.00 L 19.00 14.00 L 18.00 15.00 L 8.00 5.00 Z" fill="rgb(204,237,11)" opacity="1.000" fill-rule="evenodd"/>
</svg>