<svg xmlns="http://www.w3.org/2000/svg" viewBox="0 0 53 78" width="53" height="78" shape-rendering="geometricPrecision">
<title>action_lightning_main smooth contour vector</title>
<path d="M 34.00 5.00 L 32.00 5.00 L 32.00 6.00 L 29.00 9.00 L 29.00 10.00 L 26.00 13.00 L 26.00 14.00 L 23.00 17.00 L 23.00 18.00 L 21.00 20.00 L 21.00 21.00 L 18.00 24.00 L 18.00 25.00 L 15.00 28.00 L 15.00 29.00 L 12.00 32.00 L 12.00 33.00 L 10.00 35.00 L 10.00 36.00 L 7.00 39.00 L 7.00 40.00 L 5.00 42.00 L 5.00 45.00 L 21.00 45.00 L 23.00 47.00 L 22.00 48.00 L 22.00 50.00 L 21.00 51.00 L 21.00 53.00 L 20.00 54.00 L 20.00 57.00 L 19.00 58.00 L 19.00 61.00 L 18.00 62.00 L 18.00 65.00 L 17.00 66.00 L 17.00 68.00 L 16.00 69.00 L 16.00 72.00 L 17.00 73.00 L 18.00 73.00 L 19.00 72.00 L 19.00 71.00 L 22.00 68.00 L 22.00 67.00 L 25.00 64.00 L 25.00 63.00 L 28.00 60.00 L 28.00 59.00 L 31.00 56.00 L 31.00 55.00 L 34.00 52.00 L 34.00 51.00 L 37.00 48.00 L 37.00 47.00 L 40.00 44.00 L 40.00 43.00 L 43.00 40.00 L 43.00 39.00 L 46.00 36.00 L 46.00 35.00 L 47.00 34.00 L 47.00 33.00 L 46.00 32.00 L 29.00 32.00 L 28.00 31.00 L 28.00 30.00 L 29.00 29.00 L 29.00 27.00 L 30.00 26.00 L 30.00 23.00 L 31.00 22.00 L 31.00 19.00 L 32.00 18.00 L 32.00 15.00 L 33.00 14.00 L 33.00 12.00 L 34.00 11.00 L 34.00 7.00 L 35.00 6.00 Z" fill="rgb(219,246,10)" opacity="1.000" fill-rule="evenodd"/>
</svg>
